STARTFONT 2.1
FONT -Efont-Fixed-Medium-I-Normal--12-120-75-75-C-60-ISO10646-1
SIZE 12 75 75
FONTBOUNDINGBOX 9 12 -1 -2
STARTPROPERTIES 18
COPYRIGHT "(c) Copyright 2000-2003 /efont/ The Electronic Font Open Laboratory."
FOUNDRY "Efont"
FAMILY_NAME "Fixed"
WEIGHT_NAME "Medium"
SLANT "I"
SETWIDTH_NAME "Normal"
ADD_STYLE_NAME ""
PIXEL_SIZE 12
POINT_SIZE 120
RESOLUTION_X 75
RESOLUTION_Y 75
AVERAGE_WIDTH 60
CHARSET_REGISTRY "ISO10646"
CHARSET_ENCODING "1"
_MULE_BASELINE_OFFSET -3
FONT_ASCENT 10
FONT_DESCENT 2
DEFAULT_CHAR 32
ENDPROPERTIES
CHARS 2120
STARTCHAR U+0000
ENCODING 0
SWIDTH 500 0
DWIDTH 6 0
BBX 9 12 -1 -2
BITMAP 
0000
0000
0000
1500
0000
1100
0000
2200
0000
5400
0000
0000
ENDCHAR
STARTCHAR U+0020
ENCODING 32
SWIDTH 500 0
DWIDTH 6 0
BBX 9 12 -1 -2
BITMAP 
0000
0000
0000
0000
0000
0000
0000
0000
0000
0000
0000
0000
ENDCHAR
STARTCHAR U+0021
ENCODING 33
SWIDTH 500 0
DWIDTH 6 0
BBX 9 12 -1 -2
BITMAP 
0000
0000
0000
0400
0400
0400
0800
0800
0000
1000
0000
0000
ENDCHAR
STARTCHAR U+0022
ENCODING 34
SWIDTH 500 0
DWIDTH 6 0
BBX 9 12 -1 -2
BITMAP 
0000
0000
0500
0A00
0A00
0000
0000
0000
0000
0000
0000
0000
ENDCHAR
STARTCHAR U+0023
ENCODING 35
SWIDTH 500 0
DWIDTH 6 0
BBX 9 12 -1 -2
BITMAP 
0000
0000
0000
0000
0A00
1F00
1400
1400
3E00
2800
0000
0000
ENDCHAR
STARTCHAR U+0024
ENCODING 36
SWIDTH 500 0
DWIDTH 6 0
BBX 9 12 -1 -2
BITMAP 
0000
0000
0200
0E00
1500
1400
1C00
0A00
2C00
3800
1000
0000
ENDCHAR
STARTCHAR U+0025
ENCODING 37
SWIDTH 500 0
DWIDTH 6 0
BBX 9 12 -1 -2
BITMAP 
0000
0000
0000
1900
1900
0200
0C00
1000
2600
4C00
0000
0000
ENDCHAR
STARTCHAR U+0026
ENCODING 38
SWIDTH 500 0
DWIDTH 6 0
BBX 9 12 -1 -2
BITMAP 
0000
0000
0000
0800
1400
1800
1000
2A00
2C00
1400
0000
0000
ENDCHAR
STARTCHAR U+0027
ENCODING 39
SWIDTH 500 0
DWIDTH 6 0
BBX 9 12 -1 -2
BITMAP 
0000
0000
0200
0400
0400
0000
0000
0000
0000
0000
0000
0000
ENDCHAR
STARTCHAR U+0028
ENCODING 40
SWIDTH 500 0
DWIDTH 6 0
BBX 9 12 -1 -2
BITMAP 
0000
0000
0100
0200
0400
0800
1000
1000
1000
1000
0800
0000
ENDCHAR
STARTCHAR U+0029
ENCODING 41
SWIDTH 500 0
DWIDTH 6 0
BBX 9 12 -1 -2
BITMAP 
0000
0000
0400
0400
0400
0400
0400
0400
0800
1000
2000
0000
ENDCHAR
STARTCHAR U+002A
ENCODING 42
SWIDTH 500 0
DWIDTH 6 0
BBX 9 12 -1 -2
BITMAP 
0000
0000
0000
0400
1500
0E00
0800
1C00
2A00
1000
0000
0000
ENDCHAR
STARTCHAR U+002B
ENCODING 43
SWIDTH 500 0
DWIDTH 6 0
BBX 9 12 -1 -2
BITMAP 
0000
0000
0000
0000
0400
0400
3E00
0800
0800
0000
0000
0000
ENDCHAR
STARTCHAR U+002C
ENCODING 44
SWIDTH 500 0
DWIDTH 6 0
BBX 9 12 -1 -2
BITMAP 
0000
0000
0000
0000
0000
0000
0000
0000
1800
3000
6000
0000
ENDCHAR
STARTCHAR U+002D
ENCODING 45
SWIDTH 500 0
DWIDTH 6 0
BBX 9 12 -1 -2
BITMAP 
0000
0000
0000
0000
0000
0000
3E00
0000
0000
0000
0000
0000
ENDCHAR
STARTCHAR U+002E
ENCODING 46
SWIDTH 500 0
DWIDTH 6 0
BBX 9 12 -1 -2
BITMAP 
0000
0000
0000
0000
0000
0000
0000
0000
1800
3000
0000
0000
ENDCHAR
STARTCHAR U+002F
ENCODING 47
SWIDTH 500 0
DWIDTH 6 0
BBX 9 12 -1 -2
BITMAP 
0000
0000
0000
0100
0200
0400
0800
1000
2000
4000
0000
0000
ENDCHAR
STARTCHAR U+0030
ENCODING 48
SWIDTH 500 0
DWIDTH 6 0
BBX 9 12 -1 -2
BITMAP 
0000
0000
0000
0600
0900
0900
1200
1200
1400
1800
0000
0000
ENDCHAR
STARTCHAR U+0031
ENCODING 49
SWIDTH 500 0
DWIDTH 6 0
BBX 9 12 -1 -2
BITMAP 
0000
0000
0000
0400
0C00
0400
0800
0800
0800
3800
0000
0000
ENDCHAR
STARTCHAR U+0032
ENCODING 50
SWIDTH 500 0
DWIDTH 6 0
BBX 9 12 -1 -2
BITMAP 
0000
0000
0000
0E00
1100
0200
0400
0800
3000
5C00
0000
0000
ENDCHAR
STARTCHAR U+0033
ENCODING 51
SWIDTH 500 0
DWIDTH 6 0
BBX 9 12 -1 -2
BITMAP 
0000
0000
0000
1F00
0100
0400
0E00
0200
2400
1800
0000
0000
ENDCHAR
STARTCHAR U+0034
ENCODING 52
SWIDTH 500 0
DWIDTH 6 0
BBX 9 12 -1 -2
BITMAP 
0000
0000
0000
0200
0600
0A00
1400
3E00
0400
0800
0000
0000
ENDCHAR
STARTCHAR U+0035
ENCODING 53
SWIDTH 500 0
DWIDTH 6 0
BBX 9 12 -1 -2
BITMAP 
0000
0000
0000
1F00
1000
1C00
0200
0200
2400
1800
0000
0000
ENDCHAR
STARTCHAR U+0036
ENCODING 54
SWIDTH 500 0
DWIDTH 6 0
BBX 9 12 -1 -2
BITMAP 
0000
0000
0000
0600
0800
1000
3C00
2200
2400
1800
0000
0000
ENDCHAR
STARTCHAR U+0037
ENCODING 55
SWIDTH 500 0
DWIDTH 6 0
BBX 9 12 -1 -2
BITMAP 
0000
0000
0000
1F00
0100
0200
0400
0800
0800
1000
0000
0000
ENDCHAR
STARTCHAR U+0038
ENCODING 56
SWIDTH 500 0
DWIDTH 6 0
BBX 9 12 -1 -2
BITMAP 
0000
0000
0000
0E00
1100
1200
1C00
2200
2400
1800
0000
0000
ENDCHAR
STARTCHAR U+0039
ENCODING 57
SWIDTH 500 0
DWIDTH 6 0
BBX 9 12 -1 -2
BITMAP 
0000
0000
0000
0E00
1100
1100
0E00
0200
0C00
3000
0000
0000
ENDCHAR
STARTCHAR U+003A
ENCODING 58
SWIDTH 500 0
DWIDTH 6 0
BBX 9 12 -1 -2
BITMAP 
0000
0000
0000
0000
0000
0C00
1800
0000
1800
3000
0000
0000
ENDCHAR
STARTCHAR U+003B
ENCODING 59
SWIDTH 500 0
DWIDTH 6 0
BBX 9 12 -1 -2
BITMAP 
0000
0000
0000
0000
0000
0C00
1800
0000
1800
3000
6000
0000
ENDCHAR
STARTCHAR U+003C
ENCODING 60
SWIDTH 500 0
DWIDTH 6 0
BBX 9 12 -1 -2
BITMAP 
0000
0000
0000
0000
0200
0C00
1000
0800
0400
0000
0000
0000
ENDCHAR
STARTCHAR U+003D
ENCODING 61
SWIDTH 500 0
DWIDTH 6 0
BBX 9 12 -1 -2
BITMAP 
0000
0000
0000
0000
0000
1F00
0000
3E00
0000
0000
0000
0000
ENDCHAR
STARTCHAR U+003E
ENCODING 62
SWIDTH 500 0
DWIDTH 6 0
BBX 9 12 -1 -2
BITMAP 
0000
0000
0000
0000
0800
0400
0400
0800
1000
0000
0000
0000
ENDCHAR
STARTCHAR U+003F
ENCODING 63
SWIDTH 500 0
DWIDTH 6 0
BBX 9 12 -1 -2
BITMAP 
0000
0000
0000
0E00
1100
0200
0400
0800
0000
1000
0000
0000
ENDCHAR
STARTCHAR U+0040
ENCODING 64
SWIDTH 500 0
DWIDTH 6 0
BBX 9 12 -1 -2
BITMAP 
0000
0000
0000
0E00
1100
1700
2A00
2E00
2000
1800
0000
0000
ENDCHAR
STARTCHAR U+0041
ENCODING 65
SWIDTH 500 0
DWIDTH 6 0
BBX 9 12 -1 -2
BITMAP 
0000
0000
0000
0E00
1100
1100
3E00
2200
2200
4400
0000
0000
ENDCHAR
STARTCHAR U+0042
ENCODING 66
SWIDTH 500 0
DWIDTH 6 0
BBX 9 12 -1 -2
BITMAP 
0000
0000
0000
1E00
0900
0A00
1C00
1200
1400
7800
0000
0000
ENDCHAR
STARTCHAR U+0043
ENCODING 67
SWIDTH 500 0
DWIDTH 6 0
BBX 9 12 -1 -2
BITMAP 
0000
0000
0000
0E00
1100
1000
2000
2000
2600
1800
0000
0000
ENDCHAR
STARTCHAR U+0044
ENCODING 68
SWIDTH 500 0
DWIDTH 6 0
BBX 9 12 -1 -2
BITMAP 
0000
0000
0000
1E00
0900
0900
1200
1200
1400
7800
0000
0000
ENDCHAR
STARTCHAR U+0045
ENCODING 69
SWIDTH 500 0
DWIDTH 6 0
BBX 9 12 -1 -2
BITMAP 
0000
0000
0000
1F00
1000
1000
3C00
2000
2000
7C00
0000
0000
ENDCHAR
STARTCHAR U+0046
ENCODING 70
SWIDTH 500 0
DWIDTH 6 0
BBX 9 12 -1 -2
BITMAP 
0000
0000
0000
1F00
1000
1000
3C00
2000
2000
4000
0000
0000
ENDCHAR
STARTCHAR U+0047
ENCODING 71
SWIDTH 500 0
DWIDTH 6 0
BBX 9 12 -1 -2
BITMAP 
0000
0000
0000
0E00
1100
1000
2000
2600
2400
1800
0000
0000
ENDCHAR
STARTCHAR U+0048
ENCODING 72
SWIDTH 500 0
DWIDTH 6 0
BBX 9 12 -1 -2
BITMAP 
0000
0000
0000
1100
1100
1100
3E00
2200
2200
4400
0000
0000
ENDCHAR
STARTCHAR U+0049
ENCODING 73
SWIDTH 500 0
DWIDTH 6 0
BBX 9 12 -1 -2
BITMAP 
0000
0000
0000
0E00
0400
0400
0800
0800
0800
3800
0000
0000
ENDCHAR
STARTCHAR U+004A
ENCODING 74
SWIDTH 500 0
DWIDTH 6 0
BBX 9 12 -1 -2
BITMAP 
0000
0000
0000
0700
0200
0200
0400
0400
2800
3000
0000
0000
ENDCHAR
STARTCHAR U+004B
ENCODING 75
SWIDTH 500 0
DWIDTH 6 0
BBX 9 12 -1 -2
BITMAP 
0000
0000
0000
1100
1200
1C00
3000
2800
2400
4400
0000
0000
ENDCHAR
STARTCHAR U+004C
ENCODING 76
SWIDTH 500 0
DWIDTH 6 0
BBX 9 12 -1 -2
BITMAP 
0000
0000
0000
1000
1000
1000
2000
2000
2000
7C00
0000
0000
ENDCHAR
STARTCHAR U+004D
ENCODING 77
SWIDTH 500 0
DWIDTH 6 0
BBX 9 12 -1 -2
BITMAP 
0000
0000
0000
1100
1B00
1500
2200
2200
2200
4400
0000
0000
ENDCHAR
STARTCHAR U+004E
ENCODING 78
SWIDTH 500 0
DWIDTH 6 0
BBX 9 12 -1 -2
BITMAP 
0000
0000
0000
1100
1100
1900
2A00
2600
2200
4400
0000
0000
ENDCHAR
STARTCHAR U+004F
ENCODING 79
SWIDTH 500 0
DWIDTH 6 0
BBX 9 12 -1 -2
BITMAP 
0000
0000
0000
0E00
1100
1100
2200
2200
2400
1800
0000
0000
ENDCHAR
STARTCHAR U+0050
ENCODING 80
SWIDTH 500 0
DWIDTH 6 0
BBX 9 12 -1 -2
BITMAP 
0000
0000
0000
1E00
1100
1200
3C00
2000
2000
4000
0000
0000
ENDCHAR
STARTCHAR U+0051
ENCODING 81
SWIDTH 500 0
DWIDTH 6 0
BBX 9 12 -1 -2
BITMAP 
0000
0000
0000
0E00
1100
1100
2200
2A00
2C00
1400
0000
0000
ENDCHAR
STARTCHAR U+0052
ENCODING 82
SWIDTH 500 0
DWIDTH 6 0
BBX 9 12 -1 -2
BITMAP 
0000
0000
0000
1E00
1100
1200
3C00
2800
2400
4400
0000
0000
ENDCHAR
STARTCHAR U+0053
ENCODING 83
SWIDTH 500 0
DWIDTH 6 0
BBX 9 12 -1 -2
BITMAP 
0000
0000
0000
0E00
1100
1000
0C00
0200
2400
1800
0000
0000
ENDCHAR
STARTCHAR U+0054
ENCODING 84
SWIDTH 500 0
DWIDTH 6 0
BBX 9 12 -1 -2
BITMAP 
0000
0000
0000
1F00
0400
0400
0800
0800
0800
1000
0000
0000
ENDCHAR
STARTCHAR U+0055
ENCODING 85
SWIDTH 500 0
DWIDTH 6 0
BBX 9 12 -1 -2
BITMAP 
0000
0000
0000
1100
1100
1100
2200
2200
2400
1800
0000
0000
ENDCHAR
STARTCHAR U+0056
ENCODING 86
SWIDTH 500 0
DWIDTH 6 0
BBX 9 12 -1 -2
BITMAP 
0000
0000
0000
1100
1100
1200
1200
1400
1800
1000
0000
0000
ENDCHAR
STARTCHAR U+0057
ENCODING 87
SWIDTH 500 0
DWIDTH 6 0
BBX 9 12 -1 -2
BITMAP 
0000
0000
0000
1100
1100
1100
2200
2A00
3C00
2800
0000
0000
ENDCHAR
STARTCHAR U+0058
ENCODING 88
SWIDTH 500 0
DWIDTH 6 0
BBX 9 12 -1 -2
BITMAP 
0000
0000
0000
1100
1100
0A00
0C00
1400
2400
4400
0000
0000
ENDCHAR
STARTCHAR U+0059
ENCODING 89
SWIDTH 500 0
DWIDTH 6 0
BBX 9 12 -1 -2
BITMAP 
0000
0000
0000
1100
1100
0A00
0C00
0800
0800
1000
0000
0000
ENDCHAR
STARTCHAR U+005A
ENCODING 90
SWIDTH 500 0
DWIDTH 6 0
BBX 9 12 -1 -2
BITMAP 
0000
0000
0000
1F00
0200
0400
0800
1000
2000
7C00
0000
0000
ENDCHAR
STARTCHAR U+005B
ENCODING 91
SWIDTH 500 0
DWIDTH 6 0
BBX 9 12 -1 -2
BITMAP 
0000
0000
0700
0800
0800
0800
1000
1000
1000
2000
3800
0000
ENDCHAR
STARTCHAR U+005C
ENCODING 92
SWIDTH 500 0
DWIDTH 6 0
BBX 9 12 -1 -2
BITMAP 
0000
0000
0000
1000
0800
0800
0800
0400
0400
0400
0000
0000
ENDCHAR
STARTCHAR U+005D
ENCODING 93
SWIDTH 500 0
DWIDTH 6 0
BBX 9 12 -1 -2
BITMAP 
0000
0000
0700
0200
0200
0200
0400
0400
0400
0800
3800
0000
ENDCHAR
STARTCHAR U+005E
ENCODING 94
SWIDTH 500 0
DWIDTH 6 0
BBX 9 12 -1 -2
BITMAP 
0000
0000
0600
0A00
1100
0000
0000
0000
0000
0000
0000
0000
ENDCHAR
STARTCHAR U+005F
ENCODING 95
SWIDTH 500 0
DWIDTH 6 0
BBX 9 12 -1 -2
BITMAP 
0000
0000
0000
0000
0000
0000
0000
0000
0000
0000
0000
7C00
ENDCHAR
STARTCHAR U+0060
ENCODING 96
SWIDTH 500 0
DWIDTH 6 0
BBX 9 12 -1 -2
BITMAP 
0000
0000
0400
0400
0200
0000
0000
0000
0000
0000
0000
0000
ENDCHAR
STARTCHAR U+0061
ENCODING 97
SWIDTH 500 0
DWIDTH 6 0
BBX 9 12 -1 -2
BITMAP 
0000
0000
0000
0000
0000
0C00
0200
1E00
2200
1C00
0000
0000
ENDCHAR
STARTCHAR U+0062
ENCODING 98
SWIDTH 500 0
DWIDTH 6 0
BBX 9 12 -1 -2
BITMAP 
0000
0000
0000
1000
1000
1C00
2200
2200
2400
7800
0000
0000
ENDCHAR
STARTCHAR U+0063
ENCODING 99
SWIDTH 500 0
DWIDTH 6 0
BBX 9 12 -1 -2
BITMAP 
0000
0000
0000
0000
0000
0C00
1200
2000
2600
1800
0000
0000
ENDCHAR
STARTCHAR U+0064
ENCODING 100
SWIDTH 500 0
DWIDTH 6 0
BBX 9 12 -1 -2
BITMAP 
0000
0000
0000
0100
0100
0F00
1200
2200
2200
1C00
0000
0000
ENDCHAR
STARTCHAR U+0065
ENCODING 101
SWIDTH 500 0
DWIDTH 6 0
BBX 9 12 -1 -2
BITMAP 
0000
0000
0000
0000
0000
0C00
1200
3C00
2000
1800
0000
0000
ENDCHAR
STARTCHAR U+0066
ENCODING 102
SWIDTH 500 0
DWIDTH 6 0
BBX 9 12 -1 -2
BITMAP 
0000
0000
0000
0600
0900
0800
3800
1000
1000
2000
0000
0000
ENDCHAR
STARTCHAR U+0067
ENCODING 103
SWIDTH 500 0
DWIDTH 6 0
BBX 9 12 -1 -2
BITMAP 
0000
0000
0000
0000
0000
0C00
1200
2200
2200
1C00
0400
3800
ENDCHAR
STARTCHAR U+0068
ENCODING 104
SWIDTH 500 0
DWIDTH 6 0
BBX 9 12 -1 -2
BITMAP 
0000
0000
0000
1000
1000
1C00
2200
2200
2200
4400
0000
0000
ENDCHAR
STARTCHAR U+0069
ENCODING 105
SWIDTH 500 0
DWIDTH 6 0
BBX 9 12 -1 -2
BITMAP 
0000
0000
0000
0400
0000
0C00
0800
0800
0800
3800
0000
0000
ENDCHAR
STARTCHAR U+006A
ENCODING 106
SWIDTH 500 0
DWIDTH 6 0
BBX 9 12 -1 -2
BITMAP 
0000
0000
0000
0100
0000
0300
0200
0200
0200
0400
2400
1800
ENDCHAR
STARTCHAR U+006B
ENCODING 107
SWIDTH 500 0
DWIDTH 6 0
BBX 9 12 -1 -2
BITMAP 
0000
0000
0000
1000
1000
1300
2400
3800
2400
4400
0000
0000
ENDCHAR
STARTCHAR U+006C
ENCODING 108
SWIDTH 500 0
DWIDTH 6 0
BBX 9 12 -1 -2
BITMAP 
0000
0000
0000
0C00
0400
0400
0800
0800
0800
3800
0000
0000
ENDCHAR
STARTCHAR U+006D
ENCODING 109
SWIDTH 500 0
DWIDTH 6 0
BBX 9 12 -1 -2
BITMAP 
0000
0000
0000
0000
0000
1E00
2A00
2A00
2A00
5400
0000
0000
ENDCHAR
STARTCHAR U+006E
ENCODING 110
SWIDTH 500 0
DWIDTH 6 0
BBX 9 12 -1 -2
BITMAP 
0000
0000
0000
0000
0000
1C00
3200
2200
2200
4400
0000
0000
ENDCHAR
STARTCHAR U+006F
ENCODING 111
SWIDTH 500 0
DWIDTH 6 0
BBX 9 12 -1 -2
BITMAP 
0000
0000
0000
0000
0000
0C00
1200
2200
2400
1800
0000
0000
ENDCHAR
STARTCHAR U+0070
ENCODING 112
SWIDTH 500 0
DWIDTH 6 0
BBX 9 12 -1 -2
BITMAP 
0000
0000
0000
0000
0000
1C00
2200
2200
2400
7800
4000
4000
ENDCHAR
STARTCHAR U+0071
ENCODING 113
SWIDTH 500 0
DWIDTH 6 0
BBX 9 12 -1 -2
BITMAP 
0000
0000
0000
0000
0000
0F00
1200
2200
2200
1C00
0400
0400
ENDCHAR
STARTCHAR U+0072
ENCODING 114
SWIDTH 500 0
DWIDTH 6 0
BBX 9 12 -1 -2
BITMAP 
0000
0000
0000
0000
0000
1C00
3200
2000
2000
4000
0000
0000
ENDCHAR
STARTCHAR U+0073
ENCODING 115
SWIDTH 500 0
DWIDTH 6 0
BBX 9 12 -1 -2
BITMAP 
0000
0000
0000
0000
0000
1F00
2000
1C00
0600
7800
0000
0000
ENDCHAR
STARTCHAR U+0074
ENCODING 116
SWIDTH 500 0
DWIDTH 6 0
BBX 9 12 -1 -2
BITMAP 
0000
0000
0000
0400
0400
1F00
0800
0800
0800
0400
0000
0000
ENDCHAR
STARTCHAR U+0075
ENCODING 117
SWIDTH 500 0
DWIDTH 6 0
BBX 9 12 -1 -2
BITMAP 
0000
0000
0000
0000
0000
1100
2200
2200
2E00
1400
0000
0000
ENDCHAR
STARTCHAR U+0076
ENCODING 118
SWIDTH 500 0
DWIDTH 6 0
BBX 9 12 -1 -2
BITMAP 
0000
0000
0000
0000
0000
1100
2200
2200
1400
1800
0000
0000
ENDCHAR
STARTCHAR U+0077
ENCODING 119
SWIDTH 500 0
DWIDTH 6 0
BBX 9 12 -1 -2
BITMAP 
0000
0000
0000
0000
0000
1100
2200
2A00
3C00
2800
0000
0000
ENDCHAR
STARTCHAR U+0078
ENCODING 120
SWIDTH 500 0
DWIDTH 6 0
BBX 9 12 -1 -2
BITMAP 
0000
0000
0000
0000
0000
1300
1400
0800
3400
4400
0000
0000
ENDCHAR
STARTCHAR U+0079
ENCODING 121
SWIDTH 500 0
DWIDTH 6 0
BBX 9 12 -1 -2
BITMAP 
0000
0000
0000
0000
0000
1100
2200
2200
1400
1800
2000
4000
ENDCHAR
STARTCHAR U+007A
ENCODING 122
SWIDTH 500 0
DWIDTH 6 0
BBX 9 12 -1 -2
BITMAP 
0000
0000
0000
0000
0000
1F00
0400
0800
3000
5C00
0000
0000
ENDCHAR
STARTCHAR U+007B
ENCODING 123
SWIDTH 500 0
DWIDTH 6 0
BBX 9 12 -1 -2
BITMAP 
0000
0000
0100
0200
0400
0800
1000
0800
0800
0800
0800
0000
ENDCHAR
STARTCHAR U+007C
ENCODING 124
SWIDTH 500 0
DWIDTH 6 0
BBX 9 12 -1 -2
BITMAP 
0000
0000
0200
0400
0400
0400
0800
0800
0800
1000
1000
0000
ENDCHAR
STARTCHAR U+007D
ENCODING 125
SWIDTH 500 0
DWIDTH 6 0
BBX 9 12 -1 -2
BITMAP 
0000
0000
0400
0400
0400
0400
0400
0800
0800
1000
2000
0000
ENDCHAR
STARTCHAR U+007E
ENCODING 126
SWIDTH 500 0
DWIDTH 6 0
BBX 9 12 -1 -2
BITMAP 
0000
0000
0000
0000
0000
0900
1A00
2400
0000
0000
0000
0000
ENDCHAR
STARTCHAR U+00A0
ENCODING 160
SWIDTH 500 0
DWIDTH 6 0
BBX 9 12 -1 -2
BITMAP 
0000
0000
0000
0000
0000
0000
0000
0000
0000
0000
0000
0000
ENDCHAR
STARTCHAR U+00A1
ENCODING 161
SWIDTH 500 0
DWIDTH 6 0
BBX 9 12 -1 -2
BITMAP 
0000
0000
0000
0400
0000
0400
0800
0800
0800
1000
0000
0000
ENDCHAR
STARTCHAR U+00A2
ENCODING 162
SWIDTH 500 0
DWIDTH 6 0
BBX 9 12 -1 -2
BITMAP 
0000
0000
0000
0000
0400
0E00
1A00
2800
2E00
3800
1000
0000
ENDCHAR
STARTCHAR U+00A3
ENCODING 163
SWIDTH 500 0
DWIDTH 6 0
BBX 9 12 -1 -2
BITMAP 
0000
0000
0000
0600
0900
0800
3800
1000
3600
4800
0000
0000
ENDCHAR
STARTCHAR U+00A4
ENCODING 164
SWIDTH 500 0
DWIDTH 6 0
BBX 9 12 -1 -2
BITMAP 
0000
0000
0000
0000
0000
1D00
1400
2200
3400
5C00
0000
0000
ENDCHAR
STARTCHAR U+00A5
ENCODING 165
SWIDTH 500 0
DWIDTH 6 0
BBX 9 12 -1 -2
BITMAP 
0000
0000
0000
1100
0A00
1F00
0800
3E00
0800
1000
0000
0000
ENDCHAR
STARTCHAR U+00A6
ENCODING 166
SWIDTH 500 0
DWIDTH 6 0
BBX 9 12 -1 -2
BITMAP 
0000
0000
0000
0400
0400
0400
0000
0800
0800
1000
0000
0000
ENDCHAR
STARTCHAR U+00A7
ENCODING 167
SWIDTH 500 0
DWIDTH 6 0
BBX 9 12 -1 -2
BITMAP 
0000
0600
0900
0800
0C00
1400
1400
0800
0400
4800
3000
0000
ENDCHAR
STARTCHAR U+00A8
ENCODING 168
SWIDTH 500 0
DWIDTH 6 0
BBX 9 12 -1 -2
BITMAP 
0000
0000
0500
0000
0000
0000
0000
0000
0000
0000
0000
0000
ENDCHAR
STARTCHAR U+00A9
ENCODING 169
SWIDTH 500 0
DWIDTH 6 0
BBX 9 12 -1 -2
BITMAP 
0000
0000
0000
1E00
2100
2D00
5200
4A00
4400
3800
0000
0000
ENDCHAR
STARTCHAR U+00AA
ENCODING 170
SWIDTH 500 0
DWIDTH 6 0
BBX 9 12 -1 -2
BITMAP 
0000
0300
0500
0600
0000
0E00
0000
0000
0000
0000
0000
0000
ENDCHAR
STARTCHAR U+00AB
ENCODING 171
SWIDTH 500 0
DWIDTH 6 0
BBX 9 12 -1 -2
BITMAP 
0000
0000
0000
0000
0000
0D00
1400
2800
1400
1C00
0000
0000
ENDCHAR
STARTCHAR U+00AC
ENCODING 172
SWIDTH 500 0
DWIDTH 6 0
BBX 9 12 -1 -2
BITMAP 
0000
0000
0000
0000
0000
0000
3E00
0200
0200
0000
0000
0000
ENDCHAR
STARTCHAR U+00AD
ENCODING 173
SWIDTH 500 0
DWIDTH 6 0
BBX 9 12 -1 -2
BITMAP 
0000
0000
0000
0000
0000
0000
1C00
0000
0000
0000
0000
0000
ENDCHAR
STARTCHAR U+00AE
ENCODING 174
SWIDTH 500 0
DWIDTH 6 0
BBX 9 12 -1 -2
BITMAP 
0000
0000
0000
1E00
2100
2D00
5200
5200
4400
3800
0000
0000
ENDCHAR
STARTCHAR U+00AF
ENCODING 175
SWIDTH 500 0
DWIDTH 6 0
BBX 9 12 -1 -2
BITMAP 
0000
0000
0F80
0000
0000
0000
0000
0000
0000
0000
0000
0000
ENDCHAR
STARTCHAR U+00B0
ENCODING 176
SWIDTH 500 0
DWIDTH 6 0
BBX 9 12 -1 -2
BITMAP 
0000
0200
0500
0500
0200
0000
0000
0000
0000
0000
0000
0000
ENDCHAR
STARTCHAR U+00B1
ENCODING 177
SWIDTH 500 0
DWIDTH 6 0
BBX 9 12 -1 -2
BITMAP 
0000
0000
0000
0400
0400
1F00
0800
0800
0000
7C00
0000
0000
ENDCHAR
STARTCHAR U+00B2
ENCODING 178
SWIDTH 500 0
DWIDTH 6 0
BBX 9 12 -1 -2
BITMAP 
0200
0500
0200
0400
0E00
0000
0000
0000
0000
0000
0000
0000
ENDCHAR
STARTCHAR U+00B3
ENCODING 179
SWIDTH 500 0
DWIDTH 6 0
BBX 9 12 -1 -2
BITMAP 
0600
0100
0200
0200
0C00
0000
0000
0000
0000
0000
0000
0000
ENDCHAR
STARTCHAR U+00B4
ENCODING 180
SWIDTH 500 0
DWIDTH 6 0
BBX 9 12 -1 -2
BITMAP 
0000
0000
0300
0400
0800
0000
0000
0000
0000
0000
0000
0000
ENDCHAR
STARTCHAR U+00B5
ENCODING 181
SWIDTH 500 0
DWIDTH 6 0
BBX 9 12 -1 -2
BITMAP 
0000
0000
0000
0000
0000
1100
2200
2200
2E00
7400
4000
4000
ENDCHAR
STARTCHAR U+00B6
ENCODING 182
SWIDTH 500 0
DWIDTH 6 0
BBX 9 12 -1 -2
BITMAP 
0000
0000
0780
1D00
1D00
1D00
1A00
0A00
0A00
1400
0000
0000
ENDCHAR
STARTCHAR U+00B7
ENCODING 183
SWIDTH 500 0
DWIDTH 6 0
BBX 9 12 -1 -2
BITMAP 
0000
0000
0000
0000
0000
0600
0C00
0000
0000
0000
0000
0000
ENDCHAR
STARTCHAR U+00B8
ENCODING 184
SWIDTH 500 0
DWIDTH 6 0
BBX 9 12 -1 -2
BITMAP 
0000
0000
0000
0000
0000
0000
0000
0000
0000
0000
0800
3000
ENDCHAR
STARTCHAR U+00B9
ENCODING 185
SWIDTH 500 0
DWIDTH 6 0
BBX 9 12 -1 -2
BITMAP 
0200
0600
0200
0400
0E00
0000
0000
0000
0000
0000
0000
0000
ENDCHAR
STARTCHAR U+00BA
ENCODING 186
SWIDTH 500 0
DWIDTH 6 0
BBX 9 12 -1 -2
BITMAP 
0200
0500
0200
0000
0E00
0000
0000
0000
0000
0000
0000
0000
ENDCHAR
STARTCHAR U+00BB
ENCODING 187
SWIDTH 500 0
DWIDTH 6 0
BBX 9 12 -1 -2
BITMAP 
0000
0000
0000
0000
0000
1C00
1400
0A00
3400
5800
0000
0000
ENDCHAR
STARTCHAR U+00BC
ENCODING 188
SWIDTH 500 0
DWIDTH 6 0
BBX 9 12 -1 -2
BITMAP 
0400
0C00
0400
0800
0A00
0600
0C00
1E00
0400
0800
0000
0000
ENDCHAR
STARTCHAR U+00BD
ENCODING 189
SWIDTH 500 0
DWIDTH 6 0
BBX 9 12 -1 -2
BITMAP 
0400
0C00
0400
0800
0A00
0600
0200
0400
0800
1C00
0000
0000
ENDCHAR
STARTCHAR U+00BE
ENCODING 190
SWIDTH 500 0
DWIDTH 6 0
BBX 9 12 -1 -2
BITMAP 
0C00
0200
0400
0400
1A00
0600
0C00
1E00
0400
0800
0000
0000
ENDCHAR
STARTCHAR U+00BF
ENCODING 191
SWIDTH 500 0
DWIDTH 6 0
BBX 9 12 -1 -2
BITMAP 
0000
0000
0000
0400
0000
0400
0800
1000
2600
1800
0000
0000
ENDCHAR
STARTCHAR U+00C0
ENCODING 192
SWIDTH 500 0
DWIDTH 6 0
BBX 9 12 -1 -2
BITMAP 
0400
0200
0000
0E00
1100
1100
3E00
2200
2200
4400
0000
0000
ENDCHAR
STARTCHAR U+00C1
ENCODING 193
SWIDTH 500 0
DWIDTH 6 0
BBX 9 12 -1 -2
BITMAP 
0100
0200
0000
0E00
1100
1100
3E00
2200
2200
4400
0000
0000
ENDCHAR
STARTCHAR U+00C2
ENCODING 194
SWIDTH 500 0
DWIDTH 6 0
BBX 9 12 -1 -2
BITMAP 
0200
0500
0000
0E00
1100
1100
3E00
2200
2200
4400
0000
0000
ENDCHAR
STARTCHAR U+00C3
ENCODING 195
SWIDTH 500 0
DWIDTH 6 0
BBX 9 12 -1 -2
BITMAP 
0680
0B00
0000
0E00
1100
1100
3E00
2200
2200
4400
0000
0000
ENDCHAR
STARTCHAR U+00C4
ENCODING 196
SWIDTH 500 0
DWIDTH 6 0
BBX 9 12 -1 -2
BITMAP 
0000
0500
0000
0E00
1100
1100
3E00
2200
2200
4400
0000
0000
ENDCHAR
STARTCHAR U+00C5
ENCODING 197
SWIDTH 500 0
DWIDTH 6 0
BBX 9 12 -1 -2
BITMAP 
0200
0500
0200
0E00
1100
1100
3E00
2200
2200
4400
0000
0000
ENDCHAR
STARTCHAR U+00C6
ENCODING 198
SWIDTH 500 0
DWIDTH 6 0
BBX 9 12 -1 -2
BITMAP 
0000
0000
0000
0F00
1400
1400
3C00
2800
2800
5C00
0000
0000
ENDCHAR
STARTCHAR U+00C7
ENCODING 199
SWIDTH 500 0
DWIDTH 6 0
BBX 9 12 -1 -2
BITMAP 
0000
0000
0000
0E00
1100
1000
2000
2000
2600
1800
0800
3000
ENDCHAR
STARTCHAR U+00C8
ENCODING 200
SWIDTH 500 0
DWIDTH 6 0
BBX 9 12 -1 -2
BITMAP 
0400
0200
0000
1F00
1000
1000
3C00
2000
2000
7C00
0000
0000
ENDCHAR
STARTCHAR U+00C9
ENCODING 201
SWIDTH 500 0
DWIDTH 6 0
BBX 9 12 -1 -2
BITMAP 
0100
0200
0000
1F00
1000
1000
3C00
2000
2000
7C00
0000
0000
ENDCHAR
STARTCHAR U+00CA
ENCODING 202
SWIDTH 500 0
DWIDTH 6 0
BBX 9 12 -1 -2
BITMAP 
0200
0500
0000
1F00
1000
1000
3C00
2000
2000
7C00
0000
0000
ENDCHAR
STARTCHAR U+00CB
ENCODING 203
SWIDTH 500 0
DWIDTH 6 0
BBX 9 12 -1 -2
BITMAP 
0000
0500
0000
1F00
1000
1000
3C00
2000
2000
7C00
0000
0000
ENDCHAR
STARTCHAR U+00CC
ENCODING 204
SWIDTH 500 0
DWIDTH 6 0
BBX 9 12 -1 -2
BITMAP 
0400
0200
0000
0E00
0400
0400
0800
0800
0800
3800
0000
0000
ENDCHAR
STARTCHAR U+00CD
ENCODING 205
SWIDTH 500 0
DWIDTH 6 0
BBX 9 12 -1 -2
BITMAP 
0100
0200
0000
0E00
0400
0400
0800
0800
0800
3800
0000
0000
ENDCHAR
STARTCHAR U+00CE
ENCODING 206
SWIDTH 500 0
DWIDTH 6 0
BBX 9 12 -1 -2
BITMAP 
0200
0500
0000
0E00
0400
0400
0800
0800
0800
3800
0000
0000
ENDCHAR
STARTCHAR U+00CF
ENCODING 207
SWIDTH 500 0
DWIDTH 6 0
BBX 9 12 -1 -2
BITMAP 
0000
0500
0000
0E00
0400
0400
0800
0800
0800
3800
0000
0000
ENDCHAR
STARTCHAR U+00D0
ENCODING 208
SWIDTH 500 0
DWIDTH 6 0
BBX 9 12 -1 -2
BITMAP 
0000
0000
0000
0E00
0900
0900
3A00
1200
1400
3800
0000
0000
ENDCHAR
STARTCHAR U+00D1
ENCODING 209
SWIDTH 500 0
DWIDTH 6 0
BBX 9 12 -1 -2
BITMAP 
0680
0B00
0000
1100
1100
1900
2A00
2600
2200
4400
0000
0000
ENDCHAR
STARTCHAR U+00D2
ENCODING 210
SWIDTH 500 0
DWIDTH 6 0
BBX 9 12 -1 -2
BITMAP 
0400
0200
0000
0E00
1100
1100
2200
2200
2400
1800
0000
0000
ENDCHAR
STARTCHAR U+00D3
ENCODING 211
SWIDTH 500 0
DWIDTH 6 0
BBX 9 12 -1 -2
BITMAP 
0100
0200
0000
0E00
1100
1100
2200
2200
2400
1800
0000
0000
ENDCHAR
STARTCHAR U+00D4
ENCODING 212
SWIDTH 500 0
DWIDTH 6 0
BBX 9 12 -1 -2
BITMAP 
0200
0500
0000
0E00
1100
1100
2200
2200
2400
1800
0000
0000
ENDCHAR
STARTCHAR U+00D5
ENCODING 213
SWIDTH 500 0
DWIDTH 6 0
BBX 9 12 -1 -2
BITMAP 
0680
0B00
0000
0E00
1100
1100
2200
2200
2400
1800
0000
0000
ENDCHAR
STARTCHAR U+00D6
ENCODING 214
SWIDTH 500 0
DWIDTH 6 0
BBX 9 12 -1 -2
BITMAP 
0000
0500
0000
0E00
1100
1100
2200
2200
2400
1800
0000
0000
ENDCHAR
STARTCHAR U+00D7
ENCODING 215
SWIDTH 500 0
DWIDTH 6 0
BBX 9 12 -1 -2
BITMAP 
0000
0000
0000
0000
1100
0E00
0800
1400
2200
0000
0000
0000
ENDCHAR
STARTCHAR U+00D8
ENCODING 216
SWIDTH 500 0
DWIDTH 6 0
BBX 9 12 -1 -2
BITMAP 
0000
0000
0180
0E00
1300
1500
2A00
2A00
3400
3800
4000
0000
ENDCHAR
STARTCHAR U+00D9
ENCODING 217
SWIDTH 500 0
DWIDTH 6 0
BBX 9 12 -1 -2
BITMAP 
0400
0200
0000
1100
1100
1100
2200
2200
2400
1800
0000
0000
ENDCHAR
STARTCHAR U+00DA
ENCODING 218
SWIDTH 500 0
DWIDTH 6 0
BBX 9 12 -1 -2
BITMAP 
0100
0200
0000
1100
1100
1100
2200
2200
2400
1800
0000
0000
ENDCHAR
STARTCHAR U+00DB
ENCODING 219
SWIDTH 500 0
DWIDTH 6 0
BBX 9 12 -1 -2
BITMAP 
0200
0500
0000
1100
1100
1100
2200
2200
2400
1800
0000
0000
ENDCHAR
STARTCHAR U+00DC
ENCODING 220
SWIDTH 500 0
DWIDTH 6 0
BBX 9 12 -1 -2
BITMAP 
0000
0500
0000
1100
1100
1100
2200
2200
2400
1800
0000
0000
ENDCHAR
STARTCHAR U+00DD
ENCODING 221
SWIDTH 500 0
DWIDTH 6 0
BBX 9 12 -1 -2
BITMAP 
0100
0200
0000
1100
1100
0A00
0C00
0800
0800
1000
0000
0000
ENDCHAR
STARTCHAR U+00DE
ENCODING 222
SWIDTH 500 0
DWIDTH 6 0
BBX 9 12 -1 -2
BITMAP 
0000
0000
0000
0800
0C00
0A00
1200
1200
1C00
2000
0000
0000
ENDCHAR
STARTCHAR U+00DF
ENCODING 223
SWIDTH 500 0
DWIDTH 6 0
BBX 9 12 -1 -2
BITMAP 
0000
0000
0000
0E00
1100
1600
2800
2400
2600
5800
0000
0000
ENDCHAR
STARTCHAR U+00E0
ENCODING 224
SWIDTH 500 0
DWIDTH 6 0
BBX 9 12 -1 -2
BITMAP 
0000
0000
0400
0400
0000
0C00
0200
1E00
2200
1C00
0000
0000
ENDCHAR
STARTCHAR U+00E1
ENCODING 225
SWIDTH 500 0
DWIDTH 6 0
BBX 9 12 -1 -2
BITMAP 
0000
0000
0300
0400
0000
0C00
0200
1E00
2200
1C00
0000
0000
ENDCHAR
STARTCHAR U+00E2
ENCODING 226
SWIDTH 500 0
DWIDTH 6 0
BBX 9 12 -1 -2
BITMAP 
0000
0000
0600
0A00
0000
0C00
0200
1E00
2200
1C00
0000
0000
ENDCHAR
STARTCHAR U+00E3
ENCODING 227
SWIDTH 500 0
DWIDTH 6 0
BBX 9 12 -1 -2
BITMAP 
0000
0000
0E80
1600
0000
0C00
0200
1E00
2200
1C00
0000
0000
ENDCHAR
STARTCHAR U+00E4
ENCODING 228
SWIDTH 500 0
DWIDTH 6 0
BBX 9 12 -1 -2
BITMAP 
0000
0000
0000
0A00
0000
0C00
0200
1E00
2200
1C00
0000
0000
ENDCHAR
STARTCHAR U+00E5
ENCODING 229
SWIDTH 500 0
DWIDTH 6 0
BBX 9 12 -1 -2
BITMAP 
0000
0000
0600
0A00
0400
0E00
0200
1E00
2200
1C00
0000
0000
ENDCHAR
STARTCHAR U+00E6
ENCODING 230
SWIDTH 500 0
DWIDTH 6 0
BBX 9 12 -1 -2
BITMAP 
0000
0000
0000
0000
0000
0E00
0A00
1C00
2800
3C00
0000
0000
ENDCHAR
STARTCHAR U+00E7
ENCODING 231
SWIDTH 500 0
DWIDTH 6 0
BBX 9 12 -1 -2
BITMAP 
0000
0000
0000
0000
0000
0C00
1200
2000
2600
1800
0800
3000
ENDCHAR
STARTCHAR U+00E8
ENCODING 232
SWIDTH 500 0
DWIDTH 6 0
BBX 9 12 -1 -2
BITMAP 
0000
0000
0400
0400
0000
0C00
1200
3C00
2000
1800
0000
0000
ENDCHAR
STARTCHAR U+00E9
ENCODING 233
SWIDTH 500 0
DWIDTH 6 0
BBX 9 12 -1 -2
BITMAP 
0000
0000
0300
0400
0000
0C00
1200
3C00
2000
1800
0000
0000
ENDCHAR
STARTCHAR U+00EA
ENCODING 234
SWIDTH 500 0
DWIDTH 6 0
BBX 9 12 -1 -2
BITMAP 
0000
0000
0600
0A00
0000
0C00
1200
3C00
2000
1800
0000
0000
ENDCHAR
STARTCHAR U+00EB
ENCODING 235
SWIDTH 500 0
DWIDTH 6 0
BBX 9 12 -1 -2
BITMAP 
0000
0000
0000
0A00
0000
0C00
1200
3C00
2000
1800
0000
0000
ENDCHAR
STARTCHAR U+00EC
ENCODING 236
SWIDTH 500 0
DWIDTH 6 0
BBX 9 12 -1 -2
BITMAP 
0000
0000
0400
0400
0000
0C00
0800
0800
0800
3800
0000
0000
ENDCHAR
STARTCHAR U+00ED
ENCODING 237
SWIDTH 500 0
DWIDTH 6 0
BBX 9 12 -1 -2
BITMAP 
0000
0000
0300
0400
0000
0C00
0800
0800
0800
3800
0000
0000
ENDCHAR
STARTCHAR U+00EE
ENCODING 238
SWIDTH 500 0
DWIDTH 6 0
BBX 9 12 -1 -2
BITMAP 
0000
0000
0600
0A00
0000
0C00
0800
0800
0800
3800
0000
0000
ENDCHAR
STARTCHAR U+00EF
ENCODING 239
SWIDTH 500 0
DWIDTH 6 0
BBX 9 12 -1 -2
BITMAP 
0000
0000
0000
0A00
0000
0C00
0800
0800
0800
3800
0000
0000
ENDCHAR
STARTCHAR U+00F0
ENCODING 240
SWIDTH 500 0
DWIDTH 6 0
BBX 9 12 -1 -2
BITMAP 
0000
0500
0600
0A00
0100
0F00
1200
2200
2400
1800
0000
0000
ENDCHAR
STARTCHAR U+00F1
ENCODING 241
SWIDTH 500 0
DWIDTH 6 0
BBX 9 12 -1 -2
BITMAP 
0000
0000
0E80
1600
0000
1C00
3200
2200
2200
4400
0000
0000
ENDCHAR
STARTCHAR U+00F2
ENCODING 242
SWIDTH 500 0
DWIDTH 6 0
BBX 9 12 -1 -2
BITMAP 
0000
0000
0400
0400
0000
0C00
1200
2200
2400
1800
0000
0000
ENDCHAR
STARTCHAR U+00F3
ENCODING 243
SWIDTH 500 0
DWIDTH 6 0
BBX 9 12 -1 -2
BITMAP 
0000
0000
0300
0400
0000
0C00
1200
2200
2400
1800
0000
0000
ENDCHAR
STARTCHAR U+00F4
ENCODING 244
SWIDTH 500 0
DWIDTH 6 0
BBX 9 12 -1 -2
BITMAP 
0000
0000
0600
0A00
0000
0C00
1200
2200
2400
1800
0000
0000
ENDCHAR
STARTCHAR U+00F5
ENCODING 245
SWIDTH 500 0
DWIDTH 6 0
BBX 9 12 -1 -2
BITMAP 
0000
0000
0E80
1600
0000
0C00
1200
2200
2400
1800
0000
0000
ENDCHAR
STARTCHAR U+00F6
ENCODING 246
SWIDTH 500 0
DWIDTH 6 0
BBX 9 12 -1 -2
BITMAP 
0000
0000
0000
0A00
0000
0C00
1200
2200
2400
1800
0000
0000
ENDCHAR
STARTCHAR U+00F7
ENCODING 247
SWIDTH 500 0
DWIDTH 6 0
BBX 9 12 -1 -2
BITMAP 
0000
0000
0000
0000
0400
0000
3E00
0000
0800
0000
0000
0000
ENDCHAR
STARTCHAR U+00F8
ENCODING 248
SWIDTH 500 0
DWIDTH 6 0
BBX 9 12 -1 -2
BITMAP 
0000
0000
0000
0000
0000
0F00
1600
2A00
3400
7800
0000
0000
ENDCHAR
STARTCHAR U+00F9
ENCODING 249
SWIDTH 500 0
DWIDTH 6 0
BBX 9 12 -1 -2
BITMAP 
0000
0000
0400
0400
0000
1100
2200
2200
2400
1800
0000
0000
ENDCHAR
STARTCHAR U+00FA
ENCODING 250
SWIDTH 500 0
DWIDTH 6 0
BBX 9 12 -1 -2
BITMAP 
0000
0000
0300
0400
0000
1100
2200
2200
2400
1800
0000
0000
ENDCHAR
STARTCHAR U+00FB
ENCODING 251
SWIDTH 500 0
DWIDTH 6 0
BBX 9 12 -1 -2
BITMAP 
0000
0000
0600
0A00
0000
1100
2200
2200
2400
1800
0000
0000
ENDCHAR
STARTCHAR U+00FC
ENCODING 252
SWIDTH 500 0
DWIDTH 6 0
BBX 9 12 -1 -2
BITMAP 
0000
0000
0000
0A00
0000
1100
2200
2200
2400
1800
0000
0000
ENDCHAR
STARTCHAR U+00FD
ENCODING 253
SWIDTH 500 0
DWIDTH 6 0
BBX 9 12 -1 -2
BITMAP 
0000
0000
0300
0400
0000
1100
2200
2200
1400
1800
2000
4000
ENDCHAR
STARTCHAR U+00FE
ENCODING 254
SWIDTH 500 0
DWIDTH 6 0
BBX 9 12 -1 -2
BITMAP 
0000
0000
0000
1000
1000
1C00
2200
2200
2400
7800
4000
4000
ENDCHAR
STARTCHAR U+00FF
ENCODING 255
SWIDTH 500 0
DWIDTH 6 0
BBX 9 12 -1 -2
BITMAP 
0000
0000
0000
0A00
0000
1100
2200
2200
1400
1800
2000
4000
ENDCHAR
STARTCHAR U+0100
ENCODING 256
SWIDTH 500 0
DWIDTH 6 0
BBX 9 12 -1 -2
BITMAP 
0000
0700
0000
0E00
1100
1100
3E00
2200
2200
4400
0000
0000
ENDCHAR
STARTCHAR U+0101
ENCODING 257
SWIDTH 500 0
DWIDTH 6 0
BBX 9 12 -1 -2
BITMAP 
0000
0000
0000
0E00
0000
0C00
0200
1E00
2200
1C00
0000
0000
ENDCHAR
STARTCHAR U+0102
ENCODING 258
SWIDTH 500 0
DWIDTH 6 0
BBX 9 12 -1 -2
BITMAP 
0880
0700
0000
0E00
1100
1100
3E00
2200
2200
4400
0000
0000
ENDCHAR
STARTCHAR U+0103
ENCODING 259
SWIDTH 500 0
DWIDTH 6 0
BBX 9 12 -1 -2
BITMAP 
0000
0000
0980
0600
0000
0C00
0200
1E00
2200
1C00
0000
0000
ENDCHAR
STARTCHAR U+0104
ENCODING 260
SWIDTH 500 0
DWIDTH 6 0
BBX 9 12 -1 -2
BITMAP 
0000
0000
0000
0E00
1100
1100
3E00
2200
2200
4400
0800
0400
ENDCHAR
STARTCHAR U+0105
ENCODING 261
SWIDTH 500 0
DWIDTH 6 0
BBX 9 12 -1 -2
BITMAP 
0000
0000
0000
0000
0000
0C00
0200
1E00
2200
1C00
1000
1800
ENDCHAR
STARTCHAR U+0106
ENCODING 262
SWIDTH 500 0
DWIDTH 6 0
BBX 9 12 -1 -2
BITMAP 
0100
0200
0000
0E00
1100
1000
2000
2000
2600
1800
0000
0000
ENDCHAR
STARTCHAR U+0107
ENCODING 263
SWIDTH 500 0
DWIDTH 6 0
BBX 9 12 -1 -2
BITMAP 
0000
0000
0300
0400
0000
0C00
1200
2000
2600
1800
0000
0000
ENDCHAR
STARTCHAR U+0108
ENCODING 264
SWIDTH 500 0
DWIDTH 6 0
BBX 9 12 -1 -2
BITMAP 
0200
0500
0000
0E00
1100
1000
2000
2000
2600
1800
0000
0000
ENDCHAR
STARTCHAR U+0109
ENCODING 265
SWIDTH 500 0
DWIDTH 6 0
BBX 9 12 -1 -2
BITMAP 
0000
0000
0600
0A00
0000
0C00
1200
2000
2600
1800
0000
0000
ENDCHAR
STARTCHAR U+010A
ENCODING 266
SWIDTH 500 0
DWIDTH 6 0
BBX 9 12 -1 -2
BITMAP 
0000
0200
0000
0E00
1100
1000
2000
2000
2600
1800
0000
0000
ENDCHAR
STARTCHAR U+010B
ENCODING 267
SWIDTH 500 0
DWIDTH 6 0
BBX 9 12 -1 -2
BITMAP 
0000
0000
0000
0400
0000
0C00
1200
2000
2600
1800
0000
0000
ENDCHAR
STARTCHAR U+010C
ENCODING 268
SWIDTH 500 0
DWIDTH 6 0
BBX 9 12 -1 -2
BITMAP 
0500
0200
0000
0E00
1100
1000
2000
2000
2600
1800
0000
0000
ENDCHAR
STARTCHAR U+010D
ENCODING 269
SWIDTH 500 0
DWIDTH 6 0
BBX 9 12 -1 -2
BITMAP 
0000
0000
0500
0600
0000
0C00
1200
2000
2600
1800
0000
0000
ENDCHAR
STARTCHAR U+010E
ENCODING 270
SWIDTH 500 0
DWIDTH 6 0
BBX 9 12 -1 -2
BITMAP 
0500
0200
0000
1E00
0900
0900
1200
1200
1400
7800
0000
0000
ENDCHAR
STARTCHAR U+010F
ENCODING 271
SWIDTH 500 0
DWIDTH 6 0
BBX 9 12 -1 -2
BITMAP 
0280
0100
0000
0200
0200
1E00
2400
4400
4400
3800
0000
0000
ENDCHAR
STARTCHAR U+0110
ENCODING 272
SWIDTH 500 0
DWIDTH 6 0
BBX 9 12 -1 -2
BITMAP 
0000
0000
0000
1E00
0900
0900
3A00
1200
1400
7800
0000
0000
ENDCHAR
STARTCHAR U+0111
ENCODING 273
SWIDTH 500 0
DWIDTH 6 0
BBX 9 12 -1 -2
BITMAP 
0000
0000
0100
0700
0200
1E00
2400
4400
4400
3800
0000
0000
ENDCHAR
STARTCHAR U+0112
ENCODING 274
SWIDTH 500 0
DWIDTH 6 0
BBX 9 12 -1 -2
BITMAP 
0000
0700
0000
1F00
1000
1000
3C00
2000
2000
7C00
0000
0000
ENDCHAR
STARTCHAR U+0113
ENCODING 275
SWIDTH 500 0
DWIDTH 6 0
BBX 9 12 -1 -2
BITMAP 
0000
0000
0000
0E00
0000
0C00
1200
3C00
2000
1800
0000
0000
ENDCHAR
STARTCHAR U+0114
ENCODING 276
SWIDTH 500 0
DWIDTH 6 0
BBX 9 12 -1 -2
BITMAP 
0880
0700
0000
1F00
1000
1000
3C00
2000
2000
7C00
0000
0000
ENDCHAR
STARTCHAR U+0115
ENCODING 277
SWIDTH 500 0
DWIDTH 6 0
BBX 9 12 -1 -2
BITMAP 
0000
0000
0980
0600
0000
0C00
1200
3C00
2000
1800
0000
0000
ENDCHAR
STARTCHAR U+0116
ENCODING 278
SWIDTH 500 0
DWIDTH 6 0
BBX 9 12 -1 -2
BITMAP 
0000
0200
0000
1F00
1000
1000
3C00
2000
2000
7C00
0000
0000
ENDCHAR
STARTCHAR U+0117
ENCODING 279
SWIDTH 500 0
DWIDTH 6 0
BBX 9 12 -1 -2
BITMAP 
0000
0000
0000
0400
0000
0C00
1200
3C00
2000
1800
0000
0000
ENDCHAR
STARTCHAR U+0118
ENCODING 280
SWIDTH 500 0
DWIDTH 6 0
BBX 9 12 -1 -2
BITMAP 
0000
0000
0000
1F00
1000
1000
3C00
2000
2000
7C00
1000
1800
ENDCHAR
STARTCHAR U+0119
ENCODING 281
SWIDTH 500 0
DWIDTH 6 0
BBX 9 12 -1 -2
BITMAP 
0000
0000
0000
0000
0000
0C00
1200
3C00
2000
1800
1000
1800
ENDCHAR
STARTCHAR U+011A
ENCODING 282
SWIDTH 500 0
DWIDTH 6 0
BBX 9 12 -1 -2
BITMAP 
0500
0200
0000
1F00
1000
1000
3C00
2000
2000
7C00
0000
0000
ENDCHAR
STARTCHAR U+011B
ENCODING 283
SWIDTH 500 0
DWIDTH 6 0
BBX 9 12 -1 -2
BITMAP 
0000
0000
0500
0600
0000
0C00
1200
3C00
2000
1800
0000
0000
ENDCHAR
STARTCHAR U+011C
ENCODING 284
SWIDTH 500 0
DWIDTH 6 0
BBX 9 12 -1 -2
BITMAP 
0200
0500
0000
0E00
1100
1000
2000
2600
2400
1800
0000
0000
ENDCHAR
STARTCHAR U+011D
ENCODING 285
SWIDTH 500 0
DWIDTH 6 0
BBX 9 12 -1 -2
BITMAP 
0000
0000
0600
0A00
0000
0C00
1200
2200
2200
1C00
0400
3800
ENDCHAR
STARTCHAR U+011E
ENCODING 286
SWIDTH 500 0
DWIDTH 6 0
BBX 9 12 -1 -2
BITMAP 
0880
0700
0000
0E00
1100
1000
2000
2600
2400
1800
0000
0000
ENDCHAR
STARTCHAR U+011F
ENCODING 287
SWIDTH 500 0
DWIDTH 6 0
BBX 9 12 -1 -2
BITMAP 
0000
0000
0980
0600
0000
0C00
1200
2200
2200
1C00
0400
3800
ENDCHAR
STARTCHAR U+0120
ENCODING 288
SWIDTH 500 0
DWIDTH 6 0
BBX 9 12 -1 -2
BITMAP 
0000
0200
0000
0E00
1100
1000
2000
2600
2400
1800
0000
0000
ENDCHAR
STARTCHAR U+0121
ENCODING 289
SWIDTH 500 0
DWIDTH 6 0
BBX 9 12 -1 -2
BITMAP 
0000
0000
0000
0400
0000
0C00
1200
2200
2200
1C00
0400
3800
ENDCHAR
STARTCHAR U+0122
ENCODING 290
SWIDTH 500 0
DWIDTH 6 0
BBX 9 12 -1 -2
BITMAP 
0000
0000
0000
0E00
1100
1000
2000
2600
2400
1800
0800
3000
ENDCHAR
STARTCHAR U+0123
ENCODING 291
SWIDTH 500 0
DWIDTH 6 0
BBX 9 12 -1 -2
BITMAP 
0000
0200
0400
0C00
0000
0C00
1200
2200
2200
1C00
0400
3800
ENDCHAR
STARTCHAR U+0124
ENCODING 292
SWIDTH 500 0
DWIDTH 6 0
BBX 9 12 -1 -2
BITMAP 
0200
0500
0000
1100
1100
1100
3E00
2200
2200
4400
0000
0000
ENDCHAR
STARTCHAR U+0125
ENCODING 293
SWIDTH 500 0
DWIDTH 6 0
BBX 9 12 -1 -2
BITMAP 
0200
0500
0000
1000
1000
1C00
2200
2200
2200
4400
0000
0000
ENDCHAR
STARTCHAR U+0126
ENCODING 294
SWIDTH 500 0
DWIDTH 6 0
BBX 9 12 -1 -2
BITMAP 
0000
0000
0000
1200
3F00
1200
3C00
2400
2400
4800
0000
0000
ENDCHAR
STARTCHAR U+0127
ENCODING 295
SWIDTH 500 0
DWIDTH 6 0
BBX 9 12 -1 -2
BITMAP 
0000
0000
0000
0800
1E00
0800
1C00
1200
1200
2400
0000
0000
ENDCHAR
STARTCHAR U+0128
ENCODING 296
SWIDTH 500 0
DWIDTH 6 0
BBX 9 12 -1 -2
BITMAP 
0280
0500
0000
0E00
0400
0400
0800
0800
0800
3800
0000
0000
ENDCHAR
STARTCHAR U+0129
ENCODING 297
SWIDTH 500 0
DWIDTH 6 0
BBX 9 12 -1 -2
BITMAP 
0000
0000
0D00
1600
0000
0C00
0800
0800
0800
3800
0000
0000
ENDCHAR
STARTCHAR U+012A
ENCODING 298
SWIDTH 500 0
DWIDTH 6 0
BBX 9 12 -1 -2
BITMAP 
0000
0700
0000
0E00
0400
0400
0800
0800
0800
3800
0000
0000
ENDCHAR
STARTCHAR U+012B
ENCODING 299
SWIDTH 500 0
DWIDTH 6 0
BBX 9 12 -1 -2
BITMAP 
0000
0000
0000
0E00
0000
0C00
0800
0800
0800
3800
0000
0000
ENDCHAR
STARTCHAR U+012C
ENCODING 300
SWIDTH 500 0
DWIDTH 6 0
BBX 9 12 -1 -2
BITMAP 
0880
0700
0000
0E00
0400
0400
0800
0800
0800
3800
0000
0000
ENDCHAR
STARTCHAR U+012D
ENCODING 301
SWIDTH 500 0
DWIDTH 6 0
BBX 9 12 -1 -2
BITMAP 
0000
0000
0980
0600
0000
0C00
0800
0800
0800
3800
0000
0000
ENDCHAR
STARTCHAR U+012E
ENCODING 302
SWIDTH 500 0
DWIDTH 6 0
BBX 9 12 -1 -2
BITMAP 
0000
0000
0000
0E00
0400
0400
0800
0800
0800
3800
1000
1800
ENDCHAR
STARTCHAR U+012F
ENCODING 303
SWIDTH 500 0
DWIDTH 6 0
BBX 9 12 -1 -2
BITMAP 
0000
0000
0000
0400
0000
0C00
0800
0800
0800
3800
1000
1800
ENDCHAR
STARTCHAR U+0130
ENCODING 304
SWIDTH 500 0
DWIDTH 6 0
BBX 9 12 -1 -2
BITMAP 
0000
0200
0000
0E00
0400
0400
0800
0800
0800
3800
0000
0000
ENDCHAR
STARTCHAR U+0131
ENCODING 305
SWIDTH 500 0
DWIDTH 6 0
BBX 9 12 -1 -2
BITMAP 
0000
0000
0000
0000
0000
0C00
0800
0800
0800
3800
0000
0000
ENDCHAR
STARTCHAR U+0132
ENCODING 306
SWIDTH 500 0
DWIDTH 6 0
BBX 9 12 -1 -2
BITMAP 
0000
0000
0000
1300
1100
1100
2200
2200
2C00
4800
0000
0000
ENDCHAR
STARTCHAR U+0133
ENCODING 307
SWIDTH 500 0
DWIDTH 6 0
BBX 9 12 -1 -2
BITMAP 
0000
0000
0000
1100
0000
1300
2200
2200
2200
4400
4400
1800
ENDCHAR
STARTCHAR U+0134
ENCODING 308
SWIDTH 500 0
DWIDTH 6 0
BBX 9 12 -1 -2
BITMAP 
0100
0280
0000
0700
0200
0200
0400
0400
2800
3000
0000
0000
ENDCHAR
STARTCHAR U+0135
ENCODING 309
SWIDTH 500 0
DWIDTH 6 0
BBX 9 12 -1 -2
BITMAP 
0000
0000
0300
0500
0000
0600
0400
0400
0400
0800
4800
3000
ENDCHAR
STARTCHAR U+0136
ENCODING 310
SWIDTH 500 0
DWIDTH 6 0
BBX 9 12 -1 -2
BITMAP 
0000
0000
0000
1100
1200
1C00
3000
2800
2400
4400
0800
3000
ENDCHAR
STARTCHAR U+0137
ENCODING 311
SWIDTH 500 0
DWIDTH 6 0
BBX 9 12 -1 -2
BITMAP 
0000
0000
0000
1000
1000
1300
2400
3800
2400
4400
0800
3000
ENDCHAR
STARTCHAR U+0138
ENCODING 312
SWIDTH 500 0
DWIDTH 6 0
BBX 9 12 -1 -2
BITMAP 
0000
0000
0000
0000
0000
0B00
1400
1800
1400
2400
0000
0000
ENDCHAR
STARTCHAR U+0139
ENCODING 313
SWIDTH 500 0
DWIDTH 6 0
BBX 9 12 -1 -2
BITMAP 
0100
0200
0000
1000
1000
1000
2000
2000
2000
7C00
0000
0000
ENDCHAR
STARTCHAR U+013A
ENCODING 314
SWIDTH 500 0
DWIDTH 6 0
BBX 9 12 -1 -2
BITMAP 
0100
0200
0000
0C00
0400
0400
0800
0800
0800
3800
0000
0000
ENDCHAR
STARTCHAR U+013B
ENCODING 315
SWIDTH 500 0
DWIDTH 6 0
BBX 9 12 -1 -2
BITMAP 
0000
0000
0000
1000
1000
1000
2000
2000
2000
7C00
0800
3000
ENDCHAR
STARTCHAR U+013C
ENCODING 316
SWIDTH 500 0
DWIDTH 6 0
BBX 9 12 -1 -2
BITMAP 
0000
0000
0000
0C00
0400
0400
0800
0800
0800
3800
0800
3000
ENDCHAR
STARTCHAR U+013D
ENCODING 317
SWIDTH 500 0
DWIDTH 6 0
BBX 9 12 -1 -2
BITMAP 
0500
0200
0000
1000
1000
1000
2000
2000
2000
7C00
0000
0000
ENDCHAR
STARTCHAR U+013E
ENCODING 318
SWIDTH 500 0
DWIDTH 6 0
BBX 9 12 -1 -2
BITMAP 
0500
0200
0000
0C00
0400
0400
0800
0800
0800
3800
0000
0000
ENDCHAR
STARTCHAR U+013F
ENCODING 319
SWIDTH 500 0
DWIDTH 6 0
BBX 9 12 -1 -2
BITMAP 
0000
0000
0000
1000
1000
1000
2400
2000
2000
7C00
0000
0000
ENDCHAR
STARTCHAR U+0140
ENCODING 320
SWIDTH 500 0
DWIDTH 6 0
BBX 9 12 -1 -2
BITMAP 
0000
0000
0000
0C00
0400
0400
0A00
0800
0800
3800
0000
0000
ENDCHAR
STARTCHAR U+0141
ENCODING 321
SWIDTH 500 0
DWIDTH 6 0
BBX 9 12 -1 -2
BITMAP 
0000
0000
0000
0800
0800
0C00
3000
1000
1000
3C00
0000
0000
ENDCHAR
STARTCHAR U+0142
ENCODING 322
SWIDTH 500 0
DWIDTH 6 0
BBX 9 12 -1 -2
BITMAP 
0000
0000
0000
0C00
0400
0600
1800
0800
0800
3800
0000
0000
ENDCHAR
STARTCHAR U+0143
ENCODING 323
SWIDTH 500 0
DWIDTH 6 0
BBX 9 12 -1 -2
BITMAP 
0100
0200
0000
1100
1100
1900
2A00
2600
2200
4400
0000
0000
ENDCHAR
STARTCHAR U+0144
ENCODING 324
SWIDTH 500 0
DWIDTH 6 0
BBX 9 12 -1 -2
BITMAP 
0000
0000
0300
0400
0000
1C00
3200
2200
2200
4400
0000
0000
ENDCHAR
STARTCHAR U+0145
ENCODING 325
SWIDTH 500 0
DWIDTH 6 0
BBX 9 12 -1 -2
BITMAP 
0000
0000
0000
1100
1100
1900
2A00
2600
2200
4400
1000
2000
ENDCHAR
STARTCHAR U+0146
ENCODING 326
SWIDTH 500 0
DWIDTH 6 0
BBX 9 12 -1 -2
BITMAP 
0000
0000
0000
0000
0000
1C00
3200
2200
2200
4400
1000
2000
ENDCHAR
STARTCHAR U+0147
ENCODING 327
SWIDTH 500 0
DWIDTH 6 0
BBX 9 12 -1 -2
BITMAP 
0500
0200
0000
1100
1100
1900
2A00
2600
2200
4400
0000
0000
ENDCHAR
STARTCHAR U+0148
ENCODING 328
SWIDTH 500 0
DWIDTH 6 0
BBX 9 12 -1 -2
BITMAP 
0000
0000
0500
0600
0000
1C00
3200
2200
2200
4400
0000
0000
ENDCHAR
STARTCHAR U+0149
ENCODING 329
SWIDTH 500 0
DWIDTH 6 0
BBX 9 12 -1 -2
BITMAP 
0000
0000
0C00
0800
1000
1600
1A00
1200
1200
2400
0000
0000
ENDCHAR
STARTCHAR U+014A
ENCODING 330
SWIDTH 500 0
DWIDTH 6 0
BBX 9 12 -1 -2
BITMAP 
0000
0000
0000
1100
1100
1900
2A00
2600
2200
4400
0400
1800
ENDCHAR
STARTCHAR U+014B
ENCODING 331
SWIDTH 500 0
DWIDTH 6 0
BBX 9 12 -1 -2
BITMAP 
0000
0000
0000
0000
0000
1C00
3200
2200
2200
4400
0400
1800
ENDCHAR
STARTCHAR U+014C
ENCODING 332
SWIDTH 500 0
DWIDTH 6 0
BBX 9 12 -1 -2
BITMAP 
0000
0700
0000
0E00
1100
1100
2200
2200
2400
1800
0000
0000
ENDCHAR
STARTCHAR U+014D
ENCODING 333
SWIDTH 500 0
DWIDTH 6 0
BBX 9 12 -1 -2
BITMAP 
0000
0000
0000
0E00
0000
0C00
1200
2200
2400
1800
0000
0000
ENDCHAR
STARTCHAR U+014E
ENCODING 334
SWIDTH 500 0
DWIDTH 6 0
BBX 9 12 -1 -2
BITMAP 
0880
0700
0000
0E00
1100
1100
2200
2200
2400
1800
0000
0000
ENDCHAR
STARTCHAR U+014F
ENCODING 335
SWIDTH 500 0
DWIDTH 6 0
BBX 9 12 -1 -2
BITMAP 
0000
0000
0980
0600
0000
0C00
1200
2200
2400
1800
0000
0000
ENDCHAR
STARTCHAR U+0150
ENCODING 336
SWIDTH 500 0
DWIDTH 6 0
BBX 9 12 -1 -2
BITMAP 
0480
0900
0000
0E00
1100
1100
2200
2200
2400
1800
0000
0000
ENDCHAR
STARTCHAR U+0151
ENCODING 337
SWIDTH 500 0
DWIDTH 6 0
BBX 9 12 -1 -2
BITMAP 
0000
0000
0C80
1200
0000
0C00
1200
2200
2400
1800
0000
0000
ENDCHAR
STARTCHAR U+0152
ENCODING 338
SWIDTH 500 0
DWIDTH 6 0
BBX 9 12 -1 -2
BITMAP 
0000
0000
0000
0F00
1400
1400
2C00
2800
2800
3C00
0000
0000
ENDCHAR
STARTCHAR U+0153
ENCODING 339
SWIDTH 500 0
DWIDTH 6 0
BBX 9 12 -1 -2
BITMAP 
0000
0000
0000
0000
0000
0E00
1A00
2C00
2800
3C00
0000
0000
ENDCHAR
STARTCHAR U+0154
ENCODING 340
SWIDTH 500 0
DWIDTH 6 0
BBX 9 12 -1 -2
BITMAP 
0100
0200
0000
1E00
1100
1200
3C00
2800
2400
4400
0000
0000
ENDCHAR
STARTCHAR U+0155
ENCODING 341
SWIDTH 500 0
DWIDTH 6 0
BBX 9 12 -1 -2
BITMAP 
0000
0000
0300
0400
0000
1C00
3200
2000
2000
4000
0000
0000
ENDCHAR
STARTCHAR U+0156
ENCODING 342
SWIDTH 500 0
DWIDTH 6 0
BBX 9 12 -1 -2
BITMAP 
0000
0000
0000
1E00
1100
1200
3C00
2800
2400
4400
1000
2000
ENDCHAR
STARTCHAR U+0157
ENCODING 343
SWIDTH 500 0
DWIDTH 6 0
BBX 9 12 -1 -2
BITMAP 
0000
0000
0000
0000
0000
1C00
3200
2000
2000
4000
1000
2000
ENDCHAR
STARTCHAR U+0158
ENCODING 344
SWIDTH 500 0
DWIDTH 6 0
BBX 9 12 -1 -2
BITMAP 
0500
0200
0000
1E00
1100
1200
3C00
2800
2400
4400
0000
0000
ENDCHAR
STARTCHAR U+0159
ENCODING 345
SWIDTH 500 0
DWIDTH 6 0
BBX 9 12 -1 -2
BITMAP 
0000
0000
0500
0600
0000
1C00
3200
2000
2000
4000
0000
0000
ENDCHAR
STARTCHAR U+015A
ENCODING 346
SWIDTH 500 0
DWIDTH 6 0
BBX 9 12 -1 -2
BITMAP 
0100
0200
0000
0E00
1100
1000
0C00
0200
2400
1800
0000
0000
ENDCHAR
STARTCHAR U+015B
ENCODING 347
SWIDTH 500 0
DWIDTH 6 0
BBX 9 12 -1 -2
BITMAP 
0000
0000
0300
0400
0000
1F00
2000
1C00
0600
7800
0000
0000
ENDCHAR
STARTCHAR U+015C
ENCODING 348
SWIDTH 500 0
DWIDTH 6 0
BBX 9 12 -1 -2
BITMAP 
0200
0500
0000
0E00
1100
1000
0C00
0200
2400
1800
0000
0000
ENDCHAR
STARTCHAR U+015D
ENCODING 349
SWIDTH 500 0
DWIDTH 6 0
BBX 9 12 -1 -2
BITMAP 
0000
0000
0600
0A00
0000
1F00
2000
1C00
0600
7800
0000
0000
ENDCHAR
STARTCHAR U+015E
ENCODING 350
SWIDTH 500 0
DWIDTH 6 0
BBX 9 12 -1 -2
BITMAP 
0000
0000
0000
0E00
1100
1000
0C00
0200
2400
1400
0800
3000
ENDCHAR
STARTCHAR U+015F
ENCODING 351
SWIDTH 500 0
DWIDTH 6 0
BBX 9 12 -1 -2
BITMAP 
0000
0000
0000
0000
0000
1F00
2000
1C00
0600
7800
0800
3000
ENDCHAR
STARTCHAR U+0160
ENCODING 352
SWIDTH 500 0
DWIDTH 6 0
BBX 9 12 -1 -2
BITMAP 
0500
0200
0000
0E00
1100
1000
0C00
0200
2400
1800
0000
0000
ENDCHAR
STARTCHAR U+0161
ENCODING 353
SWIDTH 500 0
DWIDTH 6 0
BBX 9 12 -1 -2
BITMAP 
0000
0000
0500
0600
0000
1F00
2000
1C00
0600
7800
0000
0000
ENDCHAR
STARTCHAR U+0162
ENCODING 354
SWIDTH 500 0
DWIDTH 6 0
BBX 9 12 -1 -2
BITMAP 
0000
0000
0000
1F00
0400
0400
0800
0800
0800
0800
0800
3000
ENDCHAR
STARTCHAR U+0163
ENCODING 355
SWIDTH 500 0
DWIDTH 6 0
BBX 9 12 -1 -2
BITMAP 
0000
0000
0000
0400
0400
1F00
0800
0800
0800
0400
0400
1800
ENDCHAR
STARTCHAR U+0164
ENCODING 356
SWIDTH 500 0
DWIDTH 6 0
BBX 9 12 -1 -2
BITMAP 
0500
0200
0000
1F00
0400
0400
0800
0800
0800
1000
0000
0000
ENDCHAR
STARTCHAR U+0165
ENCODING 357
SWIDTH 500 0
DWIDTH 6 0
BBX 9 12 -1 -2
BITMAP 
0500
0200
0000
0400
0400
1F00
0800
0800
0800
0400
0000
0000
ENDCHAR
STARTCHAR U+0166
ENCODING 358
SWIDTH 500 0
DWIDTH 6 0
BBX 9 12 -1 -2
BITMAP 
0000
0000
0000
1F00
0400
1F00
0800
0800
0800
1000
0000
0000
ENDCHAR
STARTCHAR U+0167
ENCODING 359
SWIDTH 500 0
DWIDTH 6 0
BBX 9 12 -1 -2
BITMAP 
0000
0000
0000
0400
1F00
0400
3E00
0800
0800
0400
0000
0000
ENDCHAR
STARTCHAR U+0168
ENCODING 360
SWIDTH 500 0
DWIDTH 6 0
BBX 9 12 -1 -2
BITMAP 
0680
0B00
0000
1100
1100
1100
2200
2200
2400
1800
0000
0000
ENDCHAR
STARTCHAR U+0169
ENCODING 361
SWIDTH 500 0
DWIDTH 6 0
BBX 9 12 -1 -2
BITMAP 
0000
0000
0E80
1600
0000
1100
2200
2200
2400
1800
0000
0000
ENDCHAR
STARTCHAR U+016A
ENCODING 362
SWIDTH 500 0
DWIDTH 6 0
BBX 9 12 -1 -2
BITMAP 
0000
0700
0000
1100
1100
1100
2200
2200
2400
1800
0000
0000
ENDCHAR
STARTCHAR U+016B
ENCODING 363
SWIDTH 500 0
DWIDTH 6 0
BBX 9 12 -1 -2
BITMAP 
0000
0000
0000
0E00
0000
1100
2200
2200
2400
1800
0000
0000
ENDCHAR
STARTCHAR U+016C
ENCODING 364
SWIDTH 500 0
DWIDTH 6 0
BBX 9 12 -1 -2
BITMAP 
0880
0700
0000
1100
1100
1100
2200
2200
2400
1800
0000
0000
ENDCHAR
STARTCHAR U+016D
ENCODING 365
SWIDTH 500 0
DWIDTH 6 0
BBX 9 12 -1 -2
BITMAP 
0000
0000
0980
0600
0000
1100
2200
2200
2400
1800
0000
0000
ENDCHAR
STARTCHAR U+016E
ENCODING 366
SWIDTH 500 0
DWIDTH 6 0
BBX 9 12 -1 -2
BITMAP 
0200
0500
0200
1100
1100
1100
2200
2200
2400
1800
0000
0000
ENDCHAR
STARTCHAR U+016F
ENCODING 367
SWIDTH 500 0
DWIDTH 6 0
BBX 9 12 -1 -2
BITMAP 
0000
0000
0600
0A00
0400
1100
2200
2200
2400
1800
0000
0000
ENDCHAR
STARTCHAR U+0170
ENCODING 368
SWIDTH 500 0
DWIDTH 6 0
BBX 9 12 -1 -2
BITMAP 
0480
0900
0000
1100
1100
1100
2200
2200
2400
1800
0000
0000
ENDCHAR
STARTCHAR U+0171
ENCODING 369
SWIDTH 500 0
DWIDTH 6 0
BBX 9 12 -1 -2
BITMAP 
0000
0000
0C80
1200
0000
1100
2200
2200
2400
1800
0000
0000
ENDCHAR
STARTCHAR U+0172
ENCODING 370
SWIDTH 500 0
DWIDTH 6 0
BBX 9 12 -1 -2
BITMAP 
0000
0000
0000
1100
1100
1100
2200
2200
2400
1800
1000
1800
ENDCHAR
STARTCHAR U+0173
ENCODING 371
SWIDTH 500 0
DWIDTH 6 0
BBX 9 12 -1 -2
BITMAP 
0000
0000
0000
0000
0000
1100
2200
2200
2400
1800
1000
1800
ENDCHAR
STARTCHAR U+0174
ENCODING 372
SWIDTH 500 0
DWIDTH 6 0
BBX 9 12 -1 -2
BITMAP 
0200
0500
0000
1100
1100
1100
2200
2A00
3C00
2800
0000
0000
ENDCHAR
STARTCHAR U+0175
ENCODING 373
SWIDTH 500 0
DWIDTH 6 0
BBX 9 12 -1 -2
BITMAP 
0000
0000
0600
0A00
0000
1100
2200
2A00
3C00
2800
0000
0000
ENDCHAR
STARTCHAR U+0176
ENCODING 374
SWIDTH 500 0
DWIDTH 6 0
BBX 9 12 -1 -2
BITMAP 
0200
0500
0000
1100
1100
0A00
0C00
0800
0800
1000
0000
0000
ENDCHAR
STARTCHAR U+0177
ENCODING 375
SWIDTH 500 0
DWIDTH 6 0
BBX 9 12 -1 -2
BITMAP 
0000
0000
0600
0A00
0000
1100
2200
2200
1400
1800
2000
4000
ENDCHAR
STARTCHAR U+0178
ENCODING 376
SWIDTH 500 0
DWIDTH 6 0
BBX 9 12 -1 -2
BITMAP 
0000
0500
0000
1100
1100
0A00
0C00
0800
0800
1000
0000
0000
ENDCHAR
STARTCHAR U+0179
ENCODING 377
SWIDTH 500 0
DWIDTH 6 0
BBX 9 12 -1 -2
BITMAP 
0100
0200
0000
1F00
0200
0400
0800
1000
2000
7C00
0000
0000
ENDCHAR
STARTCHAR U+017A
ENCODING 378
SWIDTH 500 0
DWIDTH 6 0
BBX 9 12 -1 -2
BITMAP 
0000
0000
0300
0400
0000
1F00
0400
0800
3000
5C00
0000
0000
ENDCHAR
STARTCHAR U+017B
ENCODING 379
SWIDTH 500 0
DWIDTH 6 0
BBX 9 12 -1 -2
BITMAP 
0000
0200
0000
1F00
0200
0400
0800
1000
2000
7C00
0000
0000
ENDCHAR
STARTCHAR U+017C
ENCODING 380
SWIDTH 500 0
DWIDTH 6 0
BBX 9 12 -1 -2
BITMAP 
0000
0000
0000
0400
0000
1F00
0400
0800
3000
5C00
0000
0000
ENDCHAR
STARTCHAR U+017D
ENCODING 381
SWIDTH 500 0
DWIDTH 6 0
BBX 9 12 -1 -2
BITMAP 
0500
0200
0000
1F00
0200
0400
0800
1000
2000
7C00
0000
0000
ENDCHAR
STARTCHAR U+017E
ENCODING 382
SWIDTH 500 0
DWIDTH 6 0
BBX 9 12 -1 -2
BITMAP 
0000
0000
0500
0600
0000
1F00
0400
0800
3000
5C00
0000
0000
ENDCHAR
STARTCHAR U+017F
ENCODING 383
SWIDTH 500 0
DWIDTH 6 0
BBX 9 12 -1 -2
BITMAP 
0000
0000
0000
0600
0800
0800
3000
1000
1000
2000
0000
0000
ENDCHAR
STARTCHAR U+0180
ENCODING 384
SWIDTH 500 0
DWIDTH 6 0
BBX 9 12 -1 -2
BITMAP 
0000
0000
0000
0800
1E00
0800
1C00
1200
1400
3800
0000
0000
ENDCHAR
STARTCHAR U+0181
ENCODING 385
SWIDTH 500 0
DWIDTH 6 0
BBX 9 12 -1 -2
BITMAP 
0000
0000
0000
0E00
1500
0600
0C00
0A00
0C00
1800
0000
0000
ENDCHAR
STARTCHAR U+0182
ENCODING 386
SWIDTH 500 0
DWIDTH 6 0
BBX 9 12 -1 -2
BITMAP 
0000
0000
0000
1E00
0800
0800
1C00
1200
1400
7800
0000
0000
ENDCHAR
STARTCHAR U+0183
ENCODING 387
SWIDTH 500 0
DWIDTH 6 0
BBX 9 12 -1 -2
BITMAP 
0000
0000
0000
1E00
1000
1C00
2200
2200
2400
7800
0000
0000
ENDCHAR
STARTCHAR U+0184
ENCODING 388
SWIDTH 500 0
DWIDTH 6 0
BBX 9 12 -1 -2
BITMAP 
0000
0000
0000
0800
1800
1800
1C00
1200
1400
3800
0000
0000
ENDCHAR
STARTCHAR U+0185
ENCODING 389
SWIDTH 500 0
DWIDTH 6 0
BBX 9 12 -1 -2
BITMAP 
0000
0000
0000
0800
1800
0C00
1200
1200
1400
3800
0000
0000
ENDCHAR
STARTCHAR U+0186
ENCODING 390
SWIDTH 500 0
DWIDTH 6 0
BBX 9 12 -1 -2
BITMAP 
0000
0000
0000
0E00
1100
0100
0200
0200
2400
1800
0000
0000
ENDCHAR
STARTCHAR U+0187
ENCODING 391
SWIDTH 500 0
DWIDTH 6 0
BBX 9 12 -1 -2
BITMAP 
0000
0000
0380
1C00
2200
2000
4000
4000
4C00
3000
0000
0000
ENDCHAR
STARTCHAR U+0188
ENCODING 392
SWIDTH 500 0
DWIDTH 6 0
BBX 9 12 -1 -2
BITMAP 
0000
0000
0000
0000
0300
0C00
1400
2000
2C00
1000
0000
0000
ENDCHAR
STARTCHAR U+0189
ENCODING 393
SWIDTH 500 0
DWIDTH 6 0
BBX 9 12 -1 -2
BITMAP 
0000
0000
0000
1E00
0900
0900
3A00
1200
1400
7800
0000
0000
ENDCHAR
STARTCHAR U+018A
ENCODING 394
SWIDTH 500 0
DWIDTH 6 0
BBX 9 12 -1 -2
BITMAP 
0000
0000
0000
0E00
1500
0500
0A00
0A00
0C00
1800
0000
0000
ENDCHAR
STARTCHAR U+018B
ENCODING 395
SWIDTH 500 0
DWIDTH 6 0
BBX 9 12 -1 -2
BITMAP 
0000
0000
0000
0F00
0100
0100
1E00
2200
2200
1C00
0000
0000
ENDCHAR
STARTCHAR U+018C
ENCODING 396
SWIDTH 500 0
DWIDTH 6 0
BBX 9 12 -1 -2
BITMAP 
0000
0000
0000
0F00
0100
0F00
1200
2200
2200
1C00
0000
0000
ENDCHAR
STARTCHAR U+018D
ENCODING 397
SWIDTH 500 0
DWIDTH 6 0
BBX 9 12 -1 -2
BITMAP 
0000
0000
0000
0000
0000
0C00
1200
2200
1800
0400
4400
3800
ENDCHAR
STARTCHAR U+018E
ENCODING 398
SWIDTH 500 0
DWIDTH 6 0
BBX 9 12 -1 -2
BITMAP 
0000
0000
0000
1F00
0100
0100
1E00
0200
0200
7C00
0000
0000
ENDCHAR
STARTCHAR U+018F
ENCODING 399
SWIDTH 500 0
DWIDTH 6 0
BBX 9 12 -1 -2
BITMAP 
0000
0000
0000
0E00
1100
0100
3E00
2200
2400
1800
0000
0000
ENDCHAR
STARTCHAR U+0190
ENCODING 400
SWIDTH 500 0
DWIDTH 6 0
BBX 9 12 -1 -2
BITMAP 
0000
0000
0000
0E00
1100
1000
1C00
2000
2600
1800
0000
0000
ENDCHAR
STARTCHAR U+0191
ENCODING 401
SWIDTH 500 0
DWIDTH 6 0
BBX 9 12 -1 -2
BITMAP 
0000
0000
0000
0F00
0800
0800
1C00
1000
1000
2000
4000
0000
ENDCHAR
STARTCHAR U+0192
ENCODING 402
SWIDTH 500 0
DWIDTH 6 0
BBX 9 12 -1 -2
BITMAP 
0000
0000
0000
0200
0500
0400
1C00
0800
0800
5000
2000
0000
ENDCHAR
STARTCHAR U+0193
ENCODING 403
SWIDTH 500 0
DWIDTH 6 0
BBX 9 12 -1 -2
BITMAP 
0000
0000
0380
1C00
2200
2000
4000
4C00
4800
3000
0000
0000
ENDCHAR
STARTCHAR U+0194
ENCODING 404
SWIDTH 500 0
DWIDTH 6 0
BBX 9 12 -1 -2
BITMAP 
0000
0000
0000
1100
1100
1200
1400
0800
1400
1800
0000
0000
ENDCHAR
STARTCHAR U+0195
ENCODING 405
SWIDTH 500 0
DWIDTH 6 0
BBX 9 12 -1 -2
BITMAP 
0000
0000
0000
1000
1000
1900
2A00
2A00
2C00
4800
0000
0000
ENDCHAR
STARTCHAR U+0196
ENCODING 406
SWIDTH 500 0
DWIDTH 6 0
BBX 9 12 -1 -2
BITMAP 
0000
0000
0000
0C00
0400
0400
0800
0800
0800
0800
0000
0000
ENDCHAR
STARTCHAR U+0197
ENCODING 407
SWIDTH 500 0
DWIDTH 6 0
BBX 9 12 -1 -2
BITMAP 
0000
0000
0000
0E00
0400
0400
1C00
0800
0800
3800
0000
0000
ENDCHAR
STARTCHAR U+0198
ENCODING 408
SWIDTH 500 0
DWIDTH 6 0
BBX 9 12 -1 -2
BITMAP 
0000
0000
0000
1300
1400
1800
3000
2800
2400
4400
0000
0000
ENDCHAR
STARTCHAR U+0199
ENCODING 409
SWIDTH 500 0
DWIDTH 6 0
BBX 9 12 -1 -2
BITMAP 
0000
0000
0400
0C00
1000
1300
2400
3800
2400
4400
0000
0000
ENDCHAR
STARTCHAR U+019A
ENCODING 410
SWIDTH 500 0
DWIDTH 6 0
BBX 9 12 -1 -2
BITMAP 
0000
0000
0000
0C00
0400
0400
1C00
0800
0800
3800
0000
0000
ENDCHAR
STARTCHAR U+019B
ENCODING 411
SWIDTH 500 0
DWIDTH 6 0
BBX 9 12 -1 -2
BITMAP 
0000
0000
0000
0A00
0400
0C00
0800
1400
1400
2800
0000
0000
ENDCHAR
STARTCHAR U+019C
ENCODING 412
SWIDTH 500 0
DWIDTH 6 0
BBX 9 12 -1 -2
BITMAP 
0000
0000
0000
1500
1500
1500
2A00
2A00
3A00
2C00
0000
0000
ENDCHAR
STARTCHAR U+019D
ENCODING 413
SWIDTH 500 0
DWIDTH 6 0
BBX 9 12 -1 -2
BITMAP 
0000
0000
0000
0900
0900
0900
1A00
1600
1200
2400
4000
0000
ENDCHAR
STARTCHAR U+019E
ENCODING 414
SWIDTH 500 0
DWIDTH 6 0
BBX 9 12 -1 -2
BITMAP 
0000
0000
0000
0000
0000
1C00
3200
2200
2200
4400
0400
0400
ENDCHAR
STARTCHAR U+019F
ENCODING 415
SWIDTH 500 0
DWIDTH 6 0
BBX 9 12 -1 -2
BITMAP 
0000
0000
0000
0E00
1100
1100
3E00
2200
2400
1800
0000
0000
ENDCHAR
STARTCHAR U+01A0
ENCODING 416
SWIDTH 500 0
DWIDTH 6 0
BBX 9 12 -1 -2
BITMAP 
0000
0000
0100
0D00
1200
1200
2400
2400
2800
3000
0000
0000
ENDCHAR
STARTCHAR U+01A1
ENCODING 417
SWIDTH 500 0
DWIDTH 6 0
BBX 9 12 -1 -2
BITMAP 
0000
0000
0000
0100
0100
0C00
1200
2200
2400
1800
0000
0000
ENDCHAR
STARTCHAR U+01A2
ENCODING 418
SWIDTH 500 0
DWIDTH 6 0
BBX 9 12 -1 -2
BITMAP 
0000
0000
0000
0800
1600
1600
2A00
2A00
3200
2400
0000
0000
ENDCHAR
STARTCHAR U+01A3
ENCODING 419
SWIDTH 500 0
DWIDTH 6 0
BBX 9 12 -1 -2
BITMAP 
0000
0000
0000
0000
0000
0E00
1A00
2A00
3200
2400
0000
0000
ENDCHAR
STARTCHAR U+01A4
ENCODING 420
SWIDTH 500 0
DWIDTH 6 0
BBX 9 12 -1 -2
BITMAP 
0000
0000
0000
1E00
0900
0A00
1C00
1000
1000
2000
0000
0000
ENDCHAR
STARTCHAR U+01A5
ENCODING 421
SWIDTH 500 0
DWIDTH 6 0
BBX 9 12 -1 -2
BITMAP 
0000
0000
0000
0800
1000
1C00
2200
2200
2400
7800
4000
4000
ENDCHAR
STARTCHAR U+01A6
ENCODING 422
SWIDTH 500 0
DWIDTH 6 0
BBX 9 12 -1 -2
BITMAP 
0000
0000
0000
1000
1C00
1200
2200
3C00
2800
4800
0400
0000
ENDCHAR
STARTCHAR U+01A7
ENCODING 423
SWIDTH 500 0
DWIDTH 6 0
BBX 9 12 -1 -2
BITMAP 
0000
0000
0000
0E00
1100
0200
1C00
2000
2600
1800
0000
0000
ENDCHAR
STARTCHAR U+01A8
ENCODING 424
SWIDTH 500 0
DWIDTH 6 0
BBX 9 12 -1 -2
BITMAP 
0000
0000
0000
0000
0000
1C00
0200
1C00
2000
1C00
0000
0000
ENDCHAR
STARTCHAR U+01A9
ENCODING 425
SWIDTH 500 0
DWIDTH 6 0
BBX 9 12 -1 -2
BITMAP 
0000
0000
0000
1F00
0800
0400
0400
0800
3000
5C00
0000
0000
ENDCHAR
STARTCHAR U+01AA
ENCODING 426
SWIDTH 500 0
DWIDTH 6 0
BBX 9 12 -1 -2
BITMAP 
0000
0000
0000
0800
1400
0E00
0800
0800
0800
0C00
0800
0000
ENDCHAR
STARTCHAR U+01AB
ENCODING 427
SWIDTH 500 0
DWIDTH 6 0
BBX 9 12 -1 -2
BITMAP 
0000
0000
0000
0400
0400
1F00
0800
0800
0800
0400
0400
1800
ENDCHAR
STARTCHAR U+01AC
ENCODING 428
SWIDTH 500 0
DWIDTH 6 0
BBX 9 12 -1 -2
BITMAP 
0000
0000
0000
0F00
1400
1400
0800
0800
0800
1000
0000
0000
ENDCHAR
STARTCHAR U+01AD
ENCODING 429
SWIDTH 500 0
DWIDTH 6 0
BBX 9 12 -1 -2
BITMAP 
0000
0000
0180
0200
0400
1F00
0800
0800
0800
0400
0000
0000
ENDCHAR
STARTCHAR U+01AE
ENCODING 430
SWIDTH 500 0
DWIDTH 6 0
BBX 9 12 -1 -2
BITMAP 
0000
0000
0000
1F00
0400
0400
0800
0800
0800
0800
0400
0000
ENDCHAR
STARTCHAR U+01AF
ENCODING 431
SWIDTH 500 0
DWIDTH 6 0
BBX 9 12 -1 -2
BITMAP 
0000
0000
0080
1100
1200
1200
2400
2400
2800
3000
0000
0000
ENDCHAR
STARTCHAR U+01B0
ENCODING 432
SWIDTH 500 0
DWIDTH 6 0
BBX 9 12 -1 -2
BITMAP 
0000
0000
0000
0000
0100
1300
2400
2400
2C00
3800
0000
0000
ENDCHAR
STARTCHAR U+01B1
ENCODING 433
SWIDTH 500 0
DWIDTH 6 0
BBX 9 12 -1 -2
BITMAP 
0000
0000
0000
0A00
1100
1100
2200
2200
2400
1800
0000
0000
ENDCHAR
STARTCHAR U+01B2
ENCODING 434
SWIDTH 500 0
DWIDTH 6 0
BBX 9 12 -1 -2
BITMAP 
0000
0000
0000
1200
1200
1200
2200
2200
2400
1800
0000
0000
ENDCHAR
STARTCHAR U+01B3
ENCODING 435
SWIDTH 500 0
DWIDTH 6 0
BBX 9 12 -1 -2
BITMAP 
0000
0000
0000
1100
0900
0A00
0C00
0800
0800
1000
0000
0000
ENDCHAR
STARTCHAR U+01B4
ENCODING 436
SWIDTH 500 0
DWIDTH 6 0
BBX 9 12 -1 -2
BITMAP 
0000
0000
0000
0000
0200
1500
2800
2800
2800
3000
2000
4000
ENDCHAR
STARTCHAR U+01B5
ENCODING 437
SWIDTH 500 0
DWIDTH 6 0
BBX 9 12 -1 -2
BITMAP 
0000
0000
0000
1F00
0100
0600
3A00
1000
2000
7C00
0000
0000
ENDCHAR
STARTCHAR U+01B6
ENCODING 438
SWIDTH 500 0
DWIDTH 6 0
BBX 9 12 -1 -2
BITMAP 
0000
0000
0000
0000
0000
1F00
0400
3E00
1000
7C00
0000
0000
ENDCHAR
STARTCHAR U+01B7
ENCODING 439
SWIDTH 500 0
DWIDTH 6 0
BBX 9 12 -1 -2
BITMAP 
0000
0000
0000
1F00
0200
0C00
1400
0200
2400
1800
0000
0000
ENDCHAR
STARTCHAR U+01B8
ENCODING 440
SWIDTH 500 0
DWIDTH 6 0
BBX 9 12 -1 -2
BITMAP 
0000
0000
0000
1F00
0800
0400
1C00
2000
2600
1800
0000
0000
ENDCHAR
STARTCHAR U+01B9
ENCODING 441
SWIDTH 500 0
DWIDTH 6 0
BBX 9 12 -1 -2
BITMAP 
0000
0000
0000
0000
0000
1F00
1000
0800
1C00
2000
4400
3800
ENDCHAR
STARTCHAR U+01BA
ENCODING 442
SWIDTH 500 0
DWIDTH 6 0
BBX 9 12 -1 -2
BITMAP 
0000
0000
0000
0000
0000
1F00
0400
0C00
0600
3800
4400
3800
ENDCHAR
STARTCHAR U+01BB
ENCODING 443
SWIDTH 500 0
DWIDTH 6 0
BBX 9 12 -1 -2
BITMAP 
0000
0000
0000
0E00
1100
0200
1E00
0800
3000
5C00
0000
0000
ENDCHAR
STARTCHAR U+01BC
ENCODING 444
SWIDTH 500 0
DWIDTH 6 0
BBX 9 12 -1 -2
BITMAP 
0000
0000
0000
1F00
1100
1800
0400
0200
0400
7800
0000
0000
ENDCHAR
STARTCHAR U+01BD
ENCODING 445
SWIDTH 500 0
DWIDTH 6 0
BBX 9 12 -1 -2
BITMAP 
0000
0000
0000
0000
0000
0F00
1000
1C00
0600
3800
0000
0000
ENDCHAR
STARTCHAR U+01BE
ENCODING 446
SWIDTH 500 0
DWIDTH 6 0
BBX 9 12 -1 -2
BITMAP 
0000
0000
0000
0400
0E00
0400
0C00
0200
2400
1800
0000
0000
ENDCHAR
STARTCHAR U+01BF
ENCODING 447
SWIDTH 500 0
DWIDTH 6 0
BBX 9 12 -1 -2
BITMAP 
0000
0000
0000
0000
0000
1C00
3200
2400
3800
6000
4000
4000
ENDCHAR
STARTCHAR U+01C0
ENCODING 448
SWIDTH 500 0
DWIDTH 6 0
BBX 9 12 -1 -2
BITMAP 
0000
0000
0000
0400
0400
0400
0800
0800
0800
1000
0000
0000
ENDCHAR
STARTCHAR U+01C1
ENCODING 449
SWIDTH 500 0
DWIDTH 6 0
BBX 9 12 -1 -2
BITMAP 
0000
0000
0000
0A00
0A00
0A00
1400
1400
1400
2800
0000
0000
ENDCHAR
STARTCHAR U+01C2
ENCODING 450
SWIDTH 500 0
DWIDTH 6 0
BBX 9 12 -1 -2
BITMAP 
0000
0000
0000
0400
0400
0E00
0800
1C00
0800
1000
0000
0000
ENDCHAR
STARTCHAR U+01C3
ENCODING 451
SWIDTH 500 0
DWIDTH 6 0
BBX 9 12 -1 -2
BITMAP 
0000
0000
0000
0E00
0E00
0E00
0800
0800
0000
1000
0000
0000
ENDCHAR
STARTCHAR U+01C4
ENCODING 452
SWIDTH 500 0
DWIDTH 6 0
BBX 9 12 -1 -2
BITMAP 
0280
0100
0000
1B00
1500
1600
2A00
2C00
3C00
6C00
0000
0000
ENDCHAR
STARTCHAR U+01C5
ENCODING 453
SWIDTH 500 0
DWIDTH 6 0
BBX 9 12 -1 -2
BITMAP 
0000
0280
0100
1800
1400
1700
2A00
2C00
3C00
6C00
0000
0000
ENDCHAR
STARTCHAR U+01C6
ENCODING 454
SWIDTH 500 0
DWIDTH 6 0
BBX 9 12 -1 -2
BITMAP 
0280
0100
0000
0400
0400
0F00
1A00
2C00
2C00
3C00
0000
0000
ENDCHAR
STARTCHAR U+01C7
ENCODING 455
SWIDTH 500 0
DWIDTH 6 0
BBX 9 12 -1 -2
BITMAP 
0000
0000
0000
1100
1100
1100
2200
2200
3C00
6800
0000
0000
ENDCHAR
STARTCHAR U+01C8
ENCODING 456
SWIDTH 500 0
DWIDTH 6 0
BBX 9 12 -1 -2
BITMAP 
0000
0000
0000
1100
1000
1300
2200
2200
2200
7400
0400
1800
ENDCHAR
STARTCHAR U+01C9
ENCODING 457
SWIDTH 500 0
DWIDTH 6 0
BBX 9 12 -1 -2
BITMAP 
0000
0000
0000
1900
0800
0B00
1200
1200
1200
7400
0400
1800
ENDCHAR
STARTCHAR U+01CA
ENCODING 458
SWIDTH 500 0
DWIDTH 6 0
BBX 9 12 -1 -2
BITMAP 
0000
0000
0000
1900
1500
1500
2A00
2A00
2C00
5800
0000
0000
ENDCHAR
STARTCHAR U+01CB
ENCODING 459
SWIDTH 500 0
DWIDTH 6 0
BBX 9 12 -1 -2
BITMAP 
0000
0000
0000
1900
1400
1700
2A00
2A00
2A00
5400
0400
1800
ENDCHAR
STARTCHAR U+01CC
ENCODING 460
SWIDTH 500 0
DWIDTH 6 0
BBX 9 12 -1 -2
BITMAP 
0000
0000
0000
0100
0000
1F00
2A00
2A00
2A00
5400
0400
1800
ENDCHAR
STARTCHAR U+01CD
ENCODING 461
SWIDTH 500 0
DWIDTH 6 0
BBX 9 12 -1 -2
BITMAP 
0500
0200
0000
0E00
1100
1100
3E00
2200
2200
4400
0000
0000
ENDCHAR
STARTCHAR U+01CE
ENCODING 462
SWIDTH 500 0
DWIDTH 6 0
BBX 9 12 -1 -2
BITMAP 
0000
0000
0500
0600
0000
0C00
0200
1E00
2200
1C00
0000
0000
ENDCHAR
STARTCHAR U+01CF
ENCODING 463
SWIDTH 500 0
DWIDTH 6 0
BBX 9 12 -1 -2
BITMAP 
0500
0200
0000
0E00
0400
0400
0800
0800
0800
3800
0000
0000
ENDCHAR
STARTCHAR U+01D0
ENCODING 464
SWIDTH 500 0
DWIDTH 6 0
BBX 9 12 -1 -2
BITMAP 
0000
0000
0500
0600
0000
0C00
0800
0800
0800
3800
0000
0000
ENDCHAR
STARTCHAR U+01D1
ENCODING 465
SWIDTH 500 0
DWIDTH 6 0
BBX 9 12 -1 -2
BITMAP 
0500
0200
0000
0E00
1100
1100
2200
2200
2400
1800
0000
0000
ENDCHAR
STARTCHAR U+01D2
ENCODING 466
SWIDTH 500 0
DWIDTH 6 0
BBX 9 12 -1 -2
BITMAP 
0000
0000
0500
0600
0000
0C00
1200
2200
2400
1800
0000
0000
ENDCHAR
STARTCHAR U+01D3
ENCODING 467
SWIDTH 500 0
DWIDTH 6 0
BBX 9 12 -1 -2
BITMAP 
0500
0200
0000
1100
1100
1100
2200
2200
2400
1800
0000
0000
ENDCHAR
STARTCHAR U+01D4
ENCODING 468
SWIDTH 500 0
DWIDTH 6 0
BBX 9 12 -1 -2
BITMAP 
0000
0000
0500
0600
0000
1100
2200
2200
2400
1800
0000
0000
ENDCHAR
STARTCHAR U+01D5
ENCODING 469
SWIDTH 500 0
DWIDTH 6 0
BBX 9 12 -1 -2
BITMAP 
0700
0000
0500
0000
1100
1100
2200
2200
2400
1800
0000
0000
ENDCHAR
STARTCHAR U+01D6
ENCODING 470
SWIDTH 500 0
DWIDTH 6 0
BBX 9 12 -1 -2
BITMAP 
0000
0700
0000
0A00
0000
1100
2200
2200
2400
1800
0000
0000
ENDCHAR
STARTCHAR U+01D7
ENCODING 471
SWIDTH 500 0
DWIDTH 6 0
BBX 9 12 -1 -2
BITMAP 
0100
0200
0500
0000
1100
1100
2200
2200
2400
1800
0000
0000
ENDCHAR
STARTCHAR U+01D8
ENCODING 472
SWIDTH 500 0
DWIDTH 6 0
BBX 9 12 -1 -2
BITMAP 
0100
0200
0000
0A00
0000
1100
2200
2200
2400
1800
0000
0000
ENDCHAR
STARTCHAR U+01D9
ENCODING 473
SWIDTH 500 0
DWIDTH 6 0
BBX 9 12 -1 -2
BITMAP 
0500
0200
0500
0000
1100
1100
2200
2200
2400
1800
0000
0000
ENDCHAR
STARTCHAR U+01DA
ENCODING 474
SWIDTH 500 0
DWIDTH 6 0
BBX 9 12 -1 -2
BITMAP 
0500
0200
0000
0A00
0000
1100
2200
2200
2400
1800
0000
0000
ENDCHAR
STARTCHAR U+01DB
ENCODING 475
SWIDTH 500 0
DWIDTH 6 0
BBX 9 12 -1 -2
BITMAP 
0400
0200
0500
0000
1100
1100
2200
2200
2400
1800
0000
0000
ENDCHAR
STARTCHAR U+01DC
ENCODING 476
SWIDTH 500 0
DWIDTH 6 0
BBX 9 12 -1 -2
BITMAP 
0400
0200
0000
0A00
0000
1100
2200
2200
2400
1800
0000
0000
ENDCHAR
STARTCHAR U+01DD
ENCODING 477
SWIDTH 500 0
DWIDTH 6 0
BBX 9 12 -1 -2
BITMAP 
0000
0000
0000
0000
0000
0C00
0200
1E00
2400
1800
0000
0000
ENDCHAR
STARTCHAR U+01DE
ENCODING 478
SWIDTH 500 0
DWIDTH 6 0
BBX 9 12 -1 -2
BITMAP 
0700
0000
0500
0000
0C00
1200
2200
3E00
2200
4400
0000
0000
ENDCHAR
STARTCHAR U+01DF
ENCODING 479
SWIDTH 500 0
DWIDTH 6 0
BBX 9 12 -1 -2
BITMAP 
0000
0700
0000
0A00
0000
0C00
0200
1E00
2200
1C00
0000
0000
ENDCHAR
STARTCHAR U+01E0
ENCODING 480
SWIDTH 500 0
DWIDTH 6 0
BBX 9 12 -1 -2
BITMAP 
0700
0000
0200
0000
0C00
1200
2200
3E00
2200
4400
0000
0000
ENDCHAR
STARTCHAR U+01E1
ENCODING 481
SWIDTH 500 0
DWIDTH 6 0
BBX 9 12 -1 -2
BITMAP 
0000
0700
0000
0400
0000
0C00
0200
1E00
2200
1C00
0000
0000
ENDCHAR
STARTCHAR U+01E2
ENCODING 482
SWIDTH 500 0
DWIDTH 6 0
BBX 9 12 -1 -2
BITMAP 
0000
0780
0000
0F00
1400
1400
3C00
2800
2800
5C00
0000
0000
ENDCHAR
STARTCHAR U+01E3
ENCODING 483
SWIDTH 500 0
DWIDTH 6 0
BBX 9 12 -1 -2
BITMAP 
0000
0000
0000
0E00
0000
0E00
0A00
1C00
2800
3C00
0000
0000
ENDCHAR
STARTCHAR U+01E4
ENCODING 484
SWIDTH 500 0
DWIDTH 6 0
BBX 9 12 -1 -2
BITMAP 
0000
0000
0000
0E00
1100
1000
2600
2600
2400
1800
0000
0000
ENDCHAR
STARTCHAR U+01E5
ENCODING 485
SWIDTH 500 0
DWIDTH 6 0
BBX 9 12 -1 -2
BITMAP 
0000
0000
0000
0000
0000
0C00
1200
2200
2200
3C00
7C00
3800
ENDCHAR
STARTCHAR U+01E6
ENCODING 486
SWIDTH 500 0
DWIDTH 6 0
BBX 9 12 -1 -2
BITMAP 
0500
0200
0000
0E00
1100
1000
2000
2600
2400
1800
0000
0000
ENDCHAR
STARTCHAR U+01E7
ENCODING 487
SWIDTH 500 0
DWIDTH 6 0
BBX 9 12 -1 -2
BITMAP 
0000
0000
0500
0600
0000
0C00
1200
2200
2200
1C00
0400
3800
ENDCHAR
STARTCHAR U+01E8
ENCODING 488
SWIDTH 500 0
DWIDTH 6 0
BBX 9 12 -1 -2
BITMAP 
0500
0200
0000
1100
1200
1C00
3000
2800
2400
4400
0000
0000
ENDCHAR
STARTCHAR U+01E9
ENCODING 489
SWIDTH 500 0
DWIDTH 6 0
BBX 9 12 -1 -2
BITMAP 
0000
0500
0200
1000
1000
1300
2400
3800
2400
4400
0000
0000
ENDCHAR
STARTCHAR U+01EA
ENCODING 490
SWIDTH 500 0
DWIDTH 6 0
BBX 9 12 -1 -2
BITMAP 
0000
0000
0000
0E00
1100
1100
2200
2200
2400
3800
2000
1800
ENDCHAR
STARTCHAR U+01EB
ENCODING 491
SWIDTH 500 0
DWIDTH 6 0
BBX 9 12 -1 -2
BITMAP 
0000
0000
0000
0000
0000
0C00
1200
2200
2400
3800
2000
1800
ENDCHAR
STARTCHAR U+01EC
ENCODING 492
SWIDTH 500 0
DWIDTH 6 0
BBX 9 12 -1 -2
BITMAP 
0000
0700
0000
0E00
1100
1100
2200
2200
2400
3800
2000
1800
ENDCHAR
STARTCHAR U+01ED
ENCODING 493
SWIDTH 500 0
DWIDTH 6 0
BBX 9 12 -1 -2
BITMAP 
0000
0000
0000
0E00
0000
0C00
1200
2200
2400
3800
2000
1800
ENDCHAR
STARTCHAR U+01EE
ENCODING 494
SWIDTH 500 0
DWIDTH 6 0
BBX 9 12 -1 -2
BITMAP 
0500
0200
0000
1F00
0200
0C00
1400
0200
2400
1800
0000
0000
ENDCHAR
STARTCHAR U+01EF
ENCODING 495
SWIDTH 500 0
DWIDTH 6 0
BBX 9 12 -1 -2
BITMAP 
0000
0000
0500
0600
0000
1F00
0400
0800
1C00
0400
4400
3800
ENDCHAR
STARTCHAR U+01F0
ENCODING 496
SWIDTH 500 0
DWIDTH 6 0
BBX 9 12 -1 -2
BITMAP 
0000
0000
0280
0300
0000
0600
0400
0400
0400
0800
4800
3000
ENDCHAR
STARTCHAR U+01F1
ENCODING 497
SWIDTH 500 0
DWIDTH 6 0
BBX 9 12 -1 -2
BITMAP 
0000
0000
0000
1B00
1500
1600
2A00
2C00
3C00
6C00
0000
0000
ENDCHAR
STARTCHAR U+01F2
ENCODING 498
SWIDTH 500 0
DWIDTH 6 0
BBX 9 12 -1 -2
BITMAP 
0000
0000
0000
1800
1400
1700
2A00
2C00
3C00
6C00
0000
0000
ENDCHAR
STARTCHAR U+01F3
ENCODING 499
SWIDTH 500 0
DWIDTH 6 0
BBX 9 12 -1 -2
BITMAP 
0000
0000
0000
0400
0400
0F00
1A00
2C00
2C00
3C00
0000
0000
ENDCHAR
STARTCHAR U+01F4
ENCODING 500
SWIDTH 500 0
DWIDTH 6 0
BBX 9 12 -1 -2
BITMAP 
0100
0200
0000
0E00
1100
1000
2000
2600
2400
1800
0000
0000
ENDCHAR
STARTCHAR U+01F5
ENCODING 501
SWIDTH 500 0
DWIDTH 6 0
BBX 9 12 -1 -2
BITMAP 
0000
0000
0300
0400
0000
0C00
1200
2200
2200
1C00
0400
3800
ENDCHAR
STARTCHAR U+01F6
ENCODING 502
SWIDTH 500 0
DWIDTH 6 0
BBX 9 12 -1 -2
BITMAP 
0000
0000
0000
1400
1400
1D00
2A00
2A00
2C00
4800
0000
0000
ENDCHAR
STARTCHAR U+01F7
ENCODING 503
SWIDTH 500 0
DWIDTH 6 0
BBX 9 12 -1 -2
BITMAP 
0000
0000
0000
1600
1900
1200
2400
2800
3000
4000
0000
0000
ENDCHAR
STARTCHAR U+01F8
ENCODING 504
SWIDTH 500 0
DWIDTH 6 0
BBX 9 12 -1 -2
BITMAP 
0400
0200
0000
1100
1100
1900
2A00
2600
2200
4400
0000
0000
ENDCHAR
STARTCHAR U+01F9
ENCODING 505
SWIDTH 500 0
DWIDTH 6 0
BBX 9 12 -1 -2
BITMAP 
0000
0000
0400
0400
0000
1C00
3200
2200
2200
4400
0000
0000
ENDCHAR
STARTCHAR U+01FA
ENCODING 506
SWIDTH 500 0
DWIDTH 6 0
BBX 9 12 -1 -2
BITMAP 
0100
0200
0600
0A00
0400
0E00
1200
3E00
2200
4400
0000
0000
ENDCHAR
STARTCHAR U+01FB
ENCODING 507
SWIDTH 500 0
DWIDTH 6 0
BBX 9 12 -1 -2
BITMAP 
0100
0200
0600
0A00
0400
0E00
0200
1E00
2200
1C00
0000
0000
ENDCHAR
STARTCHAR U+01FC
ENCODING 508
SWIDTH 500 0
DWIDTH 6 0
BBX 9 12 -1 -2
BITMAP 
0100
0200
0000
0F00
1400
1400
3C00
2800
2800
5C00
0000
0000
ENDCHAR
STARTCHAR U+01FD
ENCODING 509
SWIDTH 500 0
DWIDTH 6 0
BBX 9 12 -1 -2
BITMAP 
0000
0000
0300
0400
0000
0E00
0A00
1C00
2800
3C00
0000
0000
ENDCHAR
STARTCHAR U+01FE
ENCODING 510
SWIDTH 500 0
DWIDTH 6 0
BBX 9 12 -1 -2
BITMAP 
0100
0200
0180
0E00
1300
1500
2A00
2A00
3400
3800
4000
0000
ENDCHAR
STARTCHAR U+01FF
ENCODING 511
SWIDTH 500 0
DWIDTH 6 0
BBX 9 12 -1 -2
BITMAP 
0000
0000
0300
0400
0000
0F00
1600
2A00
3400
7800
0000
0000
ENDCHAR
STARTCHAR U+0200
ENCODING 512
SWIDTH 500 0
DWIDTH 6 0
BBX 9 12 -1 -2
BITMAP 
0900
0480
0000
0E00
1100
1100
3E00
2200
2200
4400
0000
0000
ENDCHAR
STARTCHAR U+0201
ENCODING 513
SWIDTH 500 0
DWIDTH 6 0
BBX 9 12 -1 -2
BITMAP 
0000
0000
0900
0900
0000
0C00
0200
1E00
2200
1C00
0000
0000
ENDCHAR
STARTCHAR U+0202
ENCODING 514
SWIDTH 500 0
DWIDTH 6 0
BBX 9 12 -1 -2
BITMAP 
0700
0880
0000
0E00
1100
1100
3E00
2200
2200
4400
0000
0000
ENDCHAR
STARTCHAR U+0203
ENCODING 515
SWIDTH 500 0
DWIDTH 6 0
BBX 9 12 -1 -2
BITMAP 
0000
0000
0E00
1100
0000
0C00
0200
1E00
2200
1C00
0000
0000
ENDCHAR
STARTCHAR U+0204
ENCODING 516
SWIDTH 500 0
DWIDTH 6 0
BBX 9 12 -1 -2
BITMAP 
0900
0480
0000
1F00
1000
1000
3C00
2000
2000
7C00
0000
0000
ENDCHAR
STARTCHAR U+0205
ENCODING 517
SWIDTH 500 0
DWIDTH 6 0
BBX 9 12 -1 -2
BITMAP 
0000
0000
0900
0900
0000
0C00
1200
3C00
2000
1800
0000
0000
ENDCHAR
STARTCHAR U+0206
ENCODING 518
SWIDTH 500 0
DWIDTH 6 0
BBX 9 12 -1 -2
BITMAP 
0900
0480
0000
1F00
1000
1000
3C00
2000
2000
7C00
0000
0000
ENDCHAR
STARTCHAR U+0207
ENCODING 519
SWIDTH 500 0
DWIDTH 6 0
BBX 9 12 -1 -2
BITMAP 
0000
0000
0E00
1100
0000
0C00
1200
3C00
2000
1800
0000
0000
ENDCHAR
STARTCHAR U+0208
ENCODING 520
SWIDTH 500 0
DWIDTH 6 0
BBX 9 12 -1 -2
BITMAP 
0900
0480
0000
0E00
0400
0400
0800
0800
0800
3800
0000
0000
ENDCHAR
STARTCHAR U+0209
ENCODING 521
SWIDTH 500 0
DWIDTH 6 0
BBX 9 12 -1 -2
BITMAP 
0000
0000
0900
0900
0000
0C00
0800
0800
0800
3800
0000
0000
ENDCHAR
STARTCHAR U+020A
ENCODING 522
SWIDTH 500 0
DWIDTH 6 0
BBX 9 12 -1 -2
BITMAP 
0700
0880
0000
0E00
0400
0400
0800
0800
0800
3800
0000
0000
ENDCHAR
STARTCHAR U+020B
ENCODING 523
SWIDTH 500 0
DWIDTH 6 0
BBX 9 12 -1 -2
BITMAP 
0000
0000
0E00
1100
0000
0C00
0800
0800
0800
3800
0000
0000
ENDCHAR
STARTCHAR U+020C
ENCODING 524
SWIDTH 500 0
DWIDTH 6 0
BBX 9 12 -1 -2
BITMAP 
0900
0480
0000
0E00
1100
1100
2200
2200
2400
1800
0000
0000
ENDCHAR
STARTCHAR U+020D
ENCODING 525
SWIDTH 500 0
DWIDTH 6 0
BBX 9 12 -1 -2
BITMAP 
0000
0000
0900
0900
0000
0C00
1200
2200
2400
1800
0000
0000
ENDCHAR
STARTCHAR U+020E
ENCODING 526
SWIDTH 500 0
DWIDTH 6 0
BBX 9 12 -1 -2
BITMAP 
0700
0880
0000
0E00
1100
1100
2200
2200
2400
1800
0000
0000
ENDCHAR
STARTCHAR U+020F
ENCODING 527
SWIDTH 500 0
DWIDTH 6 0
BBX 9 12 -1 -2
BITMAP 
0000
0000
0E00
1100
0000
0C00
1200
2200
2400
1800
0000
0000
ENDCHAR
STARTCHAR U+0210
ENCODING 528
SWIDTH 500 0
DWIDTH 6 0
BBX 9 12 -1 -2
BITMAP 
0900
0480
0000
1E00
1100
1200
3C00
2800
2400
4400
0000
0000
ENDCHAR
STARTCHAR U+0211
ENCODING 529
SWIDTH 500 0
DWIDTH 6 0
BBX 9 12 -1 -2
BITMAP 
0000
0000
0900
0900
0000
1C00
3200
2000
2000
4000
0000
0000
ENDCHAR
STARTCHAR U+0212
ENCODING 530
SWIDTH 500 0
DWIDTH 6 0
BBX 9 12 -1 -2
BITMAP 
0700
0880
0000
1E00
1100
1200
3C00
2800
2400
4400
0000
0000
ENDCHAR
STARTCHAR U+0213
ENCODING 531
SWIDTH 500 0
DWIDTH 6 0
BBX 9 12 -1 -2
BITMAP 
0000
0000
0E00
1100
0000
1C00
3200
2000
2000
4000
0000
0000
ENDCHAR
STARTCHAR U+0214
ENCODING 532
SWIDTH 500 0
DWIDTH 6 0
BBX 9 12 -1 -2
BITMAP 
0900
0480
0000
1100
1100
1100
2200
2200
2400
1800
0000
0000
ENDCHAR
STARTCHAR U+0215
ENCODING 533
SWIDTH 500 0
DWIDTH 6 0
BBX 9 12 -1 -2
BITMAP 
0000
0000
0900
0900
0000
1100
2200
2200
2400
1800
0000
0000
ENDCHAR
STARTCHAR U+0216
ENCODING 534
SWIDTH 500 0
DWIDTH 6 0
BBX 9 12 -1 -2
BITMAP 
0700
0880
0000
1100
1100
1100
2200
2200
2400
1800
0000
0000
ENDCHAR
STARTCHAR U+0217
ENCODING 535
SWIDTH 500 0
DWIDTH 6 0
BBX 9 12 -1 -2
BITMAP 
0000
0000
0E00
1100
0000
1100
2200
2200
2400
1800
0000
0000
ENDCHAR
STARTCHAR U+0218
ENCODING 536
SWIDTH 500 0
DWIDTH 6 0
BBX 9 12 -1 -2
BITMAP 
0000
0000
0000
0E00
1100
1000
0C00
0200
2400
1400
0800
1000
ENDCHAR
STARTCHAR U+0219
ENCODING 537
SWIDTH 500 0
DWIDTH 6 0
BBX 9 12 -1 -2
BITMAP 
0000
0000
0000
0000
0000
1F00
2000
1C00
0600
7800
0800
1000
ENDCHAR
STARTCHAR U+021A
ENCODING 538
SWIDTH 500 0
DWIDTH 6 0
BBX 9 12 -1 -2
BITMAP 
0000
0000
0000
1F00
0400
0400
0800
0800
0800
0800
0800
1000
ENDCHAR
STARTCHAR U+021B
ENCODING 539
SWIDTH 500 0
DWIDTH 6 0
BBX 9 12 -1 -2
BITMAP 
0000
0000
0000
0400
0400
1F00
0800
0800
0800
0C00
0800
1000
ENDCHAR
STARTCHAR U+021C
ENCODING 540
SWIDTH 500 0
DWIDTH 6 0
BBX 9 12 -1 -2
BITMAP 
0000
0000
0000
0E00
1100
0600
0A00
0200
0400
7800
0000
0000
ENDCHAR
STARTCHAR U+021D
ENCODING 541
SWIDTH 500 0
DWIDTH 6 0
BBX 9 12 -1 -2
BITMAP 
0000
0000
0000
0000
0000
1C00
2200
0400
0C00
0400
0400
7800
ENDCHAR
STARTCHAR U+021E
ENCODING 542
SWIDTH 500 0
DWIDTH 6 0
BBX 9 12 -1 -2
BITMAP 
0500
0200
0000
1100
1100
1100
3E00
2200
2200
4400
0000
0000
ENDCHAR
STARTCHAR U+021F
ENCODING 543
SWIDTH 500 0
DWIDTH 6 0
BBX 9 12 -1 -2
BITMAP 
0000
0500
0200
1000
1000
1C00
2200
2200
2200
4400
0000
0000
ENDCHAR
STARTCHAR U+0222
ENCODING 546
SWIDTH 500 0
DWIDTH 6 0
BBX 9 12 -1 -2
BITMAP 
0000
0000
0000
0A00
1100
1200
1C00
2200
2400
1800
0000
0000
ENDCHAR
STARTCHAR U+0223
ENCODING 547
SWIDTH 500 0
DWIDTH 6 0
BBX 9 12 -1 -2
BITMAP 
0000
0000
0000
0000
0A00
1300
1C00
2200
2400
1800
0000
0000
ENDCHAR
STARTCHAR U+0224
ENCODING 548
SWIDTH 500 0
DWIDTH 6 0
BBX 9 12 -1 -2
BITMAP 
0000
0000
0000
1F00
0200
0400
0800
1000
2000
7C00
0400
1800
ENDCHAR
STARTCHAR U+0225
ENCODING 549
SWIDTH 500 0
DWIDTH 6 0
BBX 9 12 -1 -2
BITMAP 
0000
0000
0000
0000
0000
1F00
0400
0800
3000
5C00
0400
1800
ENDCHAR
STARTCHAR U+0226
ENCODING 550
SWIDTH 500 0
DWIDTH 6 0
BBX 9 12 -1 -2
BITMAP 
0000
0200
0000
0E00
1100
1100
3E00
2200
2200
4400
0000
0000
ENDCHAR
STARTCHAR U+0227
ENCODING 551
SWIDTH 500 0
DWIDTH 6 0
BBX 9 12 -1 -2
BITMAP 
0000
0000
0000
0400
0000
0C00
0200
1E00
2200
1C00
0000
0000
ENDCHAR
STARTCHAR U+0228
ENCODING 552
SWIDTH 500 0
DWIDTH 6 0
BBX 9 12 -1 -2
BITMAP 
0000
0000
0000
1F00
1000
1000
3C00
2000
2000
7C00
0400
1800
ENDCHAR
STARTCHAR U+0229
ENCODING 553
SWIDTH 500 0
DWIDTH 6 0
BBX 9 12 -1 -2
BITMAP 
0000
0000
0000
0000
0000
0C00
1200
3C00
2000
1800
0400
1800
ENDCHAR
STARTCHAR U+022A
ENCODING 554
SWIDTH 500 0
DWIDTH 6 0
BBX 9 12 -1 -2
BITMAP 
0700
0000
0500
0000
0C00
1200
2200
2200
2400
1800
0000
0000
ENDCHAR
STARTCHAR U+022B
ENCODING 555
SWIDTH 500 0
DWIDTH 6 0
BBX 9 12 -1 -2
BITMAP 
0000
0700
0000
0A00
0000
0C00
1200
2200
2400
1800
0000
0000
ENDCHAR
STARTCHAR U+022C
ENCODING 556
SWIDTH 500 0
DWIDTH 6 0
BBX 9 12 -1 -2
BITMAP 
0700
0680
0B00
0000
0C00
1200
2200
2200
2400
1800
0000
0000
ENDCHAR
STARTCHAR U+022D
ENCODING 557
SWIDTH 500 0
DWIDTH 6 0
BBX 9 12 -1 -2
BITMAP 
0700
0000
0E80
1600
0000
0C00
1200
2200
2400
1800
0000
0000
ENDCHAR
STARTCHAR U+022E
ENCODING 558
SWIDTH 500 0
DWIDTH 6 0
BBX 9 12 -1 -2
BITMAP 
0000
0200
0000
0E00
1100
1100
2200
2200
2400
1800
0000
0000
ENDCHAR
STARTCHAR U+022F
ENCODING 559
SWIDTH 500 0
DWIDTH 6 0
BBX 9 12 -1 -2
BITMAP 
0000
0000
0000
0400
0000
0C00
1200
2200
2400
1800
0000
0000
ENDCHAR
STARTCHAR U+0230
ENCODING 560
SWIDTH 500 0
DWIDTH 6 0
BBX 9 12 -1 -2
BITMAP 
0700
0000
0200
0000
0C00
1200
2200
2200
2400
1800
0000
0000
ENDCHAR
STARTCHAR U+0231
ENCODING 561
SWIDTH 500 0
DWIDTH 6 0
BBX 9 12 -1 -2
BITMAP 
0000
0700
0000
0400
0000
0C00
1200
2200
2400
1800
0000
0000
ENDCHAR
STARTCHAR U+0232
ENCODING 562
SWIDTH 500 0
DWIDTH 6 0
BBX 9 12 -1 -2
BITMAP 
0000
0700
0000
1100
1100
0A00
0C00
0800
0800
1000
0000
0000
ENDCHAR
STARTCHAR U+0233
ENCODING 563
SWIDTH 500 0
DWIDTH 6 0
BBX 9 12 -1 -2
BITMAP 
0000
0000
0000
0E00
0000
1100
2200
2200
1400
1800
2000
4000
ENDCHAR
STARTCHAR U+0250
ENCODING 592
SWIDTH 500 0
DWIDTH 6 0
BBX 9 12 -1 -2
BITMAP 
0000
0000
0000
0000
0000
1C00
2200
3C00
2000
1800
0000
0000
ENDCHAR
STARTCHAR U+0251
ENCODING 593
SWIDTH 500 0
DWIDTH 6 0
BBX 9 12 -1 -2
BITMAP 
0000
0000
0000
0000
0000
0D00
1600
2200
2E00
1400
0000
0000
ENDCHAR
STARTCHAR U+0252
ENCODING 594
SWIDTH 500 0
DWIDTH 6 0
BBX 9 12 -1 -2
BITMAP 
0000
0000
0000
0000
0000
1C00
3200
2200
3400
5800
0000
0000
ENDCHAR
STARTCHAR U+0253
ENCODING 595
SWIDTH 500 0
DWIDTH 6 0
BBX 9 12 -1 -2
BITMAP 
0000
0000
0600
0A00
1000
1C00
2200
2200
2400
7800
0000
0000
ENDCHAR
STARTCHAR U+0254
ENCODING 596
SWIDTH 500 0
DWIDTH 6 0
BBX 9 12 -1 -2
BITMAP 
0000
0000
0000
0000
0000
1C00
2200
0200
2400
1800
0000
0000
ENDCHAR
STARTCHAR U+0255
ENCODING 597
SWIDTH 500 0
DWIDTH 6 0
BBX 9 12 -1 -2
BITMAP 
0000
0000
0000
0000
0000
0F00
1000
2400
2E00
3800
1000
0000
ENDCHAR
STARTCHAR U+0256
ENCODING 598
SWIDTH 500 0
DWIDTH 6 0
BBX 9 12 -1 -2
BITMAP 
0000
0000
0000
0200
0200
0E00
1400
2400
2400
1800
0400
0000
ENDCHAR
STARTCHAR U+0257
ENCODING 599
SWIDTH 500 0
DWIDTH 6 0
BBX 9 12 -1 -2
BITMAP 
0000
0000
0080
0100
0200
0E00
1400
2400
2400
1800
0000
0000
ENDCHAR
STARTCHAR U+0258
ENCODING 600
SWIDTH 500 0
DWIDTH 6 0
BBX 9 12 -1 -2
BITMAP 
0000
0000
0000
0000
0000
1C00
2200
1E00
0400
3800
0000
0000
ENDCHAR
STARTCHAR U+0259
ENCODING 601
SWIDTH 500 0
DWIDTH 6 0
BBX 9 12 -1 -2
BITMAP 
0000
0000
0000
0000
0000
0C00
0200
1E00
2400
1800
0000
0000
ENDCHAR
STARTCHAR U+025A
ENCODING 602
SWIDTH 500 0
DWIDTH 6 0
BBX 9 12 -1 -2
BITMAP 
0000
0000
0000
0000
0000
0800
0600
1C00
2800
3000
0000
0000
ENDCHAR
STARTCHAR U+025B
ENCODING 603
SWIDTH 500 0
DWIDTH 6 0
BBX 9 12 -1 -2
BITMAP 
0000
0000
0000
0000
0000
1C00
2200
1800
2600
1800
0000
0000
ENDCHAR
STARTCHAR U+025C
ENCODING 604
SWIDTH 500 0
DWIDTH 6 0
BBX 9 12 -1 -2
BITMAP 
0000
0000
0000
0000
0000
1C00
2200
0C00
2600
1800
0000
0000
ENDCHAR
STARTCHAR U+025D
ENCODING 605
SWIDTH 500 0
DWIDTH 6 0
BBX 9 12 -1 -2
BITMAP 
0000
0000
0000
0000
0000
1900
2400
0800
2C00
1000
0000
0000
ENDCHAR
STARTCHAR U+025E
ENCODING 606
SWIDTH 500 0
DWIDTH 6 0
BBX 9 12 -1 -2
BITMAP 
0000
0000
0000
0000
0000
0C00
1200
2C00
2600
1800
0000
0000
ENDCHAR
STARTCHAR U+025F
ENCODING 607
SWIDTH 500 0
DWIDTH 6 0
BBX 9 12 -1 -2
BITMAP 
0000
0000
0000
0000
0000
0200
0400
0400
0E00
0800
4800
3000
ENDCHAR
STARTCHAR U+0260
ENCODING 608
SWIDTH 500 0
DWIDTH 6 0
BBX 9 12 -1 -2
BITMAP 
0000
0000
0000
0100
0100
0E00
1400
2400
2400
1800
0800
3000
ENDCHAR
STARTCHAR U+0261
ENCODING 609
SWIDTH 500 0
DWIDTH 6 0
BBX 9 12 -1 -2
BITMAP 
0000
0000
0000
0000
0000
0C00
1200
2200
2200
1C00
0400
3800
ENDCHAR
STARTCHAR U+0262
ENCODING 610
SWIDTH 500 0
DWIDTH 6 0
BBX 9 12 -1 -2
BITMAP 
0000
0000
0000
0000
0000
0F00
1000
2600
2400
1800
0000
0000
ENDCHAR
STARTCHAR U+0263
ENCODING 611
SWIDTH 500 0
DWIDTH 6 0
BBX 9 12 -1 -2
BITMAP 
0000
0000
0000
0000
0000
1200
1200
1400
1800
1000
2800
1000
ENDCHAR
STARTCHAR U+0264
ENCODING 612
SWIDTH 500 0
DWIDTH 6 0
BBX 9 12 -1 -2
BITMAP 
0000
0000
0000
0000
0000
1A00
2A00
0800
1400
1800
0000
0000
ENDCHAR
STARTCHAR U+0265
ENCODING 613
SWIDTH 500 0
DWIDTH 6 0
BBX 9 12 -1 -2
BITMAP 
0000
0000
0000
0000
0000
1100
2200
2200
2200
1C00
0400
0400
ENDCHAR
STARTCHAR U+0266
ENCODING 614
SWIDTH 500 0
DWIDTH 6 0
BBX 9 12 -1 -2
BITMAP 
0000
0000
0600
0900
1000
1C00
2200
2200
2200
4400
0000
0000
ENDCHAR
STARTCHAR U+0267
ENCODING 615
SWIDTH 500 0
DWIDTH 6 0
BBX 9 12 -1 -2
BITMAP 
0000
0000
0600
0900
1000
1C00
2200
2200
2200
4400
0400
1800
ENDCHAR
STARTCHAR U+0268
ENCODING 616
SWIDTH 500 0
DWIDTH 6 0
BBX 9 12 -1 -2
BITMAP 
0000
0000
0000
0400
0000
0C00
0800
1C00
0800
3800
0000
0000
ENDCHAR
STARTCHAR U+0269
ENCODING 617
SWIDTH 500 0
DWIDTH 6 0
BBX 9 12 -1 -2
BITMAP 
0000
0000
0000
0000
0000
0800
1000
1000
1400
1800
0000
0000
ENDCHAR
STARTCHAR U+026A
ENCODING 618
SWIDTH 500 0
DWIDTH 6 0
BBX 9 12 -1 -2
BITMAP 
0000
0000
0000
0000
0000
0E00
0800
0800
0800
3800
0000
0000
ENDCHAR
STARTCHAR U+026B
ENCODING 619
SWIDTH 500 0
DWIDTH 6 0
BBX 9 12 -1 -2
BITMAP 
0000
0000
0000
0C00
0400
1D00
2C00
0800
0800
3800
0000
0000
ENDCHAR
STARTCHAR U+026C
ENCODING 620
SWIDTH 500 0
DWIDTH 6 0
BBX 9 12 -1 -2
BITMAP 
0000
0000
0000
0C00
0400
1C00
2800
1C00
0800
3800
0000
0000
ENDCHAR
STARTCHAR U+026D
ENCODING 621
SWIDTH 500 0
DWIDTH 6 0
BBX 9 12 -1 -2
BITMAP 
0000
0000
0000
0C00
0400
0400
0800
0800
0800
1000
1400
0800
ENDCHAR
STARTCHAR U+026E
ENCODING 622
SWIDTH 500 0
DWIDTH 6 0
BBX 9 12 -1 -2
BITMAP 
0000
0000
0000
1800
0800
0F00
1200
1400
1C00
7400
2400
1800
ENDCHAR
STARTCHAR U+026F
ENCODING 623
SWIDTH 500 0
DWIDTH 6 0
BBX 9 12 -1 -2
BITMAP 
0000
0000
0000
0000
0000
1500
2A00
2A00
3A00
2C00
0000
0000
ENDCHAR
STARTCHAR U+0270
ENCODING 624
SWIDTH 500 0
DWIDTH 6 0
BBX 9 12 -1 -2
BITMAP 
0000
0000
0000
0000
0000
1500
2A00
2A00
3A00
2C00
0400
0400
ENDCHAR
STARTCHAR U+0271
ENCODING 625
SWIDTH 500 0
DWIDTH 6 0
BBX 9 12 -1 -2
BITMAP 
0000
0000
0000
0000
0000
1E00
2A00
2A00
2A00
5400
0400
1800
ENDCHAR
STARTCHAR U+0272
ENCODING 626
SWIDTH 500 0
DWIDTH 6 0
BBX 9 12 -1 -2
BITMAP 
0000
0000
0000
0000
0000
0C00
1200
1200
1200
2400
2000
4000
ENDCHAR
STARTCHAR U+0273
ENCODING 627
SWIDTH 500 0
DWIDTH 6 0
BBX 9 12 -1 -2
BITMAP 
0000
0000
0000
0000
0000
1800
2400
2400
2400
4800
0800
0400
ENDCHAR
STARTCHAR U+0274
ENCODING 628
SWIDTH 500 0
DWIDTH 6 0
BBX 9 12 -1 -2
BITMAP 
0000
0000
0000
0000
0000
1100
3200
2A00
2600
4400
0000
0000
ENDCHAR
STARTCHAR U+0275
ENCODING 629
SWIDTH 500 0
DWIDTH 6 0
BBX 9 12 -1 -2
BITMAP 
0000
0000
0000
0000
0000
0C00
1200
3E00
2400
1800
0000
0000
ENDCHAR
STARTCHAR U+0276
ENCODING 630
SWIDTH 500 0
DWIDTH 6 0
BBX 9 12 -1 -2
BITMAP 
0000
0000
0000
0000
0000
0F00
1800
2C00
2800
3C00
0000
0000
ENDCHAR
STARTCHAR U+0277
ENCODING 631
SWIDTH 500 0
DWIDTH 6 0
BBX 9 12 -1 -2
BITMAP 
0000
0000
0000
0000
0000
0C00
1200
2A00
3C00
2800
0000
0000
ENDCHAR
STARTCHAR U+0278
ENCODING 632
SWIDTH 500 0
DWIDTH 6 0
BBX 9 12 -1 -2
BITMAP 
0000
0000
0000
0400
0400
0E00
1A00
2A00
2C00
3800
1000
1000
ENDCHAR
STARTCHAR U+0279
ENCODING 633
SWIDTH 500 0
DWIDTH 6 0
BBX 9 12 -1 -2
BITMAP 
0000
0000
0000
0000
0000
0100
0200
0200
2E00
1400
0000
0000
ENDCHAR
STARTCHAR U+027A
ENCODING 634
SWIDTH 500 0
DWIDTH 6 0
BBX 9 12 -1 -2
BITMAP 
0000
0000
0000
0100
0100
0100
0200
0200
2E00
1400
0000
0000
ENDCHAR
STARTCHAR U+027B
ENCODING 635
SWIDTH 500 0
DWIDTH 6 0
BBX 9 12 -1 -2
BITMAP 
0000
0000
0000
0000
0000
0200
0400
0400
2400
1800
0800
0400
ENDCHAR
STARTCHAR U+027C
ENCODING 636
SWIDTH 500 0
DWIDTH 6 0
BBX 9 12 -1 -2
BITMAP 
0000
0000
0000
0000
0000
1C00
3200
2000
2000
4000
4000
4000
ENDCHAR
STARTCHAR U+027D
ENCODING 637
SWIDTH 500 0
DWIDTH 6 0
BBX 9 12 -1 -2
BITMAP 
0000
0000
0000
0000
0000
1C00
3200
2000
2000
4000
5000
2000
ENDCHAR
STARTCHAR U+027E
ENCODING 638
SWIDTH 500 0
DWIDTH 6 0
BBX 9 12 -1 -2
BITMAP 
0000
0000
0000
0000
0000
0C00
1200
2000
2000
4000
0000
0000
ENDCHAR
STARTCHAR U+027F
ENCODING 639
SWIDTH 500 0
DWIDTH 6 0
BBX 9 12 -1 -2
BITMAP 
0000
0000
0000
0000
0000
1800
2400
0200
0200
0400
0000
0000
ENDCHAR
STARTCHAR U+0280
ENCODING 640
SWIDTH 500 0
DWIDTH 6 0
BBX 9 12 -1 -2
BITMAP 
0000
0000
0000
0000
0000
1C00
2200
3800
2400
4400
0000
0000
ENDCHAR
STARTCHAR U+0281
ENCODING 641
SWIDTH 500 0
DWIDTH 6 0
BBX 9 12 -1 -2
BITMAP 
0000
0000
0000
0000
0000
1100
2200
3C00
2600
7800
0000
0000
ENDCHAR
STARTCHAR U+0282
ENCODING 642
SWIDTH 500 0
DWIDTH 6 0
BBX 9 12 -1 -2
BITMAP 
0000
0000
0000
0000
0000
1F00
2000
1C00
0600
7800
4000
3000
ENDCHAR
STARTCHAR U+0283
ENCODING 643
SWIDTH 500 0
DWIDTH 6 0
BBX 9 12 -1 -2
BITMAP 
0000
0000
0000
0200
0500
0400
0800
0800
0800
5000
2000
0000
ENDCHAR
STARTCHAR U+0284
ENCODING 644
SWIDTH 500 0
DWIDTH 6 0
BBX 9 12 -1 -2
BITMAP 
0000
0000
0000
0200
0500
0400
0800
1C00
0800
5000
2000
0000
ENDCHAR
STARTCHAR U+0285
ENCODING 645
SWIDTH 500 0
DWIDTH 6 0
BBX 9 12 -1 -2
BITMAP 
0000
0000
0000
0000
0800
1800
0800
0800
0A00
0C00
0000
0000
ENDCHAR
STARTCHAR U+0286
ENCODING 646
SWIDTH 500 0
DWIDTH 6 0
BBX 9 12 -1 -2
BITMAP 
0000
0000
0000
0200
0500
0400
0800
0800
3C00
5000
2000
0000
ENDCHAR
STARTCHAR U+0287
ENCODING 647
SWIDTH 500 0
DWIDTH 6 0
BBX 9 12 -1 -2
BITMAP 
0000
0000
0000
0000
0000
1000
0800
0800
0800
7C00
1000
1000
ENDCHAR
STARTCHAR U+0288
ENCODING 648
SWIDTH 500 0
DWIDTH 6 0
BBX 9 12 -1 -2
BITMAP 
0000
0000
0000
0400
0400
1F00
0800
0800
0800
1000
1000
0C00
ENDCHAR
STARTCHAR U+0289
ENCODING 649
SWIDTH 500 0
DWIDTH 6 0
BBX 9 12 -1 -2
BITMAP 
0000
0000
0000
0000
0000
1100
3E00
2200
2E00
1400
0000
0000
ENDCHAR
STARTCHAR U+028A
ENCODING 650
SWIDTH 500 0
DWIDTH 6 0
BBX 9 12 -1 -2
BITMAP 
0000
0000
0000
0000
0000
1B00
1400
2200
2400
1800
0000
0000
ENDCHAR
STARTCHAR U+028B
ENCODING 651
SWIDTH 500 0
DWIDTH 6 0
BBX 9 12 -1 -2
BITMAP 
0000
0000
0000
0000
0000
1200
2200
2200
2C00
3000
0000
0000
ENDCHAR
STARTCHAR U+028C
ENCODING 652
SWIDTH 500 0
DWIDTH 6 0
BBX 9 12 -1 -2
BITMAP 
0000
0000
0000
0000
0000
0400
0C00
1400
2400
4400
0000
0000
ENDCHAR
STARTCHAR U+028D
ENCODING 653
SWIDTH 500 0
DWIDTH 6 0
BBX 9 12 -1 -2
BITMAP 
0000
0000
0000
0000
0000
0E00
1A00
2A00
2200
4400
0000
0000
ENDCHAR
STARTCHAR U+028E
ENCODING 654
SWIDTH 500 0
DWIDTH 6 0
BBX 9 12 -1 -2
BITMAP 
0000
0000
0000
0100
0200
0C00
1400
2200
2200
4400
0000
0000
ENDCHAR
STARTCHAR U+028F
ENCODING 655
SWIDTH 500 0
DWIDTH 6 0
BBX 9 12 -1 -2
BITMAP 
0000
0000
0000
0000
0000
1300
1400
0800
0800
1000
0000
0000
ENDCHAR
STARTCHAR U+0290
ENCODING 656
SWIDTH 500 0
DWIDTH 6 0
BBX 9 12 -1 -2
BITMAP 
0000
0000
0000
0000
0000
1F00
0400
0800
3000
5C00
1000
0C00
ENDCHAR
STARTCHAR U+0291
ENCODING 657
SWIDTH 500 0
DWIDTH 6 0
BBX 9 12 -1 -2
BITMAP 
0000
0000
0000
0000
0000
1F00
0400
0800
3400
5C00
1000
2000
ENDCHAR
STARTCHAR U+0292
ENCODING 658
SWIDTH 500 0
DWIDTH 6 0
BBX 9 12 -1 -2
BITMAP 
0000
0000
0000
0000
0000
1F00
0400
0800
1C00
0400
4400
3800
ENDCHAR
STARTCHAR U+0293
ENCODING 659
SWIDTH 500 0
DWIDTH 6 0
BBX 9 12 -1 -2
BITMAP 
0000
0000
0000
0000
0000
3E00
0800
1800
0400
7800
8800
7400
ENDCHAR
STARTCHAR U+0294
ENCODING 660
SWIDTH 500 0
DWIDTH 6 0
BBX 9 12 -1 -2
BITMAP 
0000
0000
0000
0E00
1100
0200
0C00
0800
0800
1000
0000
0000
ENDCHAR
STARTCHAR U+0295
ENCODING 661
SWIDTH 500 0
DWIDTH 6 0
BBX 9 12 -1 -2
BITMAP 
0000
0000
0000
0E00
1100
1000
0800
0800
0800
1000
0000
0000
ENDCHAR
STARTCHAR U+0296
ENCODING 662
SWIDTH 500 0
DWIDTH 6 0
BBX 9 12 -1 -2
BITMAP 
0000
0000
0000
0400
0400
0400
0C00
0200
2400
1800
0000
0000
ENDCHAR
STARTCHAR U+0297
ENCODING 663
SWIDTH 500 0
DWIDTH 6 0
BBX 9 12 -1 -2
BITMAP 
0000
0000
0000
0E00
1100
1000
2000
2000
2000
4000
4400
3800
ENDCHAR
STARTCHAR U+0298
ENCODING 664
SWIDTH 500 0
DWIDTH 6 0
BBX 9 12 -1 -2
BITMAP 
0000
0000
0000
0000
0000
0C00
1200
2A00
2400
1800
0000
0000
ENDCHAR
STARTCHAR U+0299
ENCODING 665
SWIDTH 500 0
DWIDTH 6 0
BBX 9 12 -1 -2
BITMAP 
0000
0000
0000
0000
0000
1C00
2200
3C00
2600
7800
0000
0000
ENDCHAR
STARTCHAR U+029A
ENCODING 666
SWIDTH 500 0
DWIDTH 6 0
BBX 9 12 -1 -2
BITMAP 
0000
0000
0000
0000
0000
1C00
2200
1A00
2400
1800
0000
0000
ENDCHAR
STARTCHAR U+029B
ENCODING 667
SWIDTH 500 0
DWIDTH 6 0
BBX 9 12 -1 -2
BITMAP 
0000
0000
0000
0100
0200
0F00
1000
2600
2400
1800
0000
0000
ENDCHAR
STARTCHAR U+029C
ENCODING 668
SWIDTH 500 0
DWIDTH 6 0
BBX 9 12 -1 -2
BITMAP 
0000
0000
0000
0000
0000
1100
2200
3E00
2200
4400
0000
0000
ENDCHAR
STARTCHAR U+029D
ENCODING 669
SWIDTH 500 0
DWIDTH 6 0
BBX 9 12 -1 -2
BITMAP 
0000
0000
0000
0200
0000
0600
0400
0400
0400
3C00
4800
3000
ENDCHAR
STARTCHAR U+029E
ENCODING 670
SWIDTH 500 0
DWIDTH 6 0
BBX 9 12 -1 -2
BITMAP 
0000
0000
0000
0000
0000
1100
1200
0E00
3200
4400
0400
0400
ENDCHAR
STARTCHAR U+029F
ENCODING 671
SWIDTH 500 0
DWIDTH 6 0
BBX 9 12 -1 -2
BITMAP 
0000
0000
0000
0000
0000
1000
2000
2000
2000
7C00
0000
0000
ENDCHAR
STARTCHAR U+02A0
ENCODING 672
SWIDTH 500 0
DWIDTH 6 0
BBX 9 12 -1 -2
BITMAP 
0000
0000
0000
0100
0200
0E00
1400
2400
2400
1800
0800
0800
ENDCHAR
STARTCHAR U+02A1
ENCODING 673
SWIDTH 500 0
DWIDTH 6 0
BBX 9 12 -1 -2
BITMAP 
0000
0000
0000
0E00
1100
0200
0C00
0800
1C00
1000
0000
0000
ENDCHAR
STARTCHAR U+02A2
ENCODING 674
SWIDTH 500 0
DWIDTH 6 0
BBX 9 12 -1 -2
BITMAP 
0000
0000
0000
0E00
1100
1000
0800
0800
1C00
1000
0000
0000
ENDCHAR
STARTCHAR U+02A3
ENCODING 675
SWIDTH 500 0
DWIDTH 6 0
BBX 9 12 -1 -2
BITMAP 
0000
0000
0000
0400
0400
0F00
1A00
2C00
2C00
3C00
0000
0000
ENDCHAR
STARTCHAR U+02A4
ENCODING 676
SWIDTH 500 0
DWIDTH 6 0
BBX 9 12 -1 -2
BITMAP 
0000
0000
0000
0400
0400
0F00
1A00
2C00
2C00
3400
0400
1800
ENDCHAR
STARTCHAR U+02A5
ENCODING 677
SWIDTH 500 0
DWIDTH 6 0
BBX 9 12 -1 -2
BITMAP 
0000
0000
0000
0400
0400
0F00
1A00
2C00
2C00
3C00
0800
0000
ENDCHAR
STARTCHAR U+02A6
ENCODING 678
SWIDTH 500 0
DWIDTH 6 0
BBX 9 12 -1 -2
BITMAP 
0000
0000
0000
0800
0800
1F00
1400
1200
1400
1800
0000
0000
ENDCHAR
STARTCHAR U+02A7
ENCODING 679
SWIDTH 500 0
DWIDTH 6 0
BBX 9 12 -1 -2
BITMAP 
0000
0000
0100
1300
1400
3C00
2800
2800
2800
3000
5000
2000
ENDCHAR
STARTCHAR U+02A8
ENCODING 680
SWIDTH 500 0
DWIDTH 6 0
BBX 9 12 -1 -2
BITMAP 
0000
0000
0000
0800
0800
1F00
1400
1400
1C00
1400
0800
0000
ENDCHAR
STARTCHAR U+02A9
ENCODING 681
SWIDTH 500 0
DWIDTH 6 0
BBX 9 12 -1 -2
BITMAP 
0000
0000
0000
0C00
1200
1000
3C00
2A00
2A00
5400
0400
1800
ENDCHAR
STARTCHAR U+02AA
ENCODING 682
SWIDTH 500 0
DWIDTH 6 0
BBX 9 12 -1 -2
BITMAP 
0000
0000
0000
1800
0800
0F00
1800
1400
1600
7800
0000
0000
ENDCHAR
STARTCHAR U+02AB
ENCODING 683
SWIDTH 500 0
DWIDTH 6 0
BBX 9 12 -1 -2
BITMAP 
0000
0000
0000
1800
0800
0F00
1200
1400
1800
7C00
0000
0000
ENDCHAR
STARTCHAR U+02AC
ENCODING 684
SWIDTH 500 0
DWIDTH 6 0
BBX 9 12 -1 -2
BITMAP 
0000
0000
0000
1500
1500
0A00
0000
2A00
3C00
2800
0000
0000
ENDCHAR
STARTCHAR U+02AD
ENCODING 685
SWIDTH 500 0
DWIDTH 6 0
BBX 9 12 -1 -2
BITMAP 
0000
0000
0000
0000
1F00
1100
0000
3E00
2200
0000
0000
0000
ENDCHAR
STARTCHAR U+02B0
ENCODING 688
SWIDTH 500 0
DWIDTH 6 0
BBX 9 12 -1 -2
BITMAP 
0000
0400
0400
0C00
0A00
0A00
0000
0000
0000
0000
0000
0000
ENDCHAR
STARTCHAR U+02B1
ENCODING 689
SWIDTH 500 0
DWIDTH 6 0
BBX 9 12 -1 -2
BITMAP 
0000
0200
0400
0C00
0A00
0A00
0000
0000
0000
0000
0000
0000
ENDCHAR
STARTCHAR U+02B2
ENCODING 690
SWIDTH 500 0
DWIDTH 6 0
BBX 9 12 -1 -2
BITMAP 
0000
0100
0000
0200
0200
0C00
0800
0000
0000
0000
0000
0000
ENDCHAR
STARTCHAR U+02B3
ENCODING 691
SWIDTH 500 0
DWIDTH 6 0
BBX 9 12 -1 -2
BITMAP 
0000
0000
0600
0A00
0800
0800
0000
0000
0000
0000
0000
0000
ENDCHAR
STARTCHAR U+02B4
ENCODING 692
SWIDTH 500 0
DWIDTH 6 0
BBX 9 12 -1 -2
BITMAP 
0000
0000
0100
0200
0A00
0600
0000
0000
0000
0000
0000
0000
ENDCHAR
STARTCHAR U+02B5
ENCODING 693
SWIDTH 500 0
DWIDTH 6 0
BBX 9 12 -1 -2
BITMAP 
0000
0000
0100
0200
0A00
0600
0200
0000
0000
0000
0000
0000
ENDCHAR
STARTCHAR U+02B6
ENCODING 694
SWIDTH 500 0
DWIDTH 6 0
BBX 9 12 -1 -2
BITMAP 
0000
0500
0600
0C00
0A00
0C00
0000
0000
0000
0000
0000
0000
ENDCHAR
STARTCHAR U+02B7
ENCODING 695
SWIDTH 500 0
DWIDTH 6 0
BBX 9 12 -1 -2
BITMAP 
0000
0000
0B00
0D00
0A00
0A00
0000
0000
0000
0000
0000
0000
ENDCHAR
STARTCHAR U+02B8
ENCODING 696
SWIDTH 500 0
DWIDTH 6 0
BBX 9 12 -1 -2
BITMAP 
0000
0000
0500
0600
0200
0600
1800
0000
0000
0000
0000
0000
ENDCHAR
STARTCHAR U+02B9
ENCODING 697
SWIDTH 500 0
DWIDTH 6 0
BBX 9 12 -1 -2
BITMAP 
0000
0100
0200
0200
0400
0000
0000
0000
0000
0000
0000
0000
ENDCHAR
STARTCHAR U+02BA
ENCODING 698
SWIDTH 500 0
DWIDTH 6 0
BBX 9 12 -1 -2
BITMAP 
0000
0480
0880
0900
1200
0000
0000
0000
0000
0000
0000
0000
ENDCHAR
STARTCHAR U+02BB
ENCODING 699
SWIDTH 500 0
DWIDTH 6 0
BBX 9 12 -1 -2
BITMAP 
0000
0000
0100
0200
0600
0000
0000
0000
0000
0000
0000
0000
ENDCHAR
STARTCHAR U+02BC
ENCODING 700
SWIDTH 500 0
DWIDTH 6 0
BBX 9 12 -1 -2
BITMAP 
0000
0000
0300
0200
0400
0000
0000
0000
0000
0000
0000
0000
ENDCHAR
STARTCHAR U+02BD
ENCODING 701
SWIDTH 500 0
DWIDTH 6 0
BBX 9 12 -1 -2
BITMAP 
0000
0000
0300
0400
0200
0000
0000
0000
0000
0000
0000
0000
ENDCHAR
STARTCHAR U+02BE
ENCODING 702
SWIDTH 500 0
DWIDTH 6 0
BBX 9 12 -1 -2
BITMAP 
0000
0000
0200
0200
0200
0400
0000
0000
0000
0000
0000
0000
ENDCHAR
STARTCHAR U+02BF
ENCODING 703
SWIDTH 500 0
DWIDTH 6 0
BBX 9 12 -1 -2
BITMAP 
0000
0000
0200
0400
0800
0400
0000
0000
0000
0000
0000
0000
ENDCHAR
STARTCHAR U+02C0
ENCODING 704
SWIDTH 500 0
DWIDTH 6 0
BBX 9 12 -1 -2
BITMAP 
0000
0200
0600
0200
0400
0400
0000
0000
0000
0000
0000
0000
ENDCHAR
STARTCHAR U+02C1
ENCODING 705
SWIDTH 500 0
DWIDTH 6 0
BBX 9 12 -1 -2
BITMAP 
0000
0200
0500
0400
0400
0400
0000
0000
0000
0000
0000
0000
ENDCHAR
STARTCHAR U+02C2
ENCODING 706
SWIDTH 500 0
DWIDTH 6 0
BBX 9 12 -1 -2
BITMAP 
0000
0100
0600
0800
0400
0200
0000
0000
0000
0000
0000
0000
ENDCHAR
STARTCHAR U+02C3
ENCODING 707
SWIDTH 500 0
DWIDTH 6 0
BBX 9 12 -1 -2
BITMAP 
0000
0400
0200
0200
0400
0800
0000
0000
0000
0000
0000
0000
ENDCHAR
STARTCHAR U+02C4
ENCODING 708
SWIDTH 500 0
DWIDTH 6 0
BBX 9 12 -1 -2
BITMAP 
0000
0000
0200
0600
0A00
0000
0000
0000
0000
0000
0000
0000
ENDCHAR
STARTCHAR U+02C5
ENCODING 709
SWIDTH 500 0
DWIDTH 6 0
BBX 9 12 -1 -2
BITMAP 
0000
0000
0500
0600
0400
0000
0000
0000
0000
0000
0000
0000
ENDCHAR
STARTCHAR U+02C6
ENCODING 710
SWIDTH 500 0
DWIDTH 6 0
BBX 9 12 -1 -2
BITMAP 
0000
0000
0600
0A00
0000
0000
0000
0000
0000
0000
0000
0000
ENDCHAR
STARTCHAR U+02C7
ENCODING 711
SWIDTH 500 0
DWIDTH 6 0
BBX 9 12 -1 -2
BITMAP 
0000
0500
0200
0000
0000
0000
0000
0000
0000
0000
0000
0000
ENDCHAR
STARTCHAR U+02C8
ENCODING 712
SWIDTH 500 0
DWIDTH 6 0
BBX 9 12 -1 -2
BITMAP 
0000
0000
0200
0400
0000
0000
0000
0000
0000
0000
0000
0000
ENDCHAR
STARTCHAR U+02C9
ENCODING 713
SWIDTH 500 0
DWIDTH 6 0
BBX 9 12 -1 -2
BITMAP 
0000
0000
0780
0000
0000
0000
0000
0000
0000
0000
0000
0000
ENDCHAR
STARTCHAR U+02CA
ENCODING 714
SWIDTH 500 0
DWIDTH 6 0
BBX 9 12 -1 -2
BITMAP 
0000
0000
0200
0200
0000
0000
0000
0000
0000
0000
0000
0000
ENDCHAR
STARTCHAR U+02CB
ENCODING 715
SWIDTH 500 0
DWIDTH 6 0
BBX 9 12 -1 -2
BITMAP 
0000
0000
0300
0400
0000
0000
0000
0000
0000
0000
0000
0000
ENDCHAR
STARTCHAR U+02CC
ENCODING 716
SWIDTH 500 0
DWIDTH 6 0
BBX 9 12 -1 -2
BITMAP 
0000
0000
0000
0000
0000
0000
0000
0000
0000
1000
1000
0000
ENDCHAR
STARTCHAR U+02CD
ENCODING 717
SWIDTH 500 0
DWIDTH 6 0
BBX 9 12 -1 -2
BITMAP 
0000
0000
0000
0000
0000
0000
0000
0000
0000
3C00
0000
0000
ENDCHAR
STARTCHAR U+02CE
ENCODING 718
SWIDTH 500 0
DWIDTH 6 0
BBX 9 12 -1 -2
BITMAP 
0000
0000
0000
0000
0000
0000
0000
0000
0000
1000
0800
0000
ENDCHAR
STARTCHAR U+02CF
ENCODING 719
SWIDTH 500 0
DWIDTH 6 0
BBX 9 12 -1 -2
BITMAP 
0000
0000
0000
0000
0000
0000
0000
0000
0000
0800
1000
0000
ENDCHAR
STARTCHAR U+02D0
ENCODING 720
SWIDTH 500 0
DWIDTH 6 0
BBX 9 12 -1 -2
BITMAP 
0000
0000
0000
0000
0000
0E00
0800
0000
0800
3800
0000
0000
ENDCHAR
STARTCHAR U+02D1
ENCODING 721
SWIDTH 500 0
DWIDTH 6 0
BBX 9 12 -1 -2
BITMAP 
0000
0000
0000
0000
0000
0E00
0800
0000
0000
0000
0000
0000
ENDCHAR
STARTCHAR U+02D2
ENCODING 722
SWIDTH 500 0
DWIDTH 6 0
BBX 9 12 -1 -2
BITMAP 
0000
0000
0000
0000
0000
0000
0C00
0200
0400
1800
0000
0000
ENDCHAR
STARTCHAR U+02D3
ENCODING 723
SWIDTH 500 0
DWIDTH 6 0
BBX 9 12 -1 -2
BITMAP 
0000
0000
0000
0000
0000
0000
0C00
1000
1000
0800
0000
0000
ENDCHAR
STARTCHAR U+02D4
ENCODING 724
SWIDTH 500 0
DWIDTH 6 0
BBX 9 12 -1 -2
BITMAP 
0000
0000
0000
0000
0400
0400
3E00
0000
0000
0000
0000
0000
ENDCHAR
STARTCHAR U+02D5
ENCODING 725
SWIDTH 500 0
DWIDTH 6 0
BBX 9 12 -1 -2
BITMAP 
0000
0000
0000
0000
0000
0000
3E00
0800
0800
0000
0000
0000
ENDCHAR
STARTCHAR U+02D6
ENCODING 726
SWIDTH 500 0
DWIDTH 6 0
BBX 9 12 -1 -2
BITMAP 
0000
0000
0000
0000
0400
0400
3E00
0800
0800
0000
0000
0000
ENDCHAR
STARTCHAR U+02D7
ENCODING 727
SWIDTH 500 0
DWIDTH 6 0
BBX 9 12 -1 -2
BITMAP 
0000
0000
0000
0000
0000
0000
2200
3E00
2200
0000
0000
0000
ENDCHAR
STARTCHAR U+02D8
ENCODING 728
SWIDTH 500 0
DWIDTH 6 0
BBX 9 12 -1 -2
BITMAP 
0000
0880
0700
0000
0000
0000
0000
0000
0000
0000
0000
0000
ENDCHAR
STARTCHAR U+02D9
ENCODING 729
SWIDTH 500 0
DWIDTH 6 0
BBX 9 12 -1 -2
BITMAP 
0000
0000
0200
0000
0000
0000
0000
0000
0000
0000
0000
0000
ENDCHAR
STARTCHAR U+02DA
ENCODING 730
SWIDTH 500 0
DWIDTH 6 0
BBX 9 12 -1 -2
BITMAP 
0000
0200
0500
0600
0000
0000
0000
0000
0000
0000
0000
0000
ENDCHAR
STARTCHAR U+02DB
ENCODING 731
SWIDTH 500 0
DWIDTH 6 0
BBX 9 12 -1 -2
BITMAP 
0000
0000
0000
0000
0000
0000
0000
0000
0000
0000
1000
1800
ENDCHAR
STARTCHAR U+02DC
ENCODING 732
SWIDTH 500 0
DWIDTH 6 0
BBX 9 12 -1 -2
BITMAP 
0000
0000
0E80
1600
0000
0000
0000
0000
0000
0000
0000
0000
ENDCHAR
STARTCHAR U+02DD
ENCODING 733
SWIDTH 500 0
DWIDTH 6 0
BBX 9 12 -1 -2
BITMAP 
0000
0480
0900
0000
0000
0000
0000
0000
0000
0000
0000
0000
ENDCHAR
STARTCHAR U+02DE
ENCODING 734
SWIDTH 500 0
DWIDTH 6 0
BBX 9 12 -1 -2
BITMAP 
0000
0000
0000
0000
0000
0400
1A00
2A00
0400
0000
0000
0000
ENDCHAR
STARTCHAR U+02DF
ENCODING 735
SWIDTH 500 0
DWIDTH 6 0
BBX 9 12 -1 -2
BITMAP 
0000
0500
0600
0A00
0000
0000
0000
0000
0000
0000
0000
0000
ENDCHAR
STARTCHAR U+02E0
ENCODING 736
SWIDTH 500 0
DWIDTH 6 0
BBX 9 12 -1 -2
BITMAP 
0000
0000
0500
0600
0400
0A00
0C00
0000
0000
0000
0000
0000
ENDCHAR
STARTCHAR U+02E1
ENCODING 737
SWIDTH 500 0
DWIDTH 6 0
BBX 9 12 -1 -2
BITMAP 
0000
0600
0200
0400
0400
0E00
0000
0000
0000
0000
0000
0000
ENDCHAR
STARTCHAR U+02E2
ENCODING 738
SWIDTH 500 0
DWIDTH 6 0
BBX 9 12 -1 -2
BITMAP 
0000
0000
0300
0C00
0200
0C00
0000
0000
0000
0000
0000
0000
ENDCHAR
STARTCHAR U+02E3
ENCODING 739
SWIDTH 500 0
DWIDTH 6 0
BBX 9 12 -1 -2
BITMAP 
0000
0000
0700
0400
0A00
0000
0000
0000
0000
0000
0000
0000
ENDCHAR
STARTCHAR U+02E4
ENCODING 740
SWIDTH 500 0
DWIDTH 6 0
BBX 9 12 -1 -2
BITMAP 
0000
0300
0400
0C00
0400
0400
0000
0000
0000
0000
0000
0000
ENDCHAR
STARTCHAR U+02E5
ENCODING 741
SWIDTH 500 0
DWIDTH 6 0
BBX 9 12 -1 -2
BITMAP 
0000
0000
0000
0E00
0200
0200
0400
0400
0400
0800
0000
0000
ENDCHAR
STARTCHAR U+02E6
ENCODING 742
SWIDTH 500 0
DWIDTH 6 0
BBX 9 12 -1 -2
BITMAP 
0000
0000
0000
0200
0E00
0200
0400
0400
0400
0800
0000
0000
ENDCHAR
STARTCHAR U+02E7
ENCODING 743
SWIDTH 500 0
DWIDTH 6 0
BBX 9 12 -1 -2
BITMAP 
0000
0000
0000
0200
0200
0200
1C00
0400
0400
0800
0000
0000
ENDCHAR
STARTCHAR U+02E8
ENCODING 744
SWIDTH 500 0
DWIDTH 6 0
BBX 9 12 -1 -2
BITMAP 
0000
0000
0000
0200
0200
0200
0400
0400
1C00
0800
0000
0000
ENDCHAR
STARTCHAR U+02E9
ENCODING 745
SWIDTH 500 0
DWIDTH 6 0
BBX 9 12 -1 -2
BITMAP 
0000
0000
0000
0200
0200
0200
0400
0400
0400
3800
0000
0000
ENDCHAR
STARTCHAR U+02EA
ENCODING 746
SWIDTH 500 0
DWIDTH 6 0
BBX 9 12 -1 -2
BITMAP 
0000
0000
0000
0000
0000
0000
0000
0000
0000
3800
0800
0800
ENDCHAR
STARTCHAR U+02EB
ENCODING 747
SWIDTH 500 0
DWIDTH 6 0
BBX 9 12 -1 -2
BITMAP 
0000
0000
0000
0000
0000
0000
0000
1000
1000
3800
2000
2000
ENDCHAR
STARTCHAR U+02EC
ENCODING 748
SWIDTH 500 0
DWIDTH 6 0
BBX 9 12 -1 -2
BITMAP 
0000
0000
0000
0000
0000
0000
0000
0000
0000
0000
2800
1000
ENDCHAR
STARTCHAR U+02ED
ENCODING 749
SWIDTH 500 0
DWIDTH 6 0
BBX 9 12 -1 -2
BITMAP 
0000
0000
0000
0000
0E00
0000
1C00
0000
0000
0000
0000
0000
ENDCHAR
STARTCHAR U+02EE
ENCODING 750
SWIDTH 500 0
DWIDTH 6 0
BBX 9 12 -1 -2
BITMAP 
0000
0000
0000
1B00
0900
1200
0000
0000
0000
0000
0000
0000
ENDCHAR
STARTCHAR U+0300
ENCODING 768
SWIDTH 500 0
DWIDTH 6 0
BBX 9 12 -1 -2
BITMAP 
0400
0200
0000
0000
0000
0000
0000
0000
0000
0000
0000
0000
ENDCHAR
STARTCHAR U+0301
ENCODING 769
SWIDTH 500 0
DWIDTH 6 0
BBX 9 12 -1 -2
BITMAP 
0100
0200
0000
0000
0000
0000
0000
0000
0000
0000
0000
0000
ENDCHAR
STARTCHAR U+0302
ENCODING 770
SWIDTH 500 0
DWIDTH 6 0
BBX 9 12 -1 -2
BITMAP 
0200
0500
0000
0000
0000
0000
0000
0000
0000
0000
0000
0000
ENDCHAR
STARTCHAR U+0303
ENCODING 771
SWIDTH 500 0
DWIDTH 6 0
BBX 9 12 -1 -2
BITMAP 
0680
0B00
0000
0000
0000
0000
0000
0000
0000
0000
0000
0000
ENDCHAR
STARTCHAR U+0304
ENCODING 772
SWIDTH 500 0
DWIDTH 6 0
BBX 9 12 -1 -2
BITMAP 
0000
0700
0000
0000
0000
0000
0000
0000
0000
0000
0000
0000
ENDCHAR
STARTCHAR U+0305
ENCODING 773
SWIDTH 500 0
DWIDTH 6 0
BBX 9 12 -1 -2
BITMAP 
0000
0F80
0000
0000
0000
0000
0000
0000
0000
0000
0000
0000
ENDCHAR
STARTCHAR U+0306
ENCODING 774
SWIDTH 500 0
DWIDTH 6 0
BBX 9 12 -1 -2
BITMAP 
0880
0700
0000
0000
0000
0000
0000
0000
0000
0000
0000
0000
ENDCHAR
STARTCHAR U+0307
ENCODING 775
SWIDTH 500 0
DWIDTH 6 0
BBX 9 12 -1 -2
BITMAP 
0000
0200
0000
0000
0000
0000
0000
0000
0000
0000
0000
0000
ENDCHAR
STARTCHAR U+0308
ENCODING 776
SWIDTH 500 0
DWIDTH 6 0
BBX 9 12 -1 -2
BITMAP 
0000
0500
0000
0000
0000
0000
0000
0000
0000
0000
0000
0000
ENDCHAR
STARTCHAR U+0309
ENCODING 777
SWIDTH 500 0
DWIDTH 6 0
BBX 9 12 -1 -2
BITMAP 
0600
0100
0200
0000
0000
0000
0000
0000
0000
0000
0000
0000
ENDCHAR
STARTCHAR U+030A
ENCODING 778
SWIDTH 500 0
DWIDTH 6 0
BBX 9 12 -1 -2
BITMAP 
0200
0500
0200
0000
0000
0000
0000
0000
0000
0000
0000
0000
ENDCHAR
STARTCHAR U+030B
ENCODING 779
SWIDTH 500 0
DWIDTH 6 0
BBX 9 12 -1 -2
BITMAP 
0480
0900
0000
0000
0000
0000
0000
0000
0000
0000
0000
0000
ENDCHAR
STARTCHAR U+030C
ENCODING 780
SWIDTH 500 0
DWIDTH 6 0
BBX 9 12 -1 -2
BITMAP 
0500
0200
0000
0000
0000
0000
0000
0000
0000
0000
0000
0000
ENDCHAR
STARTCHAR U+030D
ENCODING 781
SWIDTH 500 0
DWIDTH 6 0
BBX 9 12 -1 -2
BITMAP 
0200
0200
0000
0000
0000
0000
0000
0000
0000
0000
0000
0000
ENDCHAR
STARTCHAR U+030E
ENCODING 782
SWIDTH 500 0
DWIDTH 6 0
BBX 9 12 -1 -2
BITMAP 
0500
0500
0000
0000
0000
0000
0000
0000
0000
0000
0000
0000
ENDCHAR
STARTCHAR U+030F
ENCODING 783
SWIDTH 500 0
DWIDTH 6 0
BBX 9 12 -1 -2
BITMAP 
0900
0480
0000
0000
0000
0000
0000
0000
0000
0000
0000
0000
ENDCHAR
STARTCHAR U+0310
ENCODING 784
SWIDTH 500 0
DWIDTH 6 0
BBX 9 12 -1 -2
BITMAP 
0200
0880
0700
0000
0000
0000
0000
0000
0000
0000
0000
0000
ENDCHAR
STARTCHAR U+0311
ENCODING 785
SWIDTH 500 0
DWIDTH 6 0
BBX 9 12 -1 -2
BITMAP 
0700
0880
0000
0000
0000
0000
0000
0000
0000
0000
0000
0000
ENDCHAR
STARTCHAR U+0318
ENCODING 792
SWIDTH 500 0
DWIDTH 6 0
BBX 9 12 -1 -2
BITMAP 
0000
0000
0000
0000
0000
0000
0000
0800
0800
3000
1000
1000
ENDCHAR
STARTCHAR U+0319
ENCODING 793
SWIDTH 500 0
DWIDTH 6 0
BBX 9 12 -1 -2
BITMAP 
0000
0000
0000
0000
0000
0000
0000
0800
0800
1800
1000
1000
ENDCHAR
STARTCHAR U+031A
ENCODING 794
SWIDTH 500 0
DWIDTH 6 0
BBX 9 12 -1 -2
BITMAP 
0000
0300
0100
0200
0000
0000
0000
0000
0000
0000
0000
0000
ENDCHAR
STARTCHAR U+031C
ENCODING 796
SWIDTH 500 0
DWIDTH 6 0
BBX 9 12 -1 -2
BITMAP 
0000
0000
0000
0000
0000
0000
0000
0000
0000
1000
2000
1000
ENDCHAR
STARTCHAR U+031D
ENCODING 797
SWIDTH 500 0
DWIDTH 6 0
BBX 9 12 -1 -2
BITMAP 
0000
0000
0000
0000
0000
0000
0000
0800
0800
3800
0000
0000
ENDCHAR
STARTCHAR U+031E
ENCODING 798
SWIDTH 500 0
DWIDTH 6 0
BBX 9 12 -1 -2
BITMAP 
0000
0000
0000
0000
0000
0000
0000
0000
0000
3800
1000
1000
ENDCHAR
STARTCHAR U+031F
ENCODING 799
SWIDTH 500 0
DWIDTH 6 0
BBX 9 12 -1 -2
BITMAP 
0000
0000
0000
0000
0000
0000
0000
0000
0000
1000
3800
1000
ENDCHAR
STARTCHAR U+0320
ENCODING 800
SWIDTH 500 0
DWIDTH 6 0
BBX 9 12 -1 -2
BITMAP 
0000
0000
0000
0000
0000
0000
0000
0000
0000
0000
3800
0000
ENDCHAR
STARTCHAR U+0323
ENCODING 803
SWIDTH 500 0
DWIDTH 6 0
BBX 9 12 -1 -2
BITMAP 
0000
0000
0000
0000
0000
0000
0000
0000
0000
0000
0000
1000
ENDCHAR
STARTCHAR U+0324
ENCODING 804
SWIDTH 500 0
DWIDTH 6 0
BBX 9 12 -1 -2
BITMAP 
0000
0000
0000
0000
0000
0000
0000
0000
0000
0000
0000
2800
ENDCHAR
STARTCHAR U+0325
ENCODING 805
SWIDTH 500 0
DWIDTH 6 0
BBX 9 12 -1 -2
BITMAP 
0000
0000
0000
0000
0000
0000
0000
0000
1800
3000
3000
3000
ENDCHAR
STARTCHAR U+0329
ENCODING 809
SWIDTH 500 0
DWIDTH 6 0
BBX 9 12 -1 -2
BITMAP 
0000
0000
0000
0000
0000
0000
0000
0000
0000
1000
1000
1000
ENDCHAR
STARTCHAR U+032A
ENCODING 810
SWIDTH 500 0
DWIDTH 6 0
BBX 9 12 -1 -2
BITMAP 
0000
0000
0000
0000
0000
0000
0000
0000
0000
3800
2800
2800
ENDCHAR
STARTCHAR U+032C
ENCODING 812
SWIDTH 500 0
DWIDTH 6 0
BBX 9 12 -1 -2
BITMAP 
0000
0000
0000
0000
0000
0000
0000
0000
0000
2800
2800
3000
ENDCHAR
STARTCHAR U+032F
ENCODING 815
SWIDTH 500 0
DWIDTH 6 0
BBX 9 12 -1 -2
BITMAP 
0000
0000
0000
0000
0000
0000
0000
0000
0000
3000
2800
2800
ENDCHAR
STARTCHAR U+0330
ENCODING 816
SWIDTH 500 0
DWIDTH 6 0
BBX 9 12 -1 -2
BITMAP 
0000
0000
0000
0000
0000
0000
0000
0000
0000
0000
2800
5000
ENDCHAR
STARTCHAR U+0331
ENCODING 817
SWIDTH 500 0
DWIDTH 6 0
BBX 9 12 -1 -2
BITMAP 
0000
0000
0000
0000
0000
0000
0000
0000
0000
0000
0000
7C00
ENDCHAR
STARTCHAR U+0332
ENCODING 818
SWIDTH 500 0
DWIDTH 6 0
BBX 9 12 -1 -2
BITMAP 
0000
0000
0000
0000
0000
0000
0000
0000
0000
0000
0000
FC00
ENDCHAR
STARTCHAR U+0334
ENCODING 820
SWIDTH 500 0
DWIDTH 6 0
BBX 9 12 -1 -2
BITMAP 
0000
0000
0000
0000
0000
0000
1400
2800
0000
0000
0000
0000
ENDCHAR
STARTCHAR U+0339
ENCODING 825
SWIDTH 500 0
DWIDTH 6 0
BBX 9 12 -1 -2
BITMAP 
0000
0000
0000
0000
0000
0000
0000
0000
0000
1000
0800
1000
ENDCHAR
STARTCHAR U+033A
ENCODING 826
SWIDTH 500 0
DWIDTH 6 0
BBX 9 12 -1 -2
BITMAP 
0000
0000
0000
0000
0000
0000
0000
0000
0000
2800
2800
3800
ENDCHAR
STARTCHAR U+033B
ENCODING 827
SWIDTH 500 0
DWIDTH 6 0
BBX 9 12 -1 -2
BITMAP 
0000
0000
0000
0000
0000
0000
0000
0000
1C00
2800
2800
3800
ENDCHAR
STARTCHAR U+033C
ENCODING 828
SWIDTH 500 0
DWIDTH 6 0
BBX 9 12 -1 -2
BITMAP 
0000
0000
0000
0000
0000
0000
0000
0000
0000
0000
3800
5800
ENDCHAR
STARTCHAR U+033D
ENCODING 829
SWIDTH 500 0
DWIDTH 6 0
BBX 9 12 -1 -2
BITMAP 
0000
0700
0200
0E00
0000
0000
0000
0000
0000
0000
0000
0000
ENDCHAR
STARTCHAR U+0340
ENCODING 832
SWIDTH 500 0
DWIDTH 6 0
BBX 9 12 -1 -2
BITMAP 
0400
0200
0000
0000
0000
0000
0000
0000
0000
0000
0000
0000
ENDCHAR
STARTCHAR U+0341
ENCODING 833
SWIDTH 500 0
DWIDTH 6 0
BBX 9 12 -1 -2
BITMAP 
0100
0200
0000
0000
0000
0000
0000
0000
0000
0000
0000
0000
ENDCHAR
STARTCHAR U+0361
ENCODING 865
SWIDTH 500 0
DWIDTH 6 0
BBX 9 12 -1 -2
BITMAP 
0000
0700
0900
1100
0000
0000
0000
0000
0000
0000
0000
0000
ENDCHAR
STARTCHAR U+0374
ENCODING 884
SWIDTH 500 0
DWIDTH 6 0
BBX 9 12 -1 -2
BITMAP 
0000
0100
0200
0000
0000
0000
0000
0000
0000
0000
0000
0000
ENDCHAR
STARTCHAR U+0375
ENCODING 885
SWIDTH 500 0
DWIDTH 6 0
BBX 9 12 -1 -2
BITMAP 
0000
0000
0000
0000
0000
0000
0000
0000
0000
0000
0800
1000
ENDCHAR
STARTCHAR U+037A
ENCODING 890
SWIDTH 500 0
DWIDTH 6 0
BBX 9 12 -1 -2
BITMAP 
0000
0000
0000
0000
0000
0000
0000
0000
0000
0000
1000
1800
ENDCHAR
STARTCHAR U+037E
ENCODING 894
SWIDTH 500 0
DWIDTH 6 0
BBX 9 12 -1 -2
BITMAP 
0000
0000
0000
0000
0000
0C00
1800
0000
1800
3000
6000
0000
ENDCHAR
STARTCHAR U+0384
ENCODING 900
SWIDTH 500 0
DWIDTH 6 0
BBX 9 12 -1 -2
BITMAP 
0000
0100
0200
0000
0000
0000
0000
0000
0000
0000
0000
0000
ENDCHAR
STARTCHAR U+0385
ENCODING 901
SWIDTH 500 0
DWIDTH 6 0
BBX 9 12 -1 -2
BITMAP 
0100
0200
0000
0A00
0000
0000
0000
0000
0000
0000
0000
0000
ENDCHAR
STARTCHAR U+0386
ENCODING 902
SWIDTH 500 0
DWIDTH 6 0
BBX 9 12 -1 -2
BITMAP 
0100
0200
0000
0E00
1100
1100
3E00
2200
2200
4400
0000
0000
ENDCHAR
STARTCHAR U+0387
ENCODING 903
SWIDTH 500 0
DWIDTH 6 0
BBX 9 12 -1 -2
BITMAP 
0000
0000
0000
0000
0000
0600
0C00
0000
0000
0000
0000
0000
ENDCHAR
STARTCHAR U+0388
ENCODING 904
SWIDTH 500 0
DWIDTH 6 0
BBX 9 12 -1 -2
BITMAP 
0100
0200
0000
1F00
1000
1000
3C00
2000
2000
7C00
0000
0000
ENDCHAR
STARTCHAR U+0389
ENCODING 905
SWIDTH 500 0
DWIDTH 6 0
BBX 9 12 -1 -2
BITMAP 
0100
0200
0000
1100
1100
1100
3E00
2200
2200
4400
0000
0000
ENDCHAR
STARTCHAR U+038A
ENCODING 906
SWIDTH 500 0
DWIDTH 6 0
BBX 9 12 -1 -2
BITMAP 
0100
0200
0000
0E00
0400
0400
0800
0800
0800
3800
0000
0000
ENDCHAR
STARTCHAR U+038C
ENCODING 908
SWIDTH 500 0
DWIDTH 6 0
BBX 9 12 -1 -2
BITMAP 
0100
0200
0000
0E00
1100
1100
2200
2200
2400
1800
0000
0000
ENDCHAR
STARTCHAR U+038E
ENCODING 910
SWIDTH 500 0
DWIDTH 6 0
BBX 9 12 -1 -2
BITMAP 
0100
0200
0000
1100
1100
0A00
0C00
0800
0800
1000
0000
0000
ENDCHAR
STARTCHAR U+038F
ENCODING 911
SWIDTH 500 0
DWIDTH 6 0
BBX 9 12 -1 -2
BITMAP 
0100
0200
0000
0E00
1100
1100
2200
2200
1400
6C00
0000
0000
ENDCHAR
STARTCHAR U+0390
ENCODING 912
SWIDTH 500 0
DWIDTH 6 0
BBX 9 12 -1 -2
BITMAP 
0100
0200
0000
0A00
0000
0400
0800
0800
0A00
0C00
0000
0000
ENDCHAR
STARTCHAR U+0391
ENCODING 913
SWIDTH 500 0
DWIDTH 6 0
BBX 9 12 -1 -2
BITMAP 
0000
0000
0000
0E00
1100
1100
3E00
2200
2200
4400
0000
0000
ENDCHAR
STARTCHAR U+0392
ENCODING 914
SWIDTH 500 0
DWIDTH 6 0
BBX 9 12 -1 -2
BITMAP 
0000
0000
0000
1E00
1100
1200
3C00
2200
2400
7800
0000
0000
ENDCHAR
STARTCHAR U+0393
ENCODING 915
SWIDTH 500 0
DWIDTH 6 0
BBX 9 12 -1 -2
BITMAP 
0000
0000
0000
1F00
1000
1000
2000
2000
2000
4000
0000
0000
ENDCHAR
STARTCHAR U+0394
ENCODING 916
SWIDTH 500 0
DWIDTH 6 0
BBX 9 12 -1 -2
BITMAP 
0000
0000
0000
0400
0400
0C00
1400
2200
2200
7C00
0000
0000
ENDCHAR
STARTCHAR U+0395
ENCODING 917
SWIDTH 500 0
DWIDTH 6 0
BBX 9 12 -1 -2
BITMAP 
0000
0000
0000
1F00
1000
1000
3C00
2000
2000
7C00
0000
0000
ENDCHAR
STARTCHAR U+0396
ENCODING 918
SWIDTH 500 0
DWIDTH 6 0
BBX 9 12 -1 -2
BITMAP 
0000
0000
0000
1F00
0200
0400
0800
1000
2000
7C00
0000
0000
ENDCHAR
STARTCHAR U+0397
ENCODING 919
SWIDTH 500 0
DWIDTH 6 0
BBX 9 12 -1 -2
BITMAP 
0000
0000
0000
1100
1100
1100
3E00
2200
2200
4400
0000
0000
ENDCHAR
STARTCHAR U+0398
ENCODING 920
SWIDTH 500 0
DWIDTH 6 0
BBX 9 12 -1 -2
BITMAP 
0000
0000
0000
0E00
1100
1100
3E00
2200
2400
1800
0000
0000
ENDCHAR
STARTCHAR U+0399
ENCODING 921
SWIDTH 500 0
DWIDTH 6 0
BBX 9 12 -1 -2
BITMAP 
0000
0000
0000
0E00
0400
0400
0800
0800
0800
3800
0000
0000
ENDCHAR
STARTCHAR U+039A
ENCODING 922
SWIDTH 500 0
DWIDTH 6 0
BBX 9 12 -1 -2
BITMAP 
0000
0000
0000
1100
1200
1C00
3000
2800
2400
4400
0000
0000
ENDCHAR
STARTCHAR U+039B
ENCODING 923
SWIDTH 500 0
DWIDTH 6 0
BBX 9 12 -1 -2
BITMAP 
0000
0000
0000
0400
0400
0C00
1400
2200
2200
4400
0000
0000
ENDCHAR
STARTCHAR U+039C
ENCODING 924
SWIDTH 500 0
DWIDTH 6 0
BBX 9 12 -1 -2
BITMAP 
0000
0000
0000
1100
1B00
1500
2200
2200
2200
4400
0000
0000
ENDCHAR
STARTCHAR U+039D
ENCODING 925
SWIDTH 500 0
DWIDTH 6 0
BBX 9 12 -1 -2
BITMAP 
0000
0000
0000
1100
1100
1900
2A00
2600
2200
4400
0000
0000
ENDCHAR
STARTCHAR U+039E
ENCODING 926
SWIDTH 500 0
DWIDTH 6 0
BBX 9 12 -1 -2
BITMAP 
0000
0000
0000
1F00
0000
0000
1C00
0000
0000
7C00
0000
0000
ENDCHAR
STARTCHAR U+039F
ENCODING 927
SWIDTH 500 0
DWIDTH 6 0
BBX 9 12 -1 -2
BITMAP 
0000
0000
0000
0E00
1100
1100
2200
2200
2400
1800
0000
0000
ENDCHAR
STARTCHAR U+03A0
ENCODING 928
SWIDTH 500 0
DWIDTH 6 0
BBX 9 12 -1 -2
BITMAP 
0000
0000
0000
1F00
1100
1100
2200
2200
2200
4400
0000
0000
ENDCHAR
STARTCHAR U+03A1
ENCODING 929
SWIDTH 500 0
DWIDTH 6 0
BBX 9 12 -1 -2
BITMAP 
0000
0000
0000
1E00
1100
1200
3C00
2000
2000
4000
0000
0000
ENDCHAR
STARTCHAR U+03A3
ENCODING 931
SWIDTH 500 0
DWIDTH 6 0
BBX 9 12 -1 -2
BITMAP 
0000
0000
0000
1F00
0800
0400
0400
0800
3000
5C00
0000
0000
ENDCHAR
STARTCHAR U+03A4
ENCODING 932
SWIDTH 500 0
DWIDTH 6 0
BBX 9 12 -1 -2
BITMAP 
0000
0000
0000
1F00
0400
0400
0800
0800
0800
1000
0000
0000
ENDCHAR
STARTCHAR U+03A5
ENCODING 933
SWIDTH 500 0
DWIDTH 6 0
BBX 9 12 -1 -2
BITMAP 
0000
0000
0000
1100
1100
0A00
0C00
0800
0800
1000
0000
0000
ENDCHAR
STARTCHAR U+03A6
ENCODING 934
SWIDTH 500 0
DWIDTH 6 0
BBX 9 12 -1 -2
BITMAP 
0000
0000
0000
0400
0E00
1600
2A00
2A00
1C00
1000
0000
0000
ENDCHAR
STARTCHAR U+03A7
ENCODING 935
SWIDTH 500 0
DWIDTH 6 0
BBX 9 12 -1 -2
BITMAP 
0000
0000
0000
1100
1100
0A00
0C00
1400
2400
4400
0000
0000
ENDCHAR
STARTCHAR U+03A8
ENCODING 936
SWIDTH 500 0
DWIDTH 6 0
BBX 9 12 -1 -2
BITMAP 
0000
0000
0000
1500
1500
1500
1A00
0C00
0800
1000
0000
0000
ENDCHAR
STARTCHAR U+03A9
ENCODING 937
SWIDTH 500 0
DWIDTH 6 0
BBX 9 12 -1 -2
BITMAP 
0000
0000
0000
0E00
1100
1100
2200
2200
1400
6C00
0000
0000
ENDCHAR
STARTCHAR U+03AA
ENCODING 938
SWIDTH 500 0
DWIDTH 6 0
BBX 9 12 -1 -2
BITMAP 
0000
0500
0000
0E00
0400
0400
0800
0800
0800
3800
0000
0000
ENDCHAR
STARTCHAR U+03AB
ENCODING 939
SWIDTH 500 0
DWIDTH 6 0
BBX 9 12 -1 -2
BITMAP 
0000
0500
0000
1100
1100
0A00
0C00
0800
0800
1000
0000
0000
ENDCHAR
STARTCHAR U+03AC
ENCODING 940
SWIDTH 500 0
DWIDTH 6 0
BBX 9 12 -1 -2
BITMAP 
0000
0000
0300
0400
0000
0D00
1600
2200
2E00
1400
0000
0000
ENDCHAR
STARTCHAR U+03AD
ENCODING 941
SWIDTH 500 0
DWIDTH 6 0
BBX 9 12 -1 -2
BITMAP 
0000
0000
0300
0400
0000
1C00
2200
1800
2600
1800
0000
0000
ENDCHAR
STARTCHAR U+03AE
ENCODING 942
SWIDTH 500 0
DWIDTH 6 0
BBX 9 12 -1 -2
BITMAP 
0000
0000
0300
0400
0000
1C00
3200
2200
2200
4400
0400
0400
ENDCHAR
STARTCHAR U+03AF
ENCODING 943
SWIDTH 500 0
DWIDTH 6 0
BBX 9 12 -1 -2
BITMAP 
0000
0000
0600
0800
0000
0800
1000
1000
1400
1800
0000
0000
ENDCHAR
STARTCHAR U+03B0
ENCODING 944
SWIDTH 500 0
DWIDTH 6 0
BBX 9 12 -1 -2
BITMAP 
0100
0200
0000
0A00
0000
1100
2200
2200
2400
1800
0000
0000
ENDCHAR
STARTCHAR U+03B1
ENCODING 945
SWIDTH 500 0
DWIDTH 6 0
BBX 9 12 -1 -2
BITMAP 
0000
0000
0000
0000
0000
0D00
1600
2200
2E00
1400
0000
0000
ENDCHAR
STARTCHAR U+03B2
ENCODING 946
SWIDTH 500 0
DWIDTH 6 0
BBX 9 12 -1 -2
BITMAP 
0000
0000
0000
0C00
1200
1C00
3600
2200
2400
7800
4000
4000
ENDCHAR
STARTCHAR U+03B3
ENCODING 947
SWIDTH 500 0
DWIDTH 6 0
BBX 9 12 -1 -2
BITMAP 
0000
0000
0000
0000
0000
1200
1200
1400
1800
0800
1000
1000
ENDCHAR
STARTCHAR U+03B4
ENCODING 948
SWIDTH 500 0
DWIDTH 6 0
BBX 9 12 -1 -2
BITMAP 
0000
0000
0000
0E00
1000
0C00
1200
2200
2400
1800
0000
0000
ENDCHAR
STARTCHAR U+03B5
ENCODING 949
SWIDTH 500 0
DWIDTH 6 0
BBX 9 12 -1 -2
BITMAP 
0000
0000
0000
0000
0000
1C00
2200
1800
2600
1800
0000
0000
ENDCHAR
STARTCHAR U+03B6
ENCODING 950
SWIDTH 500 0
DWIDTH 6 0
BBX 9 12 -1 -2
BITMAP 
0000
0000
0000
1F00
0400
0800
1000
1000
0800
0400
1800
0000
ENDCHAR
STARTCHAR U+03B7
ENCODING 951
SWIDTH 500 0
DWIDTH 6 0
BBX 9 12 -1 -2
BITMAP 
0000
0000
0000
0000
0000
1C00
3200
2200
2200
4400
0400
0400
ENDCHAR
STARTCHAR U+03B8
ENCODING 952
SWIDTH 500 0
DWIDTH 6 0
BBX 9 12 -1 -2
BITMAP 
0000
0000
0000
0600
0900
0900
1E00
1200
1400
1800
0000
0000
ENDCHAR
STARTCHAR U+03B9
ENCODING 953
SWIDTH 500 0
DWIDTH 6 0
BBX 9 12 -1 -2
BITMAP 
0000
0000
0000
0000
0000
0800
1000
1000
1400
1800
0000
0000
ENDCHAR
STARTCHAR U+03BA
ENCODING 954
SWIDTH 500 0
DWIDTH 6 0
BBX 9 12 -1 -2
BITMAP 
0000
0000
0000
0000
0000
0B00
1400
1800
1400
2400
0000
0000
ENDCHAR
STARTCHAR U+03BB
ENCODING 955
SWIDTH 500 0
DWIDTH 6 0
BBX 9 12 -1 -2
BITMAP 
0000
0000
0000
0E00
1100
0100
1A00
2600
2200
4400
0000
0000
ENDCHAR
STARTCHAR U+03BC
ENCODING 956
SWIDTH 500 0
DWIDTH 6 0
BBX 9 12 -1 -2
BITMAP 
0000
0000
0000
0000
0000
1100
2200
2200
2E00
7400
4000
4000
ENDCHAR
STARTCHAR U+03BD
ENCODING 957
SWIDTH 500 0
DWIDTH 6 0
BBX 9 12 -1 -2
BITMAP 
0000
0000
0000
0000
0000
1200
1200
1400
1800
1000
0000
0000
ENDCHAR
STARTCHAR U+03BE
ENCODING 958
SWIDTH 500 0
DWIDTH 6 0
BBX 9 12 -1 -2
BITMAP 
0000
0000
0000
1F00
0400
0800
1C00
2000
2000
1800
0400
0800
ENDCHAR
STARTCHAR U+03BF
ENCODING 959
SWIDTH 500 0
DWIDTH 6 0
BBX 9 12 -1 -2
BITMAP 
0000
0000
0000
0000
0000
0C00
1200
2200
2400
1800
0000
0000
ENDCHAR
STARTCHAR U+03C0
ENCODING 960
SWIDTH 500 0
DWIDTH 6 0
BBX 9 12 -1 -2
BITMAP 
0000
0000
0000
0000
0000
1F00
1400
1400
1400
2800
0000
0000
ENDCHAR
STARTCHAR U+03C1
ENCODING 961
SWIDTH 500 0
DWIDTH 6 0
BBX 9 12 -1 -2
BITMAP 
0000
0000
0000
0000
0000
0C00
1200
2200
3400
5800
4000
4000
ENDCHAR
STARTCHAR U+03C2
ENCODING 962
SWIDTH 500 0
DWIDTH 6 0
BBX 9 12 -1 -2
BITMAP 
0000
0000
0000
0000
0000
0C00
1200
2000
2000
1800
0400
1800
ENDCHAR
STARTCHAR U+03C3
ENCODING 963
SWIDTH 500 0
DWIDTH 6 0
BBX 9 12 -1 -2
BITMAP 
0000
0000
0000
0000
0000
0F00
1400
2200
2400
1800
0000
0000
ENDCHAR
STARTCHAR U+03C4
ENCODING 964
SWIDTH 500 0
DWIDTH 6 0
BBX 9 12 -1 -2
BITMAP 
0000
0000
0000
0000
0000
1F00
0800
0800
0A00
0C00
0000
0000
ENDCHAR
STARTCHAR U+03C5
ENCODING 965
SWIDTH 500 0
DWIDTH 6 0
BBX 9 12 -1 -2
BITMAP 
0000
0000
0000
0000
0000
1100
2200
2200
2400
1800
0000
0000
ENDCHAR
STARTCHAR U+03C6
ENCODING 966
SWIDTH 500 0
DWIDTH 6 0
BBX 9 12 -1 -2
BITMAP 
0000
0000
0000
0000
0000
0200
2600
2A00
2C00
3800
1000
1000
ENDCHAR
STARTCHAR U+03C7
ENCODING 967
SWIDTH 500 0
DWIDTH 6 0
BBX 9 12 -1 -2
BITMAP 
0000
0000
0000
0000
0000
1100
1200
1400
1800
2800
4400
4400
ENDCHAR
STARTCHAR U+03C8
ENCODING 968
SWIDTH 500 0
DWIDTH 6 0
BBX 9 12 -1 -2
BITMAP 
0000
0000
0000
0000
0000
1500
2A00
2A00
2C00
3800
1000
1000
ENDCHAR
STARTCHAR U+03C9
ENCODING 969
SWIDTH 500 0
DWIDTH 6 0
BBX 9 12 -1 -2
BITMAP 
0000
0000
0000
0000
0000
0A00
1200
2A00
3C00
2800
0000
0000
ENDCHAR
STARTCHAR U+03CA
ENCODING 970
SWIDTH 500 0
DWIDTH 6 0
BBX 9 12 -1 -2
BITMAP 
0000
0000
0000
0A00
0000
0400
0800
0800
0A00
0C00
0000
0000
ENDCHAR
STARTCHAR U+03CB
ENCODING 971
SWIDTH 500 0
DWIDTH 6 0
BBX 9 12 -1 -2
BITMAP 
0000
0000
0000
0A00
0000
1100
2200
2200
2400
1800
0000
0000
ENDCHAR
STARTCHAR U+03CC
ENCODING 972
SWIDTH 500 0
DWIDTH 6 0
BBX 9 12 -1 -2
BITMAP 
0000
0000
0300
0400
0000
0C00
1200
2200
2400
1800
0000
0000
ENDCHAR
STARTCHAR U+03CD
ENCODING 973
SWIDTH 500 0
DWIDTH 6 0
BBX 9 12 -1 -2
BITMAP 
0000
0000
0300
0400
0000
1100
2200
2200
2400
1800
0000
0000
ENDCHAR
STARTCHAR U+03CE
ENCODING 974
SWIDTH 500 0
DWIDTH 6 0
BBX 9 12 -1 -2
BITMAP 
0000
0000
0300
0400
0000
0A00
1200
2A00
3C00
2800
0000
0000
ENDCHAR
STARTCHAR U+03D0
ENCODING 976
SWIDTH 500 0
DWIDTH 6 0
BBX 9 12 -1 -2
BITMAP 
0000
0000
0000
0C00
1200
1400
2E00
3200
2400
1800
0000
0000
ENDCHAR
STARTCHAR U+03D1
ENCODING 977
SWIDTH 500 0
DWIDTH 6 0
BBX 9 12 -1 -2
BITMAP 
0000
0000
0000
0C00
1200
0F00
0400
6400
2800
3000
0000
0000
ENDCHAR
STARTCHAR U+03D2
ENCODING 978
SWIDTH 500 0
DWIDTH 6 0
BBX 9 12 -1 -2
BITMAP 
0000
0000
0000
2200
1500
1800
1000
1000
1000
2000
0000
0000
ENDCHAR
STARTCHAR U+03D3
ENCODING 979
SWIDTH 500 0
DWIDTH 6 0
BBX 9 12 -1 -2
BITMAP 
0000
0000
0000
1A00
0500
3400
4800
0800
0800
1000
0000
0000
ENDCHAR
STARTCHAR U+03D4
ENCODING 980
SWIDTH 500 0
DWIDTH 6 0
BBX 9 12 -1 -2
BITMAP 
0000
1B00
0000
2200
1500
1800
1000
1000
1000
2000
0000
0000
ENDCHAR
STARTCHAR U+03D5
ENCODING 981
SWIDTH 500 0
DWIDTH 6 0
BBX 9 12 -1 -2
BITMAP 
0000
0000
0000
0400
0400
0E00
1A00
2A00
2C00
3800
1000
1000
ENDCHAR
STARTCHAR U+03D6
ENCODING 982
SWIDTH 500 0
DWIDTH 6 0
BBX 9 12 -1 -2
BITMAP 
0000
0000
0000
0000
0000
1F00
2200
2A00
3C00
2800
0000
0000
ENDCHAR
STARTCHAR U+03D7
ENCODING 983
SWIDTH 500 0
DWIDTH 6 0
BBX 9 12 -1 -2
BITMAP 
0000
0000
0300
0400
0000
1200
1200
1C00
2400
4400
0400
1800
ENDCHAR
STARTCHAR U+03DA
ENCODING 986
SWIDTH 500 0
DWIDTH 6 0
BBX 9 12 -1 -2
BITMAP 
0000
0000
0000
0600
0900
1000
2000
2000
1800
0400
0800
0000
ENDCHAR
STARTCHAR U+03DB
ENCODING 987
SWIDTH 500 0
DWIDTH 6 0
BBX 9 12 -1 -2
BITMAP 
0000
0000
0000
0000
0100
0E00
1000
2000
2000
1800
0400
1800
ENDCHAR
STARTCHAR U+03DC
ENCODING 988
SWIDTH 500 0
DWIDTH 6 0
BBX 9 12 -1 -2
BITMAP 
0000
0000
0000
1F00
1000
1000
3800
2000
2000
4000
0000
0000
ENDCHAR
STARTCHAR U+03DD
ENCODING 989
SWIDTH 500 0
DWIDTH 6 0
BBX 9 12 -1 -2
BITMAP 
0000
0000
0000
0000
0000
0F00
1000
1000
1C00
2000
2000
2000
ENDCHAR
STARTCHAR U+03DE
ENCODING 990
SWIDTH 500 0
DWIDTH 6 0
BBX 9 12 -1 -2
BITMAP 
0000
0000
0000
1000
1000
1700
2A00
3200
2200
0400
0000
0000
ENDCHAR
STARTCHAR U+03DF
ENCODING 991
SWIDTH 500 0
DWIDTH 6 0
BBX 9 12 -1 -2
BITMAP 
0000
0000
0000
0400
0400
0800
3000
3E00
0400
0800
1000
1000
ENDCHAR
STARTCHAR U+03E0
ENCODING 992
SWIDTH 500 0
DWIDTH 6 0
BBX 9 12 -1 -2
BITMAP 
0000
0000
0000
0400
0A00
1200
1600
2A00
2A00
5400
0000
0000
ENDCHAR
STARTCHAR U+03E1
ENCODING 993
SWIDTH 500 0
DWIDTH 6 0
BBX 9 12 -1 -2
BITMAP 
0000
0000
0000
1800
0400
0200
0C00
1200
0E00
1400
0400
0400
ENDCHAR
STARTCHAR U+03E2
ENCODING 994
SWIDTH 500 0
DWIDTH 6 0
BBX 9 12 -1 -2
BITMAP 
0000
0000
0000
1500
1500
1500
2A00
2A00
1E00
0400
7800
0000
ENDCHAR
STARTCHAR U+03E3
ENCODING 995
SWIDTH 500 0
DWIDTH 6 0
BBX 9 12 -1 -2
BITMAP 
0000
0000
0000
0000
0000
1500
2A00
2A00
1E00
0400
7800
0000
ENDCHAR
STARTCHAR U+03E4
ENCODING 996
SWIDTH 500 0
DWIDTH 6 0
BBX 9 12 -1 -2
BITMAP 
0000
0000
0000
0900
1500
1100
1200
0E00
0200
0400
0000
0000
ENDCHAR
STARTCHAR U+03E5
ENCODING 997
SWIDTH 500 0
DWIDTH 6 0
BBX 9 12 -1 -2
BITMAP 
0000
0000
0000
0000
0000
0900
1A00
2200
1E00
0400
0000
0000
ENDCHAR
STARTCHAR U+03E6
ENCODING 998
SWIDTH 500 0
DWIDTH 6 0
BBX 9 12 -1 -2
BITMAP 
0000
0000
0000
1000
1000
1C00
3200
2200
2200
0400
7800
0000
ENDCHAR
STARTCHAR U+03E7
ENCODING 999
SWIDTH 500 0
DWIDTH 6 0
BBX 9 12 -1 -2
BITMAP 
0000
0000
0000
0400
0400
1E00
2A00
1200
0400
7800
0000
0000
ENDCHAR
STARTCHAR U+03E8
ENCODING 1000
SWIDTH 500 0
DWIDTH 6 0
BBX 9 12 -1 -2
BITMAP 
0000
0000
0000
0E00
1100
0A00
0400
1800
2600
1800
0000
0000
ENDCHAR
STARTCHAR U+03E9
ENCODING 1001
SWIDTH 500 0
DWIDTH 6 0
BBX 9 12 -1 -2
BITMAP 
0000
0000
0000
0000
0C00
1200
1200
1C00
2000
1C00
0000
0000
ENDCHAR
STARTCHAR U+03EA
ENCODING 1002
SWIDTH 500 0
DWIDTH 6 0
BBX 9 12 -1 -2
BITMAP 
0000
0000
0000
0A00
1500
0400
0C00
1400
2200
7C00
0000
0000
ENDCHAR
STARTCHAR U+03EB
ENCODING 1003
SWIDTH 500 0
DWIDTH 6 0
BBX 9 12 -1 -2
BITMAP 
0000
0000
0000
0000
0A00
1D00
0800
1400
2200
7C00
0000
0000
ENDCHAR
STARTCHAR U+03EC
ENCODING 1004
SWIDTH 500 0
DWIDTH 6 0
BBX 9 12 -1 -2
BITMAP 
0000
0000
0000
0100
0E00
1000
3C00
2200
2400
1800
0000
0000
ENDCHAR
STARTCHAR U+03ED
ENCODING 1005
SWIDTH 500 0
DWIDTH 6 0
BBX 9 12 -1 -2
BITMAP 
0000
0000
0000
0000
0100
0E00
1000
3C00
2600
1800
0000
0000
ENDCHAR
STARTCHAR U+03EE
ENCODING 1006
SWIDTH 500 0
DWIDTH 6 0
BBX 9 12 -1 -2
BITMAP 
0000
0000
0000
0E00
0400
1F00
2A00
0800
0800
3800
0000
0000
ENDCHAR
STARTCHAR U+03EF
ENCODING 1007
SWIDTH 500 0
DWIDTH 6 0
BBX 9 12 -1 -2
BITMAP 
0000
0000
0000
0400
0600
0400
3E00
2800
0800
1000
3000
1000
ENDCHAR
STARTCHAR U+03F0
ENCODING 1008
SWIDTH 500 0
DWIDTH 6 0
BBX 9 12 -1 -2
BITMAP 
0000
0000
0000
0000
0000
1200
1200
1C00
2400
4400
0000
0000
ENDCHAR
STARTCHAR U+03F1
ENCODING 1009
SWIDTH 500 0
DWIDTH 6 0
BBX 9 12 -1 -2
BITMAP 
0000
0000
0000
0000
0000
0C00
1200
2200
2400
7800
4000
3C00
ENDCHAR
STARTCHAR U+03F2
ENCODING 1010
SWIDTH 500 0
DWIDTH 6 0
BBX 9 12 -1 -2
BITMAP 
0000
0000
0000
0000
0000
0C00
1200
2000
2600
1800
0000
0000
ENDCHAR
STARTCHAR U+03F3
ENCODING 1011
SWIDTH 500 0
DWIDTH 6 0
BBX 9 12 -1 -2
BITMAP 
0000
0000
0000
0100
0000
0300
0200
0200
0200
2400
2400
1800
ENDCHAR
STARTCHAR U+03F4
ENCODING 1012
SWIDTH 500 0
DWIDTH 6 0
BBX 9 12 -1 -2
BITMAP 
0000
0000
0000
0E00
1100
1100
3E00
2200
2400
1800
0000
0000
ENDCHAR
STARTCHAR U+03F5
ENCODING 1013
SWIDTH 500 0
DWIDTH 6 0
BBX 9 12 -1 -2
BITMAP 
0000
0000
0000
0000
0000
0E00
1000
3800
2000
1800
0000
0000
ENDCHAR
STARTCHAR U+0400
ENCODING 1024
SWIDTH 500 0
DWIDTH 6 0
BBX 9 12 -1 -2
BITMAP 
0400
0200
0000
1F00
1000
1000
3C00
2000
2000
7C00
0000
0000
ENDCHAR
STARTCHAR U+0401
ENCODING 1025
SWIDTH 500 0
DWIDTH 6 0
BBX 9 12 -1 -2
BITMAP 
0000
0500
0000
1F00
1000
1000
3C00
2000
2000
7C00
0000
0000
ENDCHAR
STARTCHAR U+0402
ENCODING 1026
SWIDTH 500 0
DWIDTH 6 0
BBX 9 12 -1 -2
BITMAP 
0000
0000
0000
1C00
0800
0800
1C00
1200
1200
2400
0400
1800
ENDCHAR
STARTCHAR U+0403
ENCODING 1027
SWIDTH 500 0
DWIDTH 6 0
BBX 9 12 -1 -2
BITMAP 
0100
0200
0000
1F00
1000
1000
2000
2000
2000
4000
0000
0000
ENDCHAR
STARTCHAR U+0404
ENCODING 1028
SWIDTH 500 0
DWIDTH 6 0
BBX 9 12 -1 -2
BITMAP 
0000
0000
0000
0E00
1100
1000
3C00
2000
2600
1800
0000
0000
ENDCHAR
STARTCHAR U+0405
ENCODING 1029
SWIDTH 500 0
DWIDTH 6 0
BBX 9 12 -1 -2
BITMAP 
0000
0000
0000
0E00
1100
1000
0C00
0200
2400
1800
0000
0000
ENDCHAR
STARTCHAR U+0406
ENCODING 1030
SWIDTH 500 0
DWIDTH 6 0
BBX 9 12 -1 -2
BITMAP 
0000
0000
0000
0E00
0400
0400
0800
0800
0800
3800
0000
0000
ENDCHAR
STARTCHAR U+0407
ENCODING 1031
SWIDTH 500 0
DWIDTH 6 0
BBX 9 12 -1 -2
BITMAP 
0000
0500
0000
0E00
0400
0400
0800
0800
0800
3800
0000
0000
ENDCHAR
STARTCHAR U+0408
ENCODING 1032
SWIDTH 500 0
DWIDTH 6 0
BBX 9 12 -1 -2
BITMAP 
0000
0000
0000
0700
0200
0200
0400
0400
2800
3000
0000
0000
ENDCHAR
STARTCHAR U+0409
ENCODING 1033
SWIDTH 500 0
DWIDTH 6 0
BBX 9 12 -1 -2
BITMAP 
0000
0000
0000
0C00
1400
1400
2C00
2A00
2C00
5800
0000
0000
ENDCHAR
STARTCHAR U+040A
ENCODING 1034
SWIDTH 500 0
DWIDTH 6 0
BBX 9 12 -1 -2
BITMAP 
0000
0000
0000
1400
1400
1400
3C00
2A00
2C00
5800
0000
0000
ENDCHAR
STARTCHAR U+040B
ENCODING 1035
SWIDTH 500 0
DWIDTH 6 0
BBX 9 12 -1 -2
BITMAP 
0000
0000
0000
1C00
0800
0800
1C00
1200
1200
2400
0000
0000
ENDCHAR
STARTCHAR U+040C
ENCODING 1036
SWIDTH 500 0
DWIDTH 6 0
BBX 9 12 -1 -2
BITMAP 
0100
0200
0000
1100
1200
1C00
3000
2800
2400
4400
0000
0000
ENDCHAR
STARTCHAR U+040D
ENCODING 1037
SWIDTH 500 0
DWIDTH 6 0
BBX 9 12 -1 -2
BITMAP 
0400
0200
0000
1100
1100
1700
2A00
3200
2200
4400
0000
0000
ENDCHAR
STARTCHAR U+040E
ENCODING 1038
SWIDTH 500 0
DWIDTH 6 0
BBX 9 12 -1 -2
BITMAP 
0880
0700
0000
1100
1100
1100
1200
0E00
0400
3800
0000
0000
ENDCHAR
STARTCHAR U+040F
ENCODING 1039
SWIDTH 500 0
DWIDTH 6 0
BBX 9 12 -1 -2
BITMAP 
0000
0000
0000
1100
1100
1100
2200
2200
2200
7C00
1000
1000
ENDCHAR
STARTCHAR U+0410
ENCODING 1040
SWIDTH 500 0
DWIDTH 6 0
BBX 9 12 -1 -2
BITMAP 
0000
0000
0000
0E00
1100
1100
3E00
2200
2200
4400
0000
0000
ENDCHAR
STARTCHAR U+0411
ENCODING 1041
SWIDTH 500 0
DWIDTH 6 0
BBX 9 12 -1 -2
BITMAP 
0000
0000
0000
1E00
1000
1000
3C00
2200
2400
7800
0000
0000
ENDCHAR
STARTCHAR U+0412
ENCODING 1042
SWIDTH 500 0
DWIDTH 6 0
BBX 9 12 -1 -2
BITMAP 
0000
0000
0000
1E00
1100
1200
3C00
2200
2400
7800
0000
0000
ENDCHAR
STARTCHAR U+0413
ENCODING 1043
SWIDTH 500 0
DWIDTH 6 0
BBX 9 12 -1 -2
BITMAP 
0000
0000
0000
1F00
1000
1000
2000
2000
2000
4000
0000
0000
ENDCHAR
STARTCHAR U+0414
ENCODING 1044
SWIDTH 500 0
DWIDTH 6 0
BBX 9 12 -1 -2
BITMAP 
0000
0000
0000
0600
0A00
0A00
1400
1400
1400
3C00
4400
0000
ENDCHAR
STARTCHAR U+0415
ENCODING 1045
SWIDTH 500 0
DWIDTH 6 0
BBX 9 12 -1 -2
BITMAP 
0000
0000
0000
1F00
1000
1000
3C00
2000
2000
7C00
0000
0000
ENDCHAR
STARTCHAR U+0416
ENCODING 1046
SWIDTH 500 0
DWIDTH 6 0
BBX 9 12 -1 -2
BITMAP 
0000
0000
0000
1500
1500
0E00
0800
1C00
2C00
5400
0000
0000
ENDCHAR
STARTCHAR U+0417
ENCODING 1047
SWIDTH 500 0
DWIDTH 6 0
BBX 9 12 -1 -2
BITMAP 
0000
0000
0000
0E00
1100
0200
1C00
0200
2400
1800
0000
0000
ENDCHAR
STARTCHAR U+0418
ENCODING 1048
SWIDTH 500 0
DWIDTH 6 0
BBX 9 12 -1 -2
BITMAP 
0000
0000
0000
1100
1100
1700
2A00
3200
2200
4400
0000
0000
ENDCHAR
STARTCHAR U+0419
ENCODING 1049
SWIDTH 500 0
DWIDTH 6 0
BBX 9 12 -1 -2
BITMAP 
0880
0700
0000
1100
1100
1700
2A00
3200
2200
4400
0000
0000
ENDCHAR
STARTCHAR U+041A
ENCODING 1050
SWIDTH 500 0
DWIDTH 6 0
BBX 9 12 -1 -2
BITMAP 
0000
0000
0000
1100
1200
1C00
3000
2800
2400
4400
0000
0000
ENDCHAR
STARTCHAR U+041B
ENCODING 1051
SWIDTH 500 0
DWIDTH 6 0
BBX 9 12 -1 -2
BITMAP 
0000
0000
0000
0700
0900
0900
1200
1200
2200
4400
0000
0000
ENDCHAR
STARTCHAR U+041C
ENCODING 1052
SWIDTH 500 0
DWIDTH 6 0
BBX 9 12 -1 -2
BITMAP 
0000
0000
0000
1100
1B00
1500
2200
2200
2200
4400
0000
0000
ENDCHAR
STARTCHAR U+041D
ENCODING 1053
SWIDTH 500 0
DWIDTH 6 0
BBX 9 12 -1 -2
BITMAP 
0000
0000
0000
1100
1100
1100
3E00
2200
2200
4400
0000
0000
ENDCHAR
STARTCHAR U+041E
ENCODING 1054
SWIDTH 500 0
DWIDTH 6 0
BBX 9 12 -1 -2
BITMAP 
0000
0000
0000
0E00
1100
1100
2200
2200
2400
1800
0000
0000
ENDCHAR
STARTCHAR U+041F
ENCODING 1055
SWIDTH 500 0
DWIDTH 6 0
BBX 9 12 -1 -2
BITMAP 
0000
0000
0000
1F00
1100
1100
2200
2200
2200
4400
0000
0000
ENDCHAR
STARTCHAR U+0420
ENCODING 1056
SWIDTH 500 0
DWIDTH 6 0
BBX 9 12 -1 -2
BITMAP 
0000
0000
0000
1E00
1100
1200
3C00
2000
2000
4000
0000
0000
ENDCHAR
STARTCHAR U+0421
ENCODING 1057
SWIDTH 500 0
DWIDTH 6 0
BBX 9 12 -1 -2
BITMAP 
0000
0000
0000
0E00
1100
1000
2000
2000
2600
1800
0000
0000
ENDCHAR
STARTCHAR U+0422
ENCODING 1058
SWIDTH 500 0
DWIDTH 6 0
BBX 9 12 -1 -2
BITMAP 
0000
0000
0000
1F00
0400
0400
0800
0800
0800
1000
0000
0000
ENDCHAR
STARTCHAR U+0423
ENCODING 1059
SWIDTH 500 0
DWIDTH 6 0
BBX 9 12 -1 -2
BITMAP 
0000
0000
0000
1100
1100
1100
1200
0E00
0400
3800
0000
0000
ENDCHAR
STARTCHAR U+0424
ENCODING 1060
SWIDTH 500 0
DWIDTH 6 0
BBX 9 12 -1 -2
BITMAP 
0000
0000
0000
0400
0E00
1600
2A00
2A00
1C00
1000
0000
0000
ENDCHAR
STARTCHAR U+0425
ENCODING 1061
SWIDTH 500 0
DWIDTH 6 0
BBX 9 12 -1 -2
BITMAP 
0000
0000
0000
1100
1100
0A00
0C00
1400
2400
4400
0000
0000
ENDCHAR
STARTCHAR U+0426
ENCODING 1062
SWIDTH 500 0
DWIDTH 6 0
BBX 9 12 -1 -2
BITMAP 
0000
0000
0000
1200
1200
1200
2400
2400
2400
7C00
0400
0400
ENDCHAR
STARTCHAR U+0427
ENCODING 1063
SWIDTH 500 0
DWIDTH 6 0
BBX 9 12 -1 -2
BITMAP 
0000
0000
0000
1100
1100
1100
0E00
0200
0200
0400
0000
0000
ENDCHAR
STARTCHAR U+0428
ENCODING 1064
SWIDTH 500 0
DWIDTH 6 0
BBX 9 12 -1 -2
BITMAP 
0000
0000
0000
1500
1500
1500
2A00
2A00
2A00
7C00
0000
0000
ENDCHAR
STARTCHAR U+0429
ENCODING 1065
SWIDTH 500 0
DWIDTH 6 0
BBX 9 12 -1 -2
BITMAP 
0000
0000
0000
1500
1500
1500
2A00
2A00
2A00
7C00
0400
0400
ENDCHAR
STARTCHAR U+042A
ENCODING 1066
SWIDTH 500 0
DWIDTH 6 0
BBX 9 12 -1 -2
BITMAP 
0000
0000
0000
1800
0800
0800
1C00
1200
1400
3800
0000
0000
ENDCHAR
STARTCHAR U+042B
ENCODING 1067
SWIDTH 500 0
DWIDTH 6 0
BBX 9 12 -1 -2
BITMAP 
0000
0000
0000
1100
1100
1100
3200
2A00
3200
6400
0000
0000
ENDCHAR
STARTCHAR U+042C
ENCODING 1068
SWIDTH 500 0
DWIDTH 6 0
BBX 9 12 -1 -2
BITMAP 
0000
0000
0000
0800
0800
0800
1C00
1200
1400
3800
0000
0000
ENDCHAR
STARTCHAR U+042D
ENCODING 1069
SWIDTH 500 0
DWIDTH 6 0
BBX 9 12 -1 -2
BITMAP 
0000
0000
0000
0E00
1100
0100
1E00
0200
2400
1800
0000
0000
ENDCHAR
STARTCHAR U+042E
ENCODING 1070
SWIDTH 500 0
DWIDTH 6 0
BBX 9 12 -1 -2
BITMAP 
0000
0000
0000
1200
1500
1500
3A00
2A00
2C00
4800
0000
0000
ENDCHAR
STARTCHAR U+042F
ENCODING 1071
SWIDTH 500 0
DWIDTH 6 0
BBX 9 12 -1 -2
BITMAP 
0000
0000
0000
0F00
1100
1100
0E00
0A00
3200
4400
0000
0000
ENDCHAR
STARTCHAR U+0430
ENCODING 1072
SWIDTH 500 0
DWIDTH 6 0
BBX 9 12 -1 -2
BITMAP 
0000
0000
0000
0000
0000
0C00
0200
1E00
2200
1C00
0000
0000
ENDCHAR
STARTCHAR U+0431
ENCODING 1073
SWIDTH 500 0
DWIDTH 6 0
BBX 9 12 -1 -2
BITMAP 
0000
0000
0000
0E00
1000
1C00
2200
2200
2400
1800
0000
0000
ENDCHAR
STARTCHAR U+0432
ENCODING 1074
SWIDTH 500 0
DWIDTH 6 0
BBX 9 12 -1 -2
BITMAP 
0000
0000
0000
0000
0000
1C00
2200
3C00
2600
7800
0000
0000
ENDCHAR
STARTCHAR U+0433
ENCODING 1075
SWIDTH 500 0
DWIDTH 6 0
BBX 9 12 -1 -2
BITMAP 
0000
0000
0000
0000
0000
1F00
2000
2000
2000
4000
0000
0000
ENDCHAR
STARTCHAR U+0434
ENCODING 1076
SWIDTH 500 0
DWIDTH 6 0
BBX 9 12 -1 -2
BITMAP 
0000
0000
0000
0000
0000
0600
0C00
1400
1400
3C00
4400
0000
ENDCHAR
STARTCHAR U+0435
ENCODING 1077
SWIDTH 500 0
DWIDTH 6 0
BBX 9 12 -1 -2
BITMAP 
0000
0000
0000
0000
0000
0C00
1200
3C00
2000
1800
0000
0000
ENDCHAR
STARTCHAR U+0436
ENCODING 1078
SWIDTH 500 0
DWIDTH 6 0
BBX 9 12 -1 -2
BITMAP 
0000
0000
0000
0000
0000
1700
1C00
0800
3C00
5400
0000
0000
ENDCHAR
STARTCHAR U+0437
ENCODING 1079
SWIDTH 500 0
DWIDTH 6 0
BBX 9 12 -1 -2
BITMAP 
0000
0000
0000
0000
0000
1C00
2200
0C00
2600
1800
0000
0000
ENDCHAR
STARTCHAR U+0438
ENCODING 1080
SWIDTH 500 0
DWIDTH 6 0
BBX 9 12 -1 -2
BITMAP 
0000
0000
0000
0000
0000
1100
2600
2A00
3200
4400
0000
0000
ENDCHAR
STARTCHAR U+0439
ENCODING 1081
SWIDTH 500 0
DWIDTH 6 0
BBX 9 12 -1 -2
BITMAP 
0000
0000
0980
0600
0000
1100
2600
2A00
3200
4400
0000
0000
ENDCHAR
STARTCHAR U+043A
ENCODING 1082
SWIDTH 500 0
DWIDTH 6 0
BBX 9 12 -1 -2
BITMAP 
0000
0000
0000
0000
0000
0B00
1400
1800
1400
2400
0000
0000
ENDCHAR
STARTCHAR U+043B
ENCODING 1083
SWIDTH 500 0
DWIDTH 6 0
BBX 9 12 -1 -2
BITMAP 
0000
0000
0000
0000
0000
0700
0A00
1200
2200
4400
0000
0000
ENDCHAR
STARTCHAR U+043C
ENCODING 1084
SWIDTH 500 0
DWIDTH 6 0
BBX 9 12 -1 -2
BITMAP 
0000
0000
0000
0000
0000
1100
3600
2A00
2200
4400
0000
0000
ENDCHAR
STARTCHAR U+043D
ENCODING 1085
SWIDTH 500 0
DWIDTH 6 0
BBX 9 12 -1 -2
BITMAP 
0000
0000
0000
0000
0000
1100
2200
3E00
2200
4400
0000
0000
ENDCHAR
STARTCHAR U+043E
ENCODING 1086
SWIDTH 500 0
DWIDTH 6 0
BBX 9 12 -1 -2
BITMAP 
0000
0000
0000
0000
0000
0C00
1200
2200
2400
1800
0000
0000
ENDCHAR
STARTCHAR U+043F
ENCODING 1087
SWIDTH 500 0
DWIDTH 6 0
BBX 9 12 -1 -2
BITMAP 
0000
0000
0000
0000
0000
1F00
2200
2200
2200
4400
0000
0000
ENDCHAR
STARTCHAR U+0440
ENCODING 1088
SWIDTH 500 0
DWIDTH 6 0
BBX 9 12 -1 -2
BITMAP 
0000
0000
0000
0000
0000
1C00
2200
2200
2400
7800
4000
4000
ENDCHAR
STARTCHAR U+0441
ENCODING 1089
SWIDTH 500 0
DWIDTH 6 0
BBX 9 12 -1 -2
BITMAP 
0000
0000
0000
0000
0000
0C00
1200
2000
2600
1800
0000
0000
ENDCHAR
STARTCHAR U+0442
ENCODING 1090
SWIDTH 500 0
DWIDTH 6 0
BBX 9 12 -1 -2
BITMAP 
0000
0000
0000
0000
0000
1F00
0800
0800
0800
1000
0000
0000
ENDCHAR
STARTCHAR U+0443
ENCODING 1091
SWIDTH 500 0
DWIDTH 6 0
BBX 9 12 -1 -2
BITMAP 
0000
0000
0000
0000
0000
1100
2200
2200
2200
1C00
0400
3800
ENDCHAR
STARTCHAR U+0444
ENCODING 1092
SWIDTH 500 0
DWIDTH 6 0
BBX 9 12 -1 -2
BITMAP 
0000
0000
0000
0400
0400
0E00
1A00
2A00
2C00
3800
1000
1000
ENDCHAR
STARTCHAR U+0445
ENCODING 1093
SWIDTH 500 0
DWIDTH 6 0
BBX 9 12 -1 -2
BITMAP 
0000
0000
0000
0000
0000
1300
1400
0800
3400
4400
0000
0000
ENDCHAR
STARTCHAR U+0446
ENCODING 1094
SWIDTH 500 0
DWIDTH 6 0
BBX 9 12 -1 -2
BITMAP 
0000
0000
0000
0000
0000
1200
2400
2400
2400
7C00
0400
0400
ENDCHAR
STARTCHAR U+0447
ENCODING 1095
SWIDTH 500 0
DWIDTH 6 0
BBX 9 12 -1 -2
BITMAP 
0000
0000
0000
0000
0000
1100
1200
0E00
0200
0400
0000
0000
ENDCHAR
STARTCHAR U+0448
ENCODING 1096
SWIDTH 500 0
DWIDTH 6 0
BBX 9 12 -1 -2
BITMAP 
0000
0000
0000
0000
0000
1500
2A00
2A00
2A00
7C00
0000
0000
ENDCHAR
STARTCHAR U+0449
ENCODING 1097
SWIDTH 500 0
DWIDTH 6 0
BBX 9 12 -1 -2
BITMAP 
0000
0000
0000
0000
0000
1500
2A00
2A00
2A00
7C00
0400
0400
ENDCHAR
STARTCHAR U+044A
ENCODING 1098
SWIDTH 500 0
DWIDTH 6 0
BBX 9 12 -1 -2
BITMAP 
0000
0000
0000
0000
0000
1800
1000
1C00
1600
3800
0000
0000
ENDCHAR
STARTCHAR U+044B
ENCODING 1099
SWIDTH 500 0
DWIDTH 6 0
BBX 9 12 -1 -2
BITMAP 
0000
0000
0000
0000
0000
1100
2200
3200
3A00
6400
0000
0000
ENDCHAR
STARTCHAR U+044C
ENCODING 1100
SWIDTH 500 0
DWIDTH 6 0
BBX 9 12 -1 -2
BITMAP 
0000
0000
0000
0000
0000
0800
1000
1C00
1600
3800
0000
0000
ENDCHAR
STARTCHAR U+044D
ENCODING 1101
SWIDTH 500 0
DWIDTH 6 0
BBX 9 12 -1 -2
BITMAP 
0000
0000
0000
0000
0000
0C00
0200
0E00
0400
3800
0000
0000
ENDCHAR
STARTCHAR U+044E
ENCODING 1102
SWIDTH 500 0
DWIDTH 6 0
BBX 9 12 -1 -2
BITMAP 
0000
0000
0000
0000
0000
1200
2600
3A00
2C00
4800
0000
0000
ENDCHAR
STARTCHAR U+044F
ENCODING 1103
SWIDTH 500 0
DWIDTH 6 0
BBX 9 12 -1 -2
BITMAP 
0000
0000
0000
0000
0000
0F00
1200
0E00
1200
2400
0000
0000
ENDCHAR
STARTCHAR U+0450
ENCODING 1104
SWIDTH 500 0
DWIDTH 6 0
BBX 9 12 -1 -2
BITMAP 
0000
0000
0400
0400
0000
0C00
1200
3C00
2000
1800
0000
0000
ENDCHAR
STARTCHAR U+0451
ENCODING 1105
SWIDTH 500 0
DWIDTH 6 0
BBX 9 12 -1 -2
BITMAP 
0000
0000
0000
0A00
0000
0C00
1200
3C00
2000
1800
0000
0000
ENDCHAR
STARTCHAR U+0452
ENCODING 1106
SWIDTH 500 0
DWIDTH 6 0
BBX 9 12 -1 -2
BITMAP 
0000
0000
0000
0800
1C00
0800
1C00
1200
1200
2400
0400
0800
ENDCHAR
STARTCHAR U+0453
ENCODING 1107
SWIDTH 500 0
DWIDTH 6 0
BBX 9 12 -1 -2
BITMAP 
0000
0000
0300
0400
0000
1F00
2000
2000
2000
4000
0000
0000
ENDCHAR
STARTCHAR U+0454
ENCODING 1108
SWIDTH 500 0
DWIDTH 6 0
BBX 9 12 -1 -2
BITMAP 
0000
0000
0000
0000
0000
0700
0800
1C00
1000
0C00
0000
0000
ENDCHAR
STARTCHAR U+0455
ENCODING 1109
SWIDTH 500 0
DWIDTH 6 0
BBX 9 12 -1 -2
BITMAP 
0000
0000
0000
0000
0000
1F00
2000
1C00
0600
7800
0000
0000
ENDCHAR
STARTCHAR U+0456
ENCODING 1110
SWIDTH 500 0
DWIDTH 6 0
BBX 9 12 -1 -2
BITMAP 
0000
0000
0000
0000
0400
0000
1800
0800
0800
3800
0000
0000
ENDCHAR
STARTCHAR U+0457
ENCODING 1111
SWIDTH 500 0
DWIDTH 6 0
BBX 9 12 -1 -2
BITMAP 
0000
0000
0000
0000
0A00
0000
1800
0800
0800
3800
0000
0000
ENDCHAR
STARTCHAR U+0458
ENCODING 1112
SWIDTH 500 0
DWIDTH 6 0
BBX 9 12 -1 -2
BITMAP 
0000
0000
0000
0000
0100
0000
0600
0200
0200
0400
2400
1800
ENDCHAR
STARTCHAR U+0459
ENCODING 1113
SWIDTH 500 0
DWIDTH 6 0
BBX 9 12 -1 -2
BITMAP 
0000
0000
0000
0000
0000
0C00
1800
2C00
2E00
5800
0000
0000
ENDCHAR
STARTCHAR U+045A
ENCODING 1114
SWIDTH 500 0
DWIDTH 6 0
BBX 9 12 -1 -2
BITMAP 
0000
0000
0000
0000
0000
1400
2800
3C00
2E00
5800
0000
0000
ENDCHAR
STARTCHAR U+045B
ENCODING 1115
SWIDTH 500 0
DWIDTH 6 0
BBX 9 12 -1 -2
BITMAP 
0000
0000
0000
0800
1C00
0800
1C00
1200
1200
2400
0000
0000
ENDCHAR
STARTCHAR U+045C
ENCODING 1116
SWIDTH 500 0
DWIDTH 6 0
BBX 9 12 -1 -2
BITMAP 
0000
0000
0300
0400
0000
0B00
1400
1800
1400
2400
0000
0000
ENDCHAR
STARTCHAR U+045D
ENCODING 1117
SWIDTH 500 0
DWIDTH 6 0
BBX 9 12 -1 -2
BITMAP 
0000
0000
0400
0400
0000
1100
2600
2A00
3200
4400
0000
0000
ENDCHAR
STARTCHAR U+045E
ENCODING 1118
SWIDTH 500 0
DWIDTH 6 0
BBX 9 12 -1 -2
BITMAP 
0000
0000
0980
0600
0000
1100
2200
2200
2200
1C00
0400
3800
ENDCHAR
STARTCHAR U+045F
ENCODING 1119
SWIDTH 500 0
DWIDTH 6 0
BBX 9 12 -1 -2
BITMAP 
0000
0000
0000
0000
0000
1100
2200
2200
2200
7C00
1000
1000
ENDCHAR
STARTCHAR U+0462
ENCODING 1122
SWIDTH 500 0
DWIDTH 6 0
BBX 9 12 -1 -2
BITMAP 
0000
0000
0000
0800
1E00
0800
1C00
1200
1400
3800
0000
0000
ENDCHAR
STARTCHAR U+0463
ENCODING 1123
SWIDTH 500 0
DWIDTH 6 0
BBX 9 12 -1 -2
BITMAP 
0000
0000
0000
0800
0800
1E00
1000
1C00
1600
3800
0000
0000
ENDCHAR
STARTCHAR U+0470
ENCODING 1136
SWIDTH 500 0
DWIDTH 6 0
BBX 9 12 -1 -2
BITMAP 
0000
0000
0000
1500
1500
1600
1C00
0800
0800
1000
0000
0000
ENDCHAR
STARTCHAR U+0471
ENCODING 1137
SWIDTH 500 0
DWIDTH 6 0
BBX 9 12 -1 -2
BITMAP 
0000
0000
0000
0000
0000
1500
1A00
0C00
0800
1000
0000
0000
ENDCHAR
STARTCHAR U+0472
ENCODING 1138
SWIDTH 500 0
DWIDTH 6 0
BBX 9 12 -1 -2
BITMAP 
0000
0000
0000
0E00
1100
1100
3E00
2200
2400
1800
0000
0000
ENDCHAR
STARTCHAR U+0473
ENCODING 1139
SWIDTH 500 0
DWIDTH 6 0
BBX 9 12 -1 -2
BITMAP 
0000
0000
0000
0000
0000
0C00
1200
3E00
2400
1800
0000
0000
ENDCHAR
STARTCHAR U+0474
ENCODING 1140
SWIDTH 500 0
DWIDTH 6 0
BBX 9 12 -1 -2
BITMAP 
0000
0000
0000
1100
1200
1200
1400
1400
1800
1000
0000
0000
ENDCHAR
STARTCHAR U+0475
ENCODING 1141
SWIDTH 500 0
DWIDTH 6 0
BBX 9 12 -1 -2
BITMAP 
0000
0000
0000
0000
0000
1100
1200
1400
1800
1000
0000
0000
ENDCHAR
STARTCHAR U+0476
ENCODING 1142
SWIDTH 500 0
DWIDTH 6 0
BBX 9 12 -1 -2
BITMAP 
0900
0480
0000
1100
1200
1200
1400
1400
1800
1000
0000
0000
ENDCHAR
STARTCHAR U+0477
ENCODING 1143
SWIDTH 500 0
DWIDTH 6 0
BBX 9 12 -1 -2
BITMAP 
0000
0000
0900
0900
0000
1100
1200
1400
1800
1000
0000
0000
ENDCHAR
STARTCHAR U+0490
ENCODING 1168
SWIDTH 500 0
DWIDTH 6 0
BBX 9 12 -1 -2
BITMAP 
0000
0080
0080
1F00
1000
1000
2000
2000
2000
4000
0000
0000
ENDCHAR
STARTCHAR U+0491
ENCODING 1169
SWIDTH 500 0
DWIDTH 6 0
BBX 9 12 -1 -2
BITMAP 
0000
0000
0000
0100
0100
1F00
2000
2000
2000
4000
0000
0000
ENDCHAR
STARTCHAR U+0492
ENCODING 1170
SWIDTH 500 0
DWIDTH 6 0
BBX 9 12 -1 -2
BITMAP 
0000
0000
0000
0F00
0800
0800
3C00
1000
1000
2000
0000
0000
ENDCHAR
STARTCHAR U+0493
ENCODING 1171
SWIDTH 500 0
DWIDTH 6 0
BBX 9 12 -1 -2
BITMAP 
0000
0000
0000
0000
0000
0F00
1000
3C00
1000
2000
0000
0000
ENDCHAR
STARTCHAR U+0496
ENCODING 1174
SWIDTH 500 0
DWIDTH 6 0
BBX 9 12 -1 -2
BITMAP 
0000
0000
0000
2A00
2A00
1C00
1000
3800
5800
AC00
0400
0400
ENDCHAR
STARTCHAR U+0497
ENCODING 1175
SWIDTH 500 0
DWIDTH 6 0
BBX 9 12 -1 -2
BITMAP 
0000
0000
0000
0000
0000
2E00
3800
1000
7800
A400
0400
0400
ENDCHAR
STARTCHAR U+049A
ENCODING 1178
SWIDTH 500 0
DWIDTH 6 0
BBX 9 12 -1 -2
BITMAP 
0000
0000
0000
2200
2400
3800
6000
5000
4800
8800
0400
0400
ENDCHAR
STARTCHAR U+049B
ENCODING 1179
SWIDTH 500 0
DWIDTH 6 0
BBX 9 12 -1 -2
BITMAP 
0000
0000
0000
0000
0000
1600
2800
3000
2800
4800
0400
0400
ENDCHAR
STARTCHAR U+04AE
ENCODING 1198
SWIDTH 500 0
DWIDTH 6 0
BBX 9 12 -1 -2
BITMAP 
0000
0000
0000
1100
1100
0A00
0C00
0800
0800
1000
0000
0000
ENDCHAR
STARTCHAR U+04AF
ENCODING 1199
SWIDTH 500 0
DWIDTH 6 0
BBX 9 12 -1 -2
BITMAP 
0000
0000
0000
0000
0000
1100
1200
1400
1800
1000
1000
1000
ENDCHAR
STARTCHAR U+04B0
ENCODING 1200
SWIDTH 500 0
DWIDTH 6 0
BBX 9 12 -1 -2
BITMAP 
0000
0000
0000
1100
1100
0A00
3E00
0800
0800
1000
0000
0000
ENDCHAR
STARTCHAR U+04B1
ENCODING 1201
SWIDTH 500 0
DWIDTH 6 0
BBX 9 12 -1 -2
BITMAP 
0000
0000
0000
0000
0000
1100
1200
1400
3E00
1000
1000
1000
ENDCHAR
STARTCHAR U+04B2
ENCODING 1202
SWIDTH 500 0
DWIDTH 6 0
BBX 9 12 -1 -2
BITMAP 
0000
0000
0000
2200
2200
1400
1800
2800
4800
8800
0400
0400
ENDCHAR
STARTCHAR U+04B3
ENCODING 1203
SWIDTH 500 0
DWIDTH 6 0
BBX 9 12 -1 -2
BITMAP 
0000
0000
0000
0000
0000
2600
2800
1000
6800
8800
0400
0400
ENDCHAR
STARTCHAR U+04BA
ENCODING 1210
SWIDTH 500 0
DWIDTH 6 0
BBX 9 12 -1 -2
BITMAP 
0000
0000
0000
1000
1000
1C00
2200
2200
2200
4400
0000
0000
ENDCHAR
STARTCHAR U+04BB
ENCODING 1211
SWIDTH 500 0
DWIDTH 6 0
BBX 9 12 -1 -2
BITMAP 
0000
0000
0000
0800
0800
0800
1C00
1200
1200
2400
0000
0000
ENDCHAR
STARTCHAR U+04D8
ENCODING 1240
SWIDTH 500 0
DWIDTH 6 0
BBX 9 12 -1 -2
BITMAP 
0000
0000
0000
0E00
1100
0100
3E00
2200
2400
1800
0000
0000
ENDCHAR
STARTCHAR U+04D9
ENCODING 1241
SWIDTH 500 0
DWIDTH 6 0
BBX 9 12 -1 -2
BITMAP 
0000
0000
0000
0000
0000
0C00
0200
1E00
2400
1800
0000
0000
ENDCHAR
STARTCHAR U+04E2
ENCODING 1250
SWIDTH 500 0
DWIDTH 6 0
BBX 9 12 -1 -2
BITMAP 
0000
0700
0000
0E00
0400
0400
0800
0800
0800
3800
0000
0000
ENDCHAR
STARTCHAR U+04E3
ENCODING 1251
SWIDTH 500 0
DWIDTH 6 0
BBX 9 12 -1 -2
BITMAP 
0000
0000
0000
0E00
0000
0C00
0800
0800
0800
3800
0000
0000
ENDCHAR
STARTCHAR U+04E8
ENCODING 1256
SWIDTH 500 0
DWIDTH 6 0
BBX 9 12 -1 -2
BITMAP 
0000
0000
0000
0E00
1100
1100
3E00
2200
2400
1800
0000
0000
ENDCHAR
STARTCHAR U+04E9
ENCODING 1257
SWIDTH 500 0
DWIDTH 6 0
BBX 9 12 -1 -2
BITMAP 
0000
0000
0000
0000
0000
0C00
1200
3E00
2400
1800
0000
0000
ENDCHAR
STARTCHAR U+04EE
ENCODING 1262
SWIDTH 500 0
DWIDTH 6 0
BBX 9 12 -1 -2
BITMAP 
0000
0700
0000
1100
1100
1100
2200
2200
2400
1800
0000
0000
ENDCHAR
STARTCHAR U+04EF
ENCODING 1263
SWIDTH 500 0
DWIDTH 6 0
BBX 9 12 -1 -2
BITMAP 
0000
0000
0000
0E00
0000
1100
2200
2200
2400
1800
0000
0000
ENDCHAR
STARTCHAR U+05D0
ENCODING 1488
SWIDTH 500 0
DWIDTH 6 0
BBX 9 12 -1 -2
BITMAP 
0000
0000
0000
0000
0000
1200
1200
1A00
2400
6400
0000
0000
ENDCHAR
STARTCHAR U+05D1
ENCODING 1489
SWIDTH 500 0
DWIDTH 6 0
BBX 9 12 -1 -2
BITMAP 
0000
0000
0000
0000
0000
1E00
0400
0400
0400
7C00
0000
0000
ENDCHAR
STARTCHAR U+05D2
ENCODING 1490
SWIDTH 500 0
DWIDTH 6 0
BBX 9 12 -1 -2
BITMAP 
0000
0000
0000
0000
0000
0800
0800
0400
1C00
2400
0000
0000
ENDCHAR
STARTCHAR U+05D3
ENCODING 1491
SWIDTH 500 0
DWIDTH 6 0
BBX 9 12 -1 -2
BITMAP 
0000
0000
0000
0000
0000
1F00
0400
0400
0400
0800
0000
0000
ENDCHAR
STARTCHAR U+05D4
ENCODING 1492
SWIDTH 500 0
DWIDTH 6 0
BBX 9 12 -1 -2
BITMAP 
0000
0000
0000
0000
0000
1F00
0200
0200
2200
4400
0000
0000
ENDCHAR
STARTCHAR U+05D5
ENCODING 1493
SWIDTH 500 0
DWIDTH 6 0
BBX 9 12 -1 -2
BITMAP 
0000
0000
0000
0000
0000
0600
0400
0400
0400
0800
0000
0000
ENDCHAR
STARTCHAR U+05D6
ENCODING 1494
SWIDTH 500 0
DWIDTH 6 0
BBX 9 12 -1 -2
BITMAP 
0000
0000
0000
0000
0000
1F00
0800
0400
0400
0800
0000
0000
ENDCHAR
STARTCHAR U+05D7
ENCODING 1495
SWIDTH 500 0
DWIDTH 6 0
BBX 9 12 -1 -2
BITMAP 
0000
0000
0000
0000
0000
1F00
1200
1200
1200
2400
0000
0000
ENDCHAR
STARTCHAR U+05D8
ENCODING 1496
SWIDTH 500 0
DWIDTH 6 0
BBX 9 12 -1 -2
BITMAP 
0000
0000
0000
0000
0000
1700
2A00
2200
2200
7C00
0000
0000
ENDCHAR
STARTCHAR U+05D9
ENCODING 1497
SWIDTH 500 0
DWIDTH 6 0
BBX 9 12 -1 -2
BITMAP 
0000
0000
0000
0000
0000
0600
0400
0400
0000
0000
0000
0000
ENDCHAR
STARTCHAR U+05DA
ENCODING 1498
SWIDTH 500 0
DWIDTH 6 0
BBX 9 12 -1 -2
BITMAP 
0000
0000
0000
0000
0000
1F00
0200
0200
0200
0400
0400
0400
ENDCHAR
STARTCHAR U+05DB
ENCODING 1499
SWIDTH 500 0
DWIDTH 6 0
BBX 9 12 -1 -2
BITMAP 
0000
0000
0000
0000
0000
1F00
0200
0200
0400
7800
0000
0000
ENDCHAR
STARTCHAR U+05DC
ENCODING 1500
SWIDTH 500 0
DWIDTH 6 0
BBX 9 12 -1 -2
BITMAP 
0000
0000
0800
1000
1000
1F00
0200
0200
0C00
3000
0000
0000
ENDCHAR
STARTCHAR U+05DD
ENCODING 1501
SWIDTH 500 0
DWIDTH 6 0
BBX 9 12 -1 -2
BITMAP 
0000
0000
0000
0000
0000
1F00
1200
1200
1200
3C00
0000
0000
ENDCHAR
STARTCHAR U+05DE
ENCODING 1502
SWIDTH 500 0
DWIDTH 6 0
BBX 9 12 -1 -2
BITMAP 
0000
0000
0000
0000
0000
1600
1A00
1200
2200
5C00
0000
0000
ENDCHAR
STARTCHAR U+05DF
ENCODING 1503
SWIDTH 500 0
DWIDTH 6 0
BBX 9 12 -1 -2
BITMAP 
0000
0000
0000
0000
0000
0600
0400
0400
0400
0800
0800
0800
ENDCHAR
STARTCHAR U+05E0
ENCODING 1504
SWIDTH 500 0
DWIDTH 6 0
BBX 9 12 -1 -2
BITMAP 
0000
0000
0000
0000
0000
0300
0200
0200
0200
3C00
0000
0000
ENDCHAR
STARTCHAR U+05E1
ENCODING 1505
SWIDTH 500 0
DWIDTH 6 0
BBX 9 12 -1 -2
BITMAP 
0000
0000
0000
0000
0000
1F00
1200
1200
1400
3800
0000
0000
ENDCHAR
STARTCHAR U+05E2
ENCODING 1506
SWIDTH 500 0
DWIDTH 6 0
BBX 9 12 -1 -2
BITMAP 
0000
0000
0000
0000
0000
1B00
1200
1200
1400
7800
0000
0000
ENDCHAR
STARTCHAR U+05E3
ENCODING 1507
SWIDTH 500 0
DWIDTH 6 0
BBX 9 12 -1 -2
BITMAP 
0000
0000
0000
0000
0000
1F00
1200
1200
0200
0400
0400
0400
ENDCHAR
STARTCHAR U+05E4
ENCODING 1508
SWIDTH 500 0
DWIDTH 6 0
BBX 9 12 -1 -2
BITMAP 
0000
0000
0000
0000
0000
1F00
1200
1200
0400
7800
0000
0000
ENDCHAR
STARTCHAR U+05E5
ENCODING 1509
SWIDTH 500 0
DWIDTH 6 0
BBX 9 12 -1 -2
BITMAP 
0000
0000
0000
0000
0000
1200
1200
1200
1400
3800
2000
2000
ENDCHAR
STARTCHAR U+05E6
ENCODING 1510
SWIDTH 500 0
DWIDTH 6 0
BBX 9 12 -1 -2
BITMAP 
0000
0000
0000
0000
0000
1200
1200
0A00
0400
7C00
0000
0000
ENDCHAR
STARTCHAR U+05E7
ENCODING 1511
SWIDTH 500 0
DWIDTH 6 0
BBX 9 12 -1 -2
BITMAP 
0000
0000
0000
0000
0000
1F00
0200
2200
2400
5800
4000
4000
ENDCHAR
STARTCHAR U+05E8
ENCODING 1512
SWIDTH 500 0
DWIDTH 6 0
BBX 9 12 -1 -2
BITMAP 
0000
0000
0000
0000
0000
1C00
0200
0200
0200
0400
0000
0000
ENDCHAR
STARTCHAR U+05E9
ENCODING 1513
SWIDTH 500 0
DWIDTH 6 0
BBX 9 12 -1 -2
BITMAP 
0000
0000
0000
0000
0000
1500
2A00
3A00
2400
7800
0000
0000
ENDCHAR
STARTCHAR U+05EA
ENCODING 1514
SWIDTH 500 0
DWIDTH 6 0
BBX 9 12 -1 -2
BITMAP 
0000
0000
0000
0000
0000
1F00
1200
1200
1200
6400
0000
0000
ENDCHAR
STARTCHAR U+05F0
ENCODING 1520
SWIDTH 500 0
DWIDTH 6 0
BBX 9 12 -1 -2
BITMAP 
0000
0000
0000
0000
0000
1B00
1200
1200
1200
2400
0000
0000
ENDCHAR
STARTCHAR U+05F1
ENCODING 1521
SWIDTH 500 0
DWIDTH 6 0
BBX 9 12 -1 -2
BITMAP 
0000
0000
0000
0000
0000
1B00
1200
1200
0200
0400
0000
0000
ENDCHAR
STARTCHAR U+05F2
ENCODING 1522
SWIDTH 500 0
DWIDTH 6 0
BBX 9 12 -1 -2
BITMAP 
0000
0000
0000
0000
0000
1B00
1200
1200
0000
0000
0000
0000
ENDCHAR
STARTCHAR U+05F3
ENCODING 1523
SWIDTH 500 0
DWIDTH 6 0
BBX 9 12 -1 -2
BITMAP 
0000
0000
0000
0000
0000
0600
0800
0000
0000
0000
0000
0000
ENDCHAR
STARTCHAR U+05F4
ENCODING 1524
SWIDTH 500 0
DWIDTH 6 0
BBX 9 12 -1 -2
BITMAP 
0000
0000
0000
0000
0000
1900
2400
0000
0000
0000
0000
0000
ENDCHAR
STARTCHAR U+1E02
ENCODING 7682
SWIDTH 500 0
DWIDTH 6 0
BBX 9 12 -1 -2
BITMAP 
0000
0200
0000
1E00
0900
0A00
1C00
1200
1400
7800
0000
0000
ENDCHAR
STARTCHAR U+1E03
ENCODING 7683
SWIDTH 500 0
DWIDTH 6 0
BBX 9 12 -1 -2
BITMAP 
0000
0200
0000
1000
1000
1C00
2200
2200
2400
7800
0000
0000
ENDCHAR
STARTCHAR U+1E04
ENCODING 7684
SWIDTH 500 0
DWIDTH 6 0
BBX 9 12 -1 -2
BITMAP 
0000
0000
0000
1E00
0900
0A00
1C00
1200
1400
7800
0000
1000
ENDCHAR
STARTCHAR U+1E05
ENCODING 7685
SWIDTH 500 0
DWIDTH 6 0
BBX 9 12 -1 -2
BITMAP 
0000
0000
0000
1000
1000
1C00
2200
2200
2400
7800
0000
1000
ENDCHAR
STARTCHAR U+1E06
ENCODING 7686
SWIDTH 500 0
DWIDTH 6 0
BBX 9 12 -1 -2
BITMAP 
0000
0000
0000
1E00
0900
0A00
1C00
1200
1400
7800
0000
7C00
ENDCHAR
STARTCHAR U+1E07
ENCODING 7687
SWIDTH 500 0
DWIDTH 6 0
BBX 9 12 -1 -2
BITMAP 
0000
0000
0000
1000
1000
1C00
2200
2200
2400
7800
0000
7C00
ENDCHAR
STARTCHAR U+1E0A
ENCODING 7690
SWIDTH 500 0
DWIDTH 6 0
BBX 9 12 -1 -2
BITMAP 
0000
0200
0000
1E00
0900
0900
1200
1200
1400
7800
0000
0000
ENDCHAR
STARTCHAR U+1E0B
ENCODING 7691
SWIDTH 500 0
DWIDTH 6 0
BBX 9 12 -1 -2
BITMAP 
0000
0200
0000
0100
0100
0F00
1200
2200
2200
1C00
0000
0000
ENDCHAR
STARTCHAR U+1E0C
ENCODING 7692
SWIDTH 500 0
DWIDTH 6 0
BBX 9 12 -1 -2
BITMAP 
0000
0000
0000
1E00
0900
0900
1200
1200
1400
7800
0000
1000
ENDCHAR
STARTCHAR U+1E0D
ENCODING 7693
SWIDTH 500 0
DWIDTH 6 0
BBX 9 12 -1 -2
BITMAP 
0000
0000
0000
0100
0100
0F00
1200
2200
2200
1C00
0000
1000
ENDCHAR
STARTCHAR U+1E0E
ENCODING 7694
SWIDTH 500 0
DWIDTH 6 0
BBX 9 12 -1 -2
BITMAP 
0000
0000
0000
1E00
0900
0900
1200
1200
1400
7800
0000
7C00
ENDCHAR
STARTCHAR U+1E0F
ENCODING 7695
SWIDTH 500 0
DWIDTH 6 0
BBX 9 12 -1 -2
BITMAP 
0000
0000
0000
0100
0100
0F00
1200
2200
2200
1C00
0000
7C00
ENDCHAR
STARTCHAR U+1E10
ENCODING 7696
SWIDTH 500 0
DWIDTH 6 0
BBX 9 12 -1 -2
BITMAP 
0000
0000
0000
1E00
0900
0900
1200
1200
1400
7800
1000
2000
ENDCHAR
STARTCHAR U+1E11
ENCODING 7697
SWIDTH 500 0
DWIDTH 6 0
BBX 9 12 -1 -2
BITMAP 
0000
0000
0000
0100
0100
0F00
1200
2200
2200
1C00
1000
2000
ENDCHAR
STARTCHAR U+1E12
ENCODING 7698
SWIDTH 500 0
DWIDTH 6 0
BBX 9 12 -1 -2
BITMAP 
0000
0000
0E00
0900
0900
0900
1200
1200
3C00
0000
1000
2800
ENDCHAR
STARTCHAR U+1E13
ENCODING 7699
SWIDTH 500 0
DWIDTH 6 0
BBX 9 12 -1 -2
BITMAP 
0000
0000
0080
0100
0F00
1100
2200
2200
1E00
0000
1000
2800
ENDCHAR
STARTCHAR U+1E1E
ENCODING 7710
SWIDTH 500 0
DWIDTH 6 0
BBX 9 12 -1 -2
BITMAP 
0000
0200
0000
1F00
1000
1000
3C00
2000
2000
4000
0000
0000
ENDCHAR
STARTCHAR U+1E1F
ENCODING 7711
SWIDTH 500 0
DWIDTH 6 0
BBX 9 12 -1 -2
BITMAP 
0000
0200
0000
0600
0900
0800
3800
1000
1000
2000
0000
0000
ENDCHAR
STARTCHAR U+1E30
ENCODING 7728
SWIDTH 500 0
DWIDTH 6 0
BBX 9 12 -1 -2
BITMAP 
0100
0200
0000
1100
1200
1C00
3000
2800
2400
4400
0000
0000
ENDCHAR
STARTCHAR U+1E31
ENCODING 7729
SWIDTH 500 0
DWIDTH 6 0
BBX 9 12 -1 -2
BITMAP 
0000
0100
0200
1000
1000
1300
2400
3800
2400
4400
0000
0000
ENDCHAR
STARTCHAR U+1E32
ENCODING 7730
SWIDTH 500 0
DWIDTH 6 0
BBX 9 12 -1 -2
BITMAP 
0000
0000
0000
1100
1200
1C00
3000
2800
2400
4400
0000
1000
ENDCHAR
STARTCHAR U+1E33
ENCODING 7731
SWIDTH 500 0
DWIDTH 6 0
BBX 9 12 -1 -2
BITMAP 
0000
0000
0000
1000
1000
1300
2400
3800
2400
4400
0000
1000
ENDCHAR
STARTCHAR U+1E34
ENCODING 7732
SWIDTH 500 0
DWIDTH 6 0
BBX 9 12 -1 -2
BITMAP 
0000
0000
0000
1100
1200
1C00
3000
2800
2400
4400
0000
7C00
ENDCHAR
STARTCHAR U+1E35
ENCODING 7733
SWIDTH 500 0
DWIDTH 6 0
BBX 9 12 -1 -2
BITMAP 
0000
0000
0000
1000
1000
1300
2400
3800
2400
4400
0000
7C00
ENDCHAR
STARTCHAR U+1E3E
ENCODING 7742
SWIDTH 500 0
DWIDTH 6 0
BBX 9 12 -1 -2
BITMAP 
0100
0200
0000
1100
1B00
1500
2200
2200
2200
4400
0000
0000
ENDCHAR
STARTCHAR U+1E3F
ENCODING 7743
SWIDTH 500 0
DWIDTH 6 0
BBX 9 12 -1 -2
BITMAP 
0000
0000
0300
0400
0000
1E00
2A00
2A00
2A00
5400
0000
0000
ENDCHAR
STARTCHAR U+1E40
ENCODING 7744
SWIDTH 500 0
DWIDTH 6 0
BBX 9 12 -1 -2
BITMAP 
0000
0200
0000
1100
1B00
1500
2200
2200
2200
4400
0000
0000
ENDCHAR
STARTCHAR U+1E41
ENCODING 7745
SWIDTH 500 0
DWIDTH 6 0
BBX 9 12 -1 -2
BITMAP 
0000
0000
0000
0400
0000
1E00
2A00
2A00
2A00
5400
0000
0000
ENDCHAR
STARTCHAR U+1E42
ENCODING 7746
SWIDTH 500 0
DWIDTH 6 0
BBX 9 12 -1 -2
BITMAP 
0000
0000
0000
1100
1B00
1500
2200
2200
2200
4400
0000
1000
ENDCHAR
STARTCHAR U+1E43
ENCODING 7747
SWIDTH 500 0
DWIDTH 6 0
BBX 9 12 -1 -2
BITMAP 
0000
0000
0000
0000
0000
1E00
2A00
2A00
2A00
5400
0000
1000
ENDCHAR
STARTCHAR U+1E54
ENCODING 7764
SWIDTH 500 0
DWIDTH 6 0
BBX 9 12 -1 -2
BITMAP 
0100
0200
0000
1E00
1100
1200
3C00
2000
2000
4000
0000
0000
ENDCHAR
STARTCHAR U+1E55
ENCODING 7765
SWIDTH 500 0
DWIDTH 6 0
BBX 9 12 -1 -2
BITMAP 
0000
0000
0300
0400
0000
1C00
2200
2200
2400
7800
4000
4000
ENDCHAR
STARTCHAR U+1E56
ENCODING 7766
SWIDTH 500 0
DWIDTH 6 0
BBX 9 12 -1 -2
BITMAP 
0000
0200
0000
1E00
1100
1200
3C00
2000
2000
4000
0000
0000
ENDCHAR
STARTCHAR U+1E57
ENCODING 7767
SWIDTH 500 0
DWIDTH 6 0
BBX 9 12 -1 -2
BITMAP 
0000
0000
0000
0400
0000
1C00
2200
2200
2400
7800
4000
4000
ENDCHAR
STARTCHAR U+1E60
ENCODING 7776
SWIDTH 500 0
DWIDTH 6 0
BBX 9 12 -1 -2
BITMAP 
0000
0200
0000
0E00
1100
1000
0C00
0200
2400
1800
0000
0000
ENDCHAR
STARTCHAR U+1E61
ENCODING 7777
SWIDTH 500 0
DWIDTH 6 0
BBX 9 12 -1 -2
BITMAP 
0000
0000
0000
0400
0000
1F00
2000
1C00
0600
7800
0000
0000
ENDCHAR
STARTCHAR U+1E62
ENCODING 7778
SWIDTH 500 0
DWIDTH 6 0
BBX 9 12 -1 -2
BITMAP 
0000
0000
0000
0E00
1100
1000
0C00
0200
2400
1800
0000
1000
ENDCHAR
STARTCHAR U+1E63
ENCODING 7779
SWIDTH 500 0
DWIDTH 6 0
BBX 9 12 -1 -2
BITMAP 
0000
0000
0000
0000
0000
1F00
2000
1C00
0600
7800
0000
1000
ENDCHAR
STARTCHAR U+1E64
ENCODING 7780
SWIDTH 500 0
DWIDTH 6 0
BBX 9 12 -1 -2
BITMAP 
0480
0100
0000
0E00
1100
1000
0C00
0200
2400
1800
0000
0000
ENDCHAR
STARTCHAR U+1E65
ENCODING 7781
SWIDTH 500 0
DWIDTH 6 0
BBX 9 12 -1 -2
BITMAP 
0000
0000
0580
0200
0000
1F00
2000
1C00
0600
7800
0000
0000
ENDCHAR
STARTCHAR U+1E66
ENCODING 7782
SWIDTH 500 0
DWIDTH 6 0
BBX 9 12 -1 -2
BITMAP 
0200
0000
0700
0400
0F00
1000
0C00
0200
2400
1800
0000
0000
ENDCHAR
STARTCHAR U+1E67
ENCODING 7783
SWIDTH 500 0
DWIDTH 6 0
BBX 9 12 -1 -2
BITMAP 
0200
0000
0500
0600
0000
1F00
2000
1C00
0600
7800
0000
0000
ENDCHAR
STARTCHAR U+1E68
ENCODING 7784
SWIDTH 500 0
DWIDTH 6 0
BBX 9 12 -1 -2
BITMAP 
0000
0200
0000
0E00
1100
1000
0C00
0200
2400
1800
0000
1000
ENDCHAR
STARTCHAR U+1E69
ENCODING 7785
SWIDTH 500 0
DWIDTH 6 0
BBX 9 12 -1 -2
BITMAP 
0000
0000
0000
0400
0000
1F00
2000
1C00
0600
7800
0000
1000
ENDCHAR
STARTCHAR U+1E6A
ENCODING 7786
SWIDTH 500 0
DWIDTH 6 0
BBX 9 12 -1 -2
BITMAP 
0000
0200
0000
1F00
0400
0400
0800
0800
0800
1000
0000
0000
ENDCHAR
STARTCHAR U+1E6B
ENCODING 7787
SWIDTH 500 0
DWIDTH 6 0
BBX 9 12 -1 -2
BITMAP 
0000
0200
0000
0400
0400
1F00
0800
0800
0800
0400
0000
0000
ENDCHAR
STARTCHAR U+1E6C
ENCODING 7788
SWIDTH 500 0
DWIDTH 6 0
BBX 9 12 -1 -2
BITMAP 
0000
0000
0000
1F00
0400
0400
0800
0800
0800
1000
0000
1000
ENDCHAR
STARTCHAR U+1E6D
ENCODING 7789
SWIDTH 500 0
DWIDTH 6 0
BBX 9 12 -1 -2
BITMAP 
0000
0000
0000
0400
0400
1F00
0800
0800
0800
0400
0000
1000
ENDCHAR
STARTCHAR U+1E6E
ENCODING 7790
SWIDTH 500 0
DWIDTH 6 0
BBX 9 12 -1 -2
BITMAP 
0000
0000
0000
1F00
0400
0400
0800
0800
0800
1000
0000
7C00
ENDCHAR
STARTCHAR U+1E6F
ENCODING 7791
SWIDTH 500 0
DWIDTH 6 0
BBX 9 12 -1 -2
BITMAP 
0000
0000
0000
0400
0400
1F00
0800
0800
0800
0400
0000
7C00
ENDCHAR
STARTCHAR U+1E70
ENCODING 7792
SWIDTH 500 0
DWIDTH 6 0
BBX 9 12 -1 -2
BITMAP 
0000
0000
0000
1F00
0400
0400
0800
0800
0800
0000
1000
2800
ENDCHAR
STARTCHAR U+1E71
ENCODING 7793
SWIDTH 500 0
DWIDTH 6 0
BBX 9 12 -1 -2
BITMAP 
0000
0000
0000
0400
0400
1F00
0800
0800
0600
0000
1000
2800
ENDCHAR
STARTCHAR U+1E80
ENCODING 7808
SWIDTH 500 0
DWIDTH 6 0
BBX 9 12 -1 -2
BITMAP 
0400
0200
0000
1100
1100
1100
2200
2A00
3C00
2800
0000
0000
ENDCHAR
STARTCHAR U+1E81
ENCODING 7809
SWIDTH 500 0
DWIDTH 6 0
BBX 9 12 -1 -2
BITMAP 
0000
0000
0400
0400
0000
1100
2200
2A00
3C00
2800
0000
0000
ENDCHAR
STARTCHAR U+1E82
ENCODING 7810
SWIDTH 500 0
DWIDTH 6 0
BBX 9 12 -1 -2
BITMAP 
0100
0200
0000
1100
1100
1100
2200
2A00
3C00
2800
0000
0000
ENDCHAR
STARTCHAR U+1E83
ENCODING 7811
SWIDTH 500 0
DWIDTH 6 0
BBX 9 12 -1 -2
BITMAP 
0000
0000
0300
0400
0000
1100
2200
2A00
3C00
2800
0000
0000
ENDCHAR
STARTCHAR U+1E84
ENCODING 7812
SWIDTH 500 0
DWIDTH 6 0
BBX 9 12 -1 -2
BITMAP 
0000
0500
0000
1100
1100
1100
2200
2A00
3C00
2800
0000
0000
ENDCHAR
STARTCHAR U+1E85
ENCODING 7813
SWIDTH 500 0
DWIDTH 6 0
BBX 9 12 -1 -2
BITMAP 
0000
0000
0000
0A00
0000
1100
2200
2A00
3C00
2800
0000
0000
ENDCHAR
STARTCHAR U+1E86
ENCODING 7814
SWIDTH 500 0
DWIDTH 6 0
BBX 9 12 -1 -2
BITMAP 
0000
0200
0000
1100
1100
1100
2200
2A00
3C00
2800
0000
0000
ENDCHAR
STARTCHAR U+1E87
ENCODING 7815
SWIDTH 500 0
DWIDTH 6 0
BBX 9 12 -1 -2
BITMAP 
0000
0000
0000
0400
0000
1100
2200
2A00
3C00
2800
0000
0000
ENDCHAR
STARTCHAR U+1E88
ENCODING 7816
SWIDTH 500 0
DWIDTH 6 0
BBX 9 12 -1 -2
BITMAP 
0000
0000
0000
1100
1100
1100
2200
2A00
3C00
2800
0000
1000
ENDCHAR
STARTCHAR U+1E89
ENCODING 7817
SWIDTH 500 0
DWIDTH 6 0
BBX 9 12 -1 -2
BITMAP 
0000
0000
0000
0000
0000
1100
2200
2A00
3C00
2800
0000
1000
ENDCHAR
STARTCHAR U+1E8A
ENCODING 7818
SWIDTH 500 0
DWIDTH 6 0
BBX 9 12 -1 -2
BITMAP 
0000
0200
0000
1100
1100
0A00
0C00
1400
2400
4400
0000
0000
ENDCHAR
STARTCHAR U+1E8B
ENCODING 7819
SWIDTH 500 0
DWIDTH 6 0
BBX 9 12 -1 -2
BITMAP 
0000
0000
0000
0400
0000
1300
1400
0800
3400
4400
0000
0000
ENDCHAR
STARTCHAR U+1E8C
ENCODING 7820
SWIDTH 500 0
DWIDTH 6 0
BBX 9 12 -1 -2
BITMAP 
0000
0500
0000
1100
1100
0A00
0C00
1400
2400
4400
0000
0000
ENDCHAR
STARTCHAR U+1E8D
ENCODING 7821
SWIDTH 500 0
DWIDTH 6 0
BBX 9 12 -1 -2
BITMAP 
0000
0000
0000
0A00
0000
1300
1400
0800
3400
4400
0000
0000
ENDCHAR
STARTCHAR U+1E8E
ENCODING 7822
SWIDTH 500 0
DWIDTH 6 0
BBX 9 12 -1 -2
BITMAP 
0000
0200
0000
1100
1100
0A00
0C00
0800
0800
1000
0000
0000
ENDCHAR
STARTCHAR U+1E8F
ENCODING 7823
SWIDTH 500 0
DWIDTH 6 0
BBX 9 12 -1 -2
BITMAP 
0000
0000
0000
0400
0000
1100
2200
2200
1400
1800
2000
4000
ENDCHAR
STARTCHAR U+1EF2
ENCODING 7922
SWIDTH 500 0
DWIDTH 6 0
BBX 9 12 -1 -2
BITMAP 
0400
0200
0000
1100
1100
0A00
0C00
0800
0800
1000
0000
0000
ENDCHAR
STARTCHAR U+1EF3
ENCODING 7923
SWIDTH 500 0
DWIDTH 6 0
BBX 9 12 -1 -2
BITMAP 
0000
0000
0400
0400
0000
1100
2200
2200
1400
1800
2000
4000
ENDCHAR
STARTCHAR U+1EF4
ENCODING 7924
SWIDTH 500 0
DWIDTH 6 0
BBX 9 12 -1 -2
BITMAP 
0000
0000
0000
1100
1100
0A00
0C00
0800
0800
1000
0000
1000
ENDCHAR
STARTCHAR U+1EF5
ENCODING 7925
SWIDTH 500 0
DWIDTH 6 0
BBX 9 12 -1 -2
BITMAP 
0000
0000
0000
0000
0000
1100
2200
2200
1400
1800
2000
4400
ENDCHAR
STARTCHAR U+1EF6
ENCODING 7926
SWIDTH 500 0
DWIDTH 6 0
BBX 9 12 -1 -2
BITMAP 
0200
0500
0200
0400
1100
1200
1400
0800
0800
1000
0000
0000
ENDCHAR
STARTCHAR U+1EF7
ENCODING 7927
SWIDTH 500 0
DWIDTH 6 0
BBX 9 12 -1 -2
BITMAP 
0200
0500
0200
0200
0400
1100
2200
2200
1400
1800
2000
4000
ENDCHAR
STARTCHAR U+1EF8
ENCODING 7928
SWIDTH 500 0
DWIDTH 6 0
BBX 9 12 -1 -2
BITMAP 
0680
0B00
0000
1100
1100
0A00
0C00
0800
0800
1000
0000
0000
ENDCHAR
STARTCHAR U+1EF9
ENCODING 7929
SWIDTH 500 0
DWIDTH 6 0
BBX 9 12 -1 -2
BITMAP 
0000
0000
0E80
1600
0000
1100
2200
2200
1400
1800
2000
4000
ENDCHAR
STARTCHAR U+1F70
ENCODING 8048
SWIDTH 500 0
DWIDTH 6 0
BBX 9 12 -1 -2
BITMAP 
0000
0000
0400
0400
0400
0E00
3C00
3C00
3C00
7800
3800
0000
ENDCHAR
STARTCHAR U+1F71
ENCODING 8049
SWIDTH 500 0
DWIDTH 6 0
BBX 9 12 -1 -2
BITMAP 
0000
0000
0200
0400
0800
0E00
3C00
3C00
3C00
7800
3800
0000
ENDCHAR
STARTCHAR U+1F72
ENCODING 8050
SWIDTH 500 0
DWIDTH 6 0
BBX 9 12 -1 -2
BITMAP 
0000
0000
0400
0400
0400
0C00
3400
1800
3000
6800
3800
0000
ENDCHAR
STARTCHAR U+1F73
ENCODING 8051
SWIDTH 500 0
DWIDTH 6 0
BBX 9 12 -1 -2
BITMAP 
0000
0000
0200
0400
0800
0E00
3400
1800
3000
6800
3800
0000
ENDCHAR
STARTCHAR U+2010
ENCODING 8208
SWIDTH 500 0
DWIDTH 6 0
BBX 9 12 -1 -2
BITMAP 
0000
0000
0000
0000
0000
0000
1C00
0000
0000
0000
0000
0000
ENDCHAR
STARTCHAR U+2011
ENCODING 8209
SWIDTH 500 0
DWIDTH 6 0
BBX 9 12 -1 -2
BITMAP 
0000
0000
0000
0000
0000
0000
1C00
0000
0000
0000
0000
0000
ENDCHAR
STARTCHAR U+2012
ENCODING 8210
SWIDTH 500 0
DWIDTH 6 0
BBX 9 12 -1 -2
BITMAP 
0000
0000
0000
0000
0000
0000
3E00
0000
0000
0000
0000
0000
ENDCHAR
STARTCHAR U+2013
ENCODING 8211
SWIDTH 500 0
DWIDTH 6 0
BBX 9 12 -1 -2
BITMAP 
0000
0000
0000
0000
0000
0000
3E00
0000
0000
0000
0000
0000
ENDCHAR
STARTCHAR U+2014
ENCODING 8212
SWIDTH 500 0
DWIDTH 6 0
BBX 9 12 -1 -2
BITMAP 
0000
0000
0000
0000
0000
0000
7E00
0000
0000
0000
0000
0000
ENDCHAR
STARTCHAR U+2015
ENCODING 8213
SWIDTH 500 0
DWIDTH 6 0
BBX 9 12 -1 -2
BITMAP 
0000
0000
0000
0000
0000
0000
7E00
0000
0000
0000
0000
0000
ENDCHAR
STARTCHAR U+2016
ENCODING 8214
SWIDTH 500 0
DWIDTH 6 0
BBX 9 12 -1 -2
BITMAP 
0000
0000
0000
0A00
0A00
0A00
1400
1400
1400
2800
0000
0000
ENDCHAR
STARTCHAR U+2017
ENCODING 8215
SWIDTH 500 0
DWIDTH 6 0
BBX 9 12 -1 -2
BITMAP 
0000
0000
0000
0000
0000
0000
0000
0000
0000
FC00
0000
FC00
ENDCHAR
STARTCHAR U+2018
ENCODING 8216
SWIDTH 500 0
DWIDTH 6 0
BBX 9 12 -1 -2
BITMAP 
0000
0000
0000
0200
0400
0600
0000
0000
0000
0000
0000
0000
ENDCHAR
STARTCHAR U+2019
ENCODING 8217
SWIDTH 500 0
DWIDTH 6 0
BBX 9 12 -1 -2
BITMAP 
0000
0000
0000
0600
0200
0400
0000
0000
0000
0000
0000
0000
ENDCHAR
STARTCHAR U+201A
ENCODING 8218
SWIDTH 500 0
DWIDTH 6 0
BBX 9 12 -1 -2
BITMAP 
0000
0000
0000
0000
0000
0000
0000
0000
0C00
0800
1000
0000
ENDCHAR
STARTCHAR U+201B
ENCODING 8219
SWIDTH 500 0
DWIDTH 6 0
BBX 9 12 -1 -2
BITMAP 
0000
0000
0000
0600
0400
0200
0000
0000
0000
0000
0000
0000
ENDCHAR
STARTCHAR U+201C
ENCODING 8220
SWIDTH 500 0
DWIDTH 6 0
BBX 9 12 -1 -2
BITMAP 
0000
0000
0000
0900
1200
1B00
0000
0000
0000
0000
0000
0000
ENDCHAR
STARTCHAR U+201D
ENCODING 8221
SWIDTH 500 0
DWIDTH 6 0
BBX 9 12 -1 -2
BITMAP 
0000
0000
0000
1B00
0900
1200
0000
0000
0000
0000
0000
0000
ENDCHAR
STARTCHAR U+201E
ENCODING 8222
SWIDTH 500 0
DWIDTH 6 0
BBX 9 12 -1 -2
BITMAP 
0000
0000
0000
0000
0000
0000
0000
0000
3600
2400
4800
0000
ENDCHAR
STARTCHAR U+201F
ENCODING 8223
SWIDTH 500 0
DWIDTH 6 0
BBX 9 12 -1 -2
BITMAP 
0000
0000
0000
1B00
1200
0900
0000
0000
0000
0000
0000
0000
ENDCHAR
STARTCHAR U+2020
ENCODING 8224
SWIDTH 500 0
DWIDTH 6 0
BBX 9 12 -1 -2
BITMAP 
0000
0000
0000
0400
0400
1F00
0800
0800
0800
1000
0000
0000
ENDCHAR
STARTCHAR U+2021
ENCODING 8225
SWIDTH 500 0
DWIDTH 6 0
BBX 9 12 -1 -2
BITMAP 
0000
0000
0000
0400
1F00
0400
3E00
0800
0800
1000
0000
0000
ENDCHAR
STARTCHAR U+2022
ENCODING 8226
SWIDTH 500 0
DWIDTH 6 0
BBX 9 12 -1 -2
BITMAP 
0000
0000
0000
0000
0600
0F00
1E00
0C00
0000
0000
0000
0000
ENDCHAR
STARTCHAR U+2023
ENCODING 8227
SWIDTH 500 0
DWIDTH 6 0
BBX 9 12 -1 -2
BITMAP 
0000
0000
0000
0000
0800
0C00
1C00
1800
1000
0000
0000
0000
ENDCHAR
STARTCHAR U+2024
ENCODING 8228
SWIDTH 500 0
DWIDTH 6 0
BBX 9 12 -1 -2
BITMAP 
0000
0000
0000
0000
0000
0000
0000
0000
0000
1000
0000
0000
ENDCHAR
STARTCHAR U+2025
ENCODING 8229
SWIDTH 500 0
DWIDTH 6 0
BBX 9 12 -1 -2
BITMAP 
0000
0000
0000
0000
0000
0000
0000
0000
0000
2800
0000
0000
ENDCHAR
STARTCHAR U+2026
ENCODING 8230
SWIDTH 500 0
DWIDTH 6 0
BBX 9 12 -1 -2
BITMAP 
0000
0000
0000
0000
0000
0000
0000
0000
0000
5400
0000
0000
ENDCHAR
STARTCHAR U+2027
ENCODING 8231
SWIDTH 500 0
DWIDTH 6 0
BBX 9 12 -1 -2
BITMAP 
0000
0000
0000
0000
0000
0000
0800
0000
0000
0000
0000
0000
ENDCHAR
STARTCHAR U+2030
ENCODING 8240
SWIDTH 500 0
DWIDTH 6 0
BBX 9 12 -1 -2
BITMAP 
0000
0000
0000
1200
2A00
1C00
1000
3400
6E00
B800
0000
0000
ENDCHAR
STARTCHAR U+2032
ENCODING 8242
SWIDTH 500 0
DWIDTH 6 0
BBX 9 12 -1 -2
BITMAP 
0000
0000
0000
0400
0400
0800
0000
0000
0000
0000
0000
0000
ENDCHAR
STARTCHAR U+2033
ENCODING 8243
SWIDTH 500 0
DWIDTH 6 0
BBX 9 12 -1 -2
BITMAP 
0000
0000
0000
0900
0900
1200
0000
0000
0000
0000
0000
0000
ENDCHAR
STARTCHAR U+2034
ENCODING 8244
SWIDTH 500 0
DWIDTH 6 0
BBX 9 12 -1 -2
BITMAP 
0000
0000
0000
1500
1500
2A00
0000
0000
0000
0000
0000
0000
ENDCHAR
STARTCHAR U+2035
ENCODING 8245
SWIDTH 500 0
DWIDTH 6 0
BBX 9 12 -1 -2
BITMAP 
0000
0000
0000
0800
0800
0400
0000
0000
0000
0000
0000
0000
ENDCHAR
STARTCHAR U+2036
ENCODING 8246
SWIDTH 500 0
DWIDTH 6 0
BBX 9 12 -1 -2
BITMAP 
0000
0000
0000
1200
1200
0900
0000
0000
0000
0000
0000
0000
ENDCHAR
STARTCHAR U+2037
ENCODING 8247
SWIDTH 500 0
DWIDTH 6 0
BBX 9 12 -1 -2
BITMAP 
0000
0000
0000
2A00
2A00
1500
0000
0000
0000
0000
0000
0000
ENDCHAR
STARTCHAR U+2038
ENCODING 8248
SWIDTH 500 0
DWIDTH 6 0
BBX 9 12 -1 -2
BITMAP 
0000
0000
0000
0000
0000
0000
0000
0000
0800
1000
2800
2800
ENDCHAR
STARTCHAR U+2039
ENCODING 8249
SWIDTH 500 0
DWIDTH 6 0
BBX 9 12 -1 -2
BITMAP 
0000
0000
0000
0000
0000
0600
0800
1000
0800
0800
0000
0000
ENDCHAR
STARTCHAR U+203A
ENCODING 8250
SWIDTH 500 0
DWIDTH 6 0
BBX 9 12 -1 -2
BITMAP 
0000
0000
0000
0000
0000
0800
0800
0400
1800
2000
0000
0000
ENDCHAR
STARTCHAR U+203B
ENCODING 8251
SWIDTH 500 0
DWIDTH 6 0
BBX 9 12 -1 -2
BITMAP 
0000
1680
1F00
1200
0C00
3F00
7E00
1800
2400
7800
B400
0000
ENDCHAR
STARTCHAR U+203C
ENCODING 8252
SWIDTH 500 0
DWIDTH 6 0
BBX 9 12 -1 -2
BITMAP 
0000
0000
0000
0A00
0A00
0A00
1400
1400
0000
2800
0000
0000
ENDCHAR
STARTCHAR U+203D
ENCODING 8253
SWIDTH 500 0
DWIDTH 6 0
BBX 9 12 -1 -2
BITMAP 
0000
0000
0000
0E00
1500
0600
0C00
0800
0000
1000
0000
0000
ENDCHAR
STARTCHAR U+203E
ENCODING 8254
SWIDTH 500 0
DWIDTH 6 0
BBX 9 12 -1 -2
BITMAP 
0000
1F80
0000
0000
0000
0000
0000
0000
0000
0000
0000
0000
ENDCHAR
STARTCHAR U+203F
ENCODING 8255
SWIDTH 500 0
DWIDTH 6 0
BBX 9 12 -1 -2
BITMAP 
0000
0000
0000
0000
0000
0000
0000
0000
0000
0000
4400
3800
ENDCHAR
STARTCHAR U+2040
ENCODING 8256
SWIDTH 500 0
DWIDTH 6 0
BBX 9 12 -1 -2
BITMAP 
0000
0700
0880
0000
0000
0000
0000
0000
0000
0000
0000
0000
ENDCHAR
STARTCHAR U+2041
ENCODING 8257
SWIDTH 500 0
DWIDTH 6 0
BBX 9 12 -1 -2
BITMAP 
0000
0000
0000
0000
0000
0100
0200
0400
0800
1000
2800
2800
ENDCHAR
STARTCHAR U+2042
ENCODING 8258
SWIDTH 500 0
DWIDTH 6 0
BBX 9 12 -1 -2
BITMAP 
0000
0000
0000
0000
0400
0E00
0800
1400
3E00
2800
0000
0000
ENDCHAR
STARTCHAR U+2043
ENCODING 8259
SWIDTH 500 0
DWIDTH 6 0
BBX 9 12 -1 -2
BITMAP 
0000
0000
0000
0000
0000
0000
1C00
1C00
0000
0000
0000
0000
ENDCHAR
STARTCHAR U+2044
ENCODING 8260
SWIDTH 500 0
DWIDTH 6 0
BBX 9 12 -1 -2
BITMAP 
0000
0000
0000
0100
0200
0400
0400
0800
1000
2000
0000
0000
ENDCHAR
STARTCHAR U+2045
ENCODING 8261
SWIDTH 500 0
DWIDTH 6 0
BBX 9 12 -1 -2
BITMAP 
0000
0000
0000
0E00
0800
0800
1C00
1000
1000
3800
0000
0000
ENDCHAR
STARTCHAR U+2046
ENCODING 8262
SWIDTH 500 0
DWIDTH 6 0
BBX 9 12 -1 -2
BITMAP 
0000
0000
0000
0E00
0200
0200
1C00
0400
0400
3800
0000
0000
ENDCHAR
STARTCHAR U+2048
ENCODING 8264
SWIDTH 500 0
DWIDTH 6 0
BBX 9 12 -1 -2
BITMAP 
0000
0000
0000
0900
1500
0900
0A00
1200
0000
2400
0000
0000
ENDCHAR
STARTCHAR U+2049
ENCODING 8265
SWIDTH 500 0
DWIDTH 6 0
BBX 9 12 -1 -2
BITMAP 
0000
0000
0000
1200
1500
1200
2200
2400
0000
4800
0000
0000
ENDCHAR
STARTCHAR U+204A
ENCODING 8266
SWIDTH 500 0
DWIDTH 6 0
BBX 9 12 -1 -2
BITMAP 
0000
0000
0000
0000
0000
0F00
0200
0200
0200
0400
0000
0000
ENDCHAR
STARTCHAR U+204B
ENCODING 8267
SWIDTH 500 0
DWIDTH 6 0
BBX 9 12 -1 -2
BITMAP 
0000
0000
0000
1E00
1700
1700
2C00
2800
2800
5000
0000
0000
ENDCHAR
STARTCHAR U+204C
ENCODING 8268
SWIDTH 500 0
DWIDTH 6 0
BBX 9 12 -1 -2
BITMAP 
0000
0000
0000
0000
0700
0D00
1A00
0E00
0000
0000
0000
0000
ENDCHAR
STARTCHAR U+204D
ENCODING 8269
SWIDTH 500 0
DWIDTH 6 0
BBX 9 12 -1 -2
BITMAP 
0000
0000
0000
0000
0E00
0B00
1600
1C00
0000
0000
0000
0000
ENDCHAR
STARTCHAR U+2070
ENCODING 8304
SWIDTH 500 0
DWIDTH 6 0
BBX 9 12 -1 -2
BITMAP 
0200
0500
0500
0600
0400
0000
0000
0000
0000
0000
0000
0000
ENDCHAR
STARTCHAR U+2074
ENCODING 8308
SWIDTH 500 0
DWIDTH 6 0
BBX 9 12 -1 -2
BITMAP 
0400
0400
0500
0E00
0200
0000
0000
0000
0000
0000
0000
0000
ENDCHAR
STARTCHAR U+2075
ENCODING 8309
SWIDTH 500 0
DWIDTH 6 0
BBX 9 12 -1 -2
BITMAP 
0700
0400
0600
0200
0C00
0000
0000
0000
0000
0000
0000
0000
ENDCHAR
STARTCHAR U+2076
ENCODING 8310
SWIDTH 500 0
DWIDTH 6 0
BBX 9 12 -1 -2
BITMAP 
0300
0400
0600
0A00
0400
0000
0000
0000
0000
0000
0000
0000
ENDCHAR
STARTCHAR U+2077
ENCODING 8311
SWIDTH 500 0
DWIDTH 6 0
BBX 9 12 -1 -2
BITMAP 
0700
0100
0200
0400
0400
0000
0000
0000
0000
0000
0000
0000
ENDCHAR
STARTCHAR U+2078
ENCODING 8312
SWIDTH 500 0
DWIDTH 6 0
BBX 9 12 -1 -2
BITMAP 
0200
0500
0600
0A00
0400
0000
0000
0000
0000
0000
0000
0000
ENDCHAR
STARTCHAR U+2079
ENCODING 8313
SWIDTH 500 0
DWIDTH 6 0
BBX 9 12 -1 -2
BITMAP 
0200
0500
0300
0200
0C00
0000
0000
0000
0000
0000
0000
0000
ENDCHAR
STARTCHAR U+207A
ENCODING 8314
SWIDTH 500 0
DWIDTH 6 0
BBX 9 12 -1 -2
BITMAP 
0000
0200
0700
0400
0000
0000
0000
0000
0000
0000
0000
0000
ENDCHAR
STARTCHAR U+207B
ENCODING 8315
SWIDTH 500 0
DWIDTH 6 0
BBX 9 12 -1 -2
BITMAP 
0000
0000
0700
0000
0000
0000
0000
0000
0000
0000
0000
0000
ENDCHAR
STARTCHAR U+207C
ENCODING 8316
SWIDTH 500 0
DWIDTH 6 0
BBX 9 12 -1 -2
BITMAP 
0000
0700
0000
0E00
0000
0000
0000
0000
0000
0000
0000
0000
ENDCHAR
STARTCHAR U+207D
ENCODING 8317
SWIDTH 500 0
DWIDTH 6 0
BBX 9 12 -1 -2
BITMAP 
0200
0400
0400
0400
0400
0000
0000
0000
0000
0000
0000
0000
ENDCHAR
STARTCHAR U+207E
ENCODING 8318
SWIDTH 500 0
DWIDTH 6 0
BBX 9 12 -1 -2
BITMAP 
0400
0200
0200
0400
0800
0000
0000
0000
0000
0000
0000
0000
ENDCHAR
STARTCHAR U+207F
ENCODING 8319
SWIDTH 500 0
DWIDTH 6 0
BBX 9 12 -1 -2
BITMAP 
0000
0600
0600
0A00
0A00
0000
0000
0000
0000
0000
0000
0000
ENDCHAR
STARTCHAR U+2080
ENCODING 8320
SWIDTH 500 0
DWIDTH 6 0
BBX 9 12 -1 -2
BITMAP 
0000
0000
0000
0000
0000
0000
0000
0800
1800
2800
2800
1000
ENDCHAR
STARTCHAR U+2081
ENCODING 8321
SWIDTH 500 0
DWIDTH 6 0
BBX 9 12 -1 -2
BITMAP 
0000
0000
0000
0000
0000
0000
0000
0800
1800
1000
1000
3800
ENDCHAR
STARTCHAR U+2082
ENCODING 8322
SWIDTH 500 0
DWIDTH 6 0
BBX 9 12 -1 -2
BITMAP 
0000
0000
0000
0000
0000
0000
0000
1800
0C00
1000
2000
3800
ENDCHAR
STARTCHAR U+2083
ENCODING 8323
SWIDTH 500 0
DWIDTH 6 0
BBX 9 12 -1 -2
BITMAP 
0000
0000
0000
0000
0000
0000
0000
1800
0C00
1000
0800
3000
ENDCHAR
STARTCHAR U+2084
ENCODING 8324
SWIDTH 500 0
DWIDTH 6 0
BBX 9 12 -1 -2
BITMAP 
0000
0000
0000
0000
0000
0000
0000
1000
1000
2800
3800
0800
ENDCHAR
STARTCHAR U+2085
ENCODING 8325
SWIDTH 500 0
DWIDTH 6 0
BBX 9 12 -1 -2
BITMAP 
0000
0000
0000
0000
0000
0000
0000
1C00
1000
3000
0800
3000
ENDCHAR
STARTCHAR U+2086
ENCODING 8326
SWIDTH 500 0
DWIDTH 6 0
BBX 9 12 -1 -2
BITMAP 
0000
0000
0000
0000
0000
0000
0000
0C00
1000
3000
2800
1000
ENDCHAR
STARTCHAR U+2087
ENCODING 8327
SWIDTH 500 0
DWIDTH 6 0
BBX 9 12 -1 -2
BITMAP 
0000
0000
0000
0000
0000
0000
0000
1C00
0400
0800
1000
1000
ENDCHAR
STARTCHAR U+2088
ENCODING 8328
SWIDTH 500 0
DWIDTH 6 0
BBX 9 12 -1 -2
BITMAP 
0000
0000
0000
0000
0000
0000
0000
0800
1C00
1000
2800
1000
ENDCHAR
STARTCHAR U+2089
ENCODING 8329
SWIDTH 500 0
DWIDTH 6 0
BBX 9 12 -1 -2
BITMAP 
0000
0000
0000
0000
0000
0000
0000
0800
1400
1800
0800
3000
ENDCHAR
STARTCHAR U+208A
ENCODING 8330
SWIDTH 500 0
DWIDTH 6 0
BBX 9 12 -1 -2
BITMAP 
0000
0000
0000
0000
0000
0000
0000
0000
0800
3800
1000
0000
ENDCHAR
STARTCHAR U+208B
ENCODING 8331
SWIDTH 500 0
DWIDTH 6 0
BBX 9 12 -1 -2
BITMAP 
0000
0000
0000
0000
0000
0000
0000
0000
0000
3800
0000
0000
ENDCHAR
STARTCHAR U+208C
ENCODING 8332
SWIDTH 500 0
DWIDTH 6 0
BBX 9 12 -1 -2
BITMAP 
0000
0000
0000
0000
0000
0000
0000
0000
1C00
0000
3800
0000
ENDCHAR
STARTCHAR U+208D
ENCODING 8333
SWIDTH 500 0
DWIDTH 6 0
BBX 9 12 -1 -2
BITMAP 
0000
0000
0000
0000
0000
0000
0000
0800
1000
2000
2000
1000
ENDCHAR
STARTCHAR U+208E
ENCODING 8334
SWIDTH 500 0
DWIDTH 6 0
BBX 9 12 -1 -2
BITMAP 
0000
0000
0000
0000
0000
0000
0000
1000
1000
1000
1000
2000
ENDCHAR
STARTCHAR U+20A0
ENCODING 8352
SWIDTH 500 0
DWIDTH 6 0
BBX 9 12 -1 -2
BITMAP 
0000
0000
0000
0C00
1000
1700
1800
0C00
0800
1C00
0000
0000
ENDCHAR
STARTCHAR U+20A3
ENCODING 8355
SWIDTH 500 0
DWIDTH 6 0
BBX 9 12 -1 -2
BITMAP 
0000
0000
0000
1F00
1000
1000
3A00
2C00
2800
5000
0000
0000
ENDCHAR
STARTCHAR U+20A4
ENCODING 8356
SWIDTH 500 0
DWIDTH 6 0
BBX 9 12 -1 -2
BITMAP 
0000
0000
0000
0600
0900
1C00
1000
3800
3200
4800
0000
0000
ENDCHAR
STARTCHAR U+20A7
ENCODING 8359
SWIDTH 500 0
DWIDTH 6 0
BBX 9 12 -1 -2
BITMAP 
0000
0000
0000
0C00
0A00
1F00
1400
1800
1000
2000
0000
0000
ENDCHAR
STARTCHAR U+20AB
ENCODING 8363
SWIDTH 500 0
DWIDTH 6 0
BBX 9 12 -1 -2
BITMAP 
0000
0000
0000
0200
0F00
1E00
2400
4400
4400
3800
0000
7800
ENDCHAR
STARTCHAR U+20AC
ENCODING 8364
SWIDTH 500 0
DWIDTH 6 0
BBX 9 12 -1 -2
BITMAP 
0000
0000
0000
0700
0800
1E00
1000
3C00
1000
0C00
0000
0000
ENDCHAR
STARTCHAR U+20D0
ENCODING 8400
SWIDTH 500 0
DWIDTH 6 0
BBX 9 12 -1 -2
BITMAP 
0200
0400
0F80
0000
0000
0000
0000
0000
0000
0000
0000
0000
ENDCHAR
STARTCHAR U+20D1
ENCODING 8401
SWIDTH 500 0
DWIDTH 6 0
BBX 9 12 -1 -2
BITMAP 
0200
0100
0F80
0000
0000
0000
0000
0000
0000
0000
0000
0000
ENDCHAR
STARTCHAR U+20D2
ENCODING 8402
SWIDTH 500 0
DWIDTH 6 0
BBX 9 12 -1 -2
BITMAP 
0000
0200
0200
0400
0400
0400
0800
0800
0800
1000
1000
0000
ENDCHAR
STARTCHAR U+20D3
ENCODING 8403
SWIDTH 500 0
DWIDTH 6 0
BBX 9 12 -1 -2
BITMAP 
0000
0000
0000
0400
0400
0400
0800
0800
0800
1000
1000
0000
ENDCHAR
STARTCHAR U+20D4
ENCODING 8404
SWIDTH 500 0
DWIDTH 6 0
BBX 9 12 -1 -2
BITMAP 
0000
0B00
0C80
1C00
0000
0000
0000
0000
0000
0000
0000
0000
ENDCHAR
STARTCHAR U+20D5
ENCODING 8405
SWIDTH 500 0
DWIDTH 6 0
BBX 9 12 -1 -2
BITMAP 
0000
0680
0980
0700
0000
0000
0000
0000
0000
0000
0000
0000
ENDCHAR
STARTCHAR U+20D6
ENCODING 8406
SWIDTH 500 0
DWIDTH 6 0
BBX 9 12 -1 -2
BITMAP 
0000
0400
0F80
0800
0000
0000
0000
0000
0000
0000
0000
0000
ENDCHAR
STARTCHAR U+20D7
ENCODING 8407
SWIDTH 500 0
DWIDTH 6 0
BBX 9 12 -1 -2
BITMAP 
0000
0100
0F80
0200
0000
0000
0000
0000
0000
0000
0000
0000
ENDCHAR
STARTCHAR U+20D8
ENCODING 8408
SWIDTH 500 0
DWIDTH 6 0
BBX 9 12 -1 -2
BITMAP 
0000
0000
0000
0000
0000
0000
0800
1400
0800
0000
0000
0000
ENDCHAR
STARTCHAR U+20D9
ENCODING 8409
SWIDTH 500 0
DWIDTH 6 0
BBX 9 12 -1 -2
BITMAP 
0000
0000
0000
0000
0000
0C00
1200
3A00
1400
1800
0000
0000
ENDCHAR
STARTCHAR U+20DA
ENCODING 8410
SWIDTH 500 0
DWIDTH 6 0
BBX 9 12 -1 -2
BITMAP 
0000
0000
0000
0000
0000
0C00
1400
2E00
2C00
1000
0000
0000
ENDCHAR
STARTCHAR U+20DB
ENCODING 8411
SWIDTH 500 0
DWIDTH 6 0
BBX 9 12 -1 -2
BITMAP 
0000
0A80
0A80
0000
0000
0000
0000
0000
0000
0000
0000
0000
ENDCHAR
STARTCHAR U+20DC
ENCODING 8412
SWIDTH 500 0
DWIDTH 6 0
BBX 9 12 -1 -2
BITMAP 
0000
1680
1680
0000
0000
0000
0000
0000
0000
0000
0000
0000
ENDCHAR
STARTCHAR U+20DD
ENCODING 8413
SWIDTH 500 0
DWIDTH 6 0
BBX 9 12 -1 -2
BITMAP 
0F00
1080
1080
2100
2100
2100
4200
4200
4200
8400
8400
7800
ENDCHAR
STARTCHAR U+20DE
ENCODING 8414
SWIDTH 500 0
DWIDTH 6 0
BBX 9 12 -1 -2
BITMAP 
1F80
1080
1080
2100
2100
2100
4200
4200
4200
8400
8400
FC00
ENDCHAR
STARTCHAR U+20DF
ENCODING 8415
SWIDTH 500 0
DWIDTH 6 0
BBX 9 12 -1 -2
BITMAP 
0600
0600
0A00
1200
2100
2100
4200
4200
4400
4800
3000
3000
ENDCHAR
STARTCHAR U+20E0
ENCODING 8416
SWIDTH 500 0
DWIDTH 6 0
BBX 9 12 -1 -2
BITMAP 
0F00
1880
1880
2900
2900
2900
4A00
4A00
4A00
8C00
8C00
7800
ENDCHAR
STARTCHAR U+20E1
ENCODING 8417
SWIDTH 500 0
DWIDTH 6 0
BBX 9 12 -1 -2
BITMAP 
0000
0500
0F80
0A00
0000
0000
0000
0000
0000
0000
0000
0000
ENDCHAR
STARTCHAR U+20E2
ENCODING 8418
SWIDTH 500 0
DWIDTH 6 0
BBX 9 12 -1 -2
BITMAP 
0000
0E00
1100
2100
2100
2100
4200
4200
4200
4400
3800
0000
ENDCHAR
STARTCHAR U+20E3
ENCODING 8419
SWIDTH 500 0
DWIDTH 6 0
BBX 9 12 -1 -2
BITMAP 
1F80
1F80
1080
2100
2100
2100
4200
4200
4200
8400
FC00
FC00
ENDCHAR
STARTCHAR U+2102
ENCODING 8450
SWIDTH 500 0
DWIDTH 6 0
BBX 9 12 -1 -2
BITMAP 
0000
0000
0000
0E00
1500
1400
2800
2800
2E00
3800
0000
0000
ENDCHAR
STARTCHAR U+2103
ENCODING 8451
SWIDTH 500 0
DWIDTH 6 0
BBX 9 12 -1 -2
BITMAP 
0000
0B00
1D00
1A00
1000
1000
2000
2000
2400
2800
3000
0000
ENDCHAR
STARTCHAR U+2105
ENCODING 8453
SWIDTH 500 0
DWIDTH 6 0
BBX 9 12 -1 -2
BITMAP 
0000
0000
0000
0900
1100
0A00
0C00
1400
2A00
4C00
0000
0000
ENDCHAR
STARTCHAR U+2106
ENCODING 8454
SWIDTH 500 0
DWIDTH 6 0
BBX 9 12 -1 -2
BITMAP 
0000
0000
0000
0900
1100
0A00
0C00
1A00
2C00
4800
0000
0000
ENDCHAR
STARTCHAR U+2107
ENCODING 8455
SWIDTH 500 0
DWIDTH 6 0
BBX 9 12 -1 -2
BITMAP 
0000
0000
0000
0F00
1100
1000
1800
2000
2600
1800
0000
0000
ENDCHAR
STARTCHAR U+2109
ENCODING 8457
SWIDTH 500 0
DWIDTH 6 0
BBX 9 12 -1 -2
BITMAP 
0B80
0E00
0E00
1400
0700
0400
0800
0800
0800
1000
0000
0000
ENDCHAR
STARTCHAR U+210D
ENCODING 8461
SWIDTH 500 0
DWIDTH 6 0
BBX 9 12 -1 -2
BITMAP 
0000
0000
0000
1500
1500
1500
2E00
2A00
2A00
5400
0000
0000
ENDCHAR
STARTCHAR U+210F
ENCODING 8463
SWIDTH 500 0
DWIDTH 6 0
BBX 9 12 -1 -2
BITMAP 
0000
0E00
0700
0C00
1800
0E00
1400
1400
3400
7C00
4800
0000
ENDCHAR
STARTCHAR U+2113
ENCODING 8467
SWIDTH 500 0
DWIDTH 6 0
BBX 9 12 -1 -2
BITMAP 
0000
0000
0000
0200
0500
0600
0A00
0400
1C00
2400
0000
0000
ENDCHAR
STARTCHAR U+2115
ENCODING 8469
SWIDTH 500 0
DWIDTH 6 0
BBX 9 12 -1 -2
BITMAP 
0000
0000
0000
3100
3100
3100
5A00
5A00
5600
A400
0000
0000
ENDCHAR
STARTCHAR U+2116
ENCODING 8470
SWIDTH 500 0
DWIDTH 6 0
BBX 9 12 -1 -2
BITMAP 
0000
0000
0000
2400
2400
3600
5A00
4A00
4C00
9C00
0000
0000
ENDCHAR
STARTCHAR U+2119
ENCODING 8473
SWIDTH 500 0
DWIDTH 6 0
BBX 9 12 -1 -2
BITMAP 
0000
0000
0000
1E00
1500
1600
2C00
2800
2800
5000
0000
0000
ENDCHAR
STARTCHAR U+211A
ENCODING 8474
SWIDTH 500 0
DWIDTH 6 0
BBX 9 12 -1 -2
BITMAP 
0000
0000
0000
0E00
1500
1500
2A00
2A00
2C00
3400
0000
0000
ENDCHAR
STARTCHAR U+211B
ENCODING 8475
SWIDTH 500 0
DWIDTH 6 0
BBX 9 12 -1 -2
BITMAP 
0000
0000
0000
1E00
0900
0A00
1C00
2800
2800
4800
0000
0000
ENDCHAR
STARTCHAR U+211C
ENCODING 8476
SWIDTH 500 0
DWIDTH 6 0
BBX 9 12 -1 -2
BITMAP 
0000
0000
0000
1E00
1500
0E00
0A00
0C00
3400
2400
0000
0000
ENDCHAR
STARTCHAR U+211D
ENCODING 8477
SWIDTH 500 0
DWIDTH 6 0
BBX 9 12 -1 -2
BITMAP 
0000
0000
0000
1E00
1500
1600
2A00
2C00
2C00
5400
0000
0000
ENDCHAR
STARTCHAR U+211E
ENCODING 8478
SWIDTH 500 0
DWIDTH 6 0
BBX 9 12 -1 -2
BITMAP 
0000
0000
0000
1E00
1100
1200
3C00
2A00
2C00
5400
0000
0000
ENDCHAR
STARTCHAR U+211F
ENCODING 8479
SWIDTH 500 0
DWIDTH 6 0
BBX 9 12 -1 -2
BITMAP 
0000
0600
0200
1E00
1500
1600
3C00
2800
2C00
5400
1000
0000
ENDCHAR
STARTCHAR U+2121
ENCODING 8481
SWIDTH 500 0
DWIDTH 6 0
BBX 9 12 -1 -2
BITMAP 
0E00
0400
0400
0E00
0D00
0F00
1800
1A00
1C00
0000
0000
0000
ENDCHAR
STARTCHAR U+2122
ENCODING 8482
SWIDTH 500 0
DWIDTH 6 0
BBX 9 12 -1 -2
BITMAP 
0000
0000
0000
3F00
1700
1500
0000
0000
0000
0000
0000
0000
ENDCHAR
STARTCHAR U+2124
ENCODING 8484
SWIDTH 500 0
DWIDTH 6 0
BBX 9 12 -1 -2
BITMAP 
0000
0000
0000
1F00
0500
0A00
1200
2400
3800
6C00
0000
0000
ENDCHAR
STARTCHAR U+2126
ENCODING 8486
SWIDTH 500 0
DWIDTH 6 0
BBX 9 12 -1 -2
BITMAP 
0000
0000
0000
0E00
1100
1100
2200
2200
1400
6C00
0000
0000
ENDCHAR
STARTCHAR U+2127
ENCODING 8487
SWIDTH 500 0
DWIDTH 6 0
BBX 9 12 -1 -2
BITMAP 
0000
0000
0000
1B00
0A00
1200
2200
2200
2400
1800
0000
0000
ENDCHAR
STARTCHAR U+2128
ENCODING 8488
SWIDTH 500 0
DWIDTH 6 0
BBX 9 12 -1 -2
BITMAP 
0000
0000
0000
0E00
1100
0500
0E00
0A00
2400
1800
0000
0000
ENDCHAR
STARTCHAR U+2129
ENCODING 8489
SWIDTH 500 0
DWIDTH 6 0
BBX 9 12 -1 -2
BITMAP 
0000
0000
0000
0000
0000
0800
0400
0400
0400
0800
0000
0000
ENDCHAR
STARTCHAR U+212A
ENCODING 8490
SWIDTH 500 0
DWIDTH 6 0
BBX 9 12 -1 -2
BITMAP 
0000
0000
0000
1100
1200
1C00
3000
2800
2400
4400
0000
0000
ENDCHAR
STARTCHAR U+212B
ENCODING 8491
SWIDTH 500 0
DWIDTH 6 0
BBX 9 12 -1 -2
BITMAP 
0200
0500
0200
0E00
1100
1100
3E00
2200
2200
4400
0000
0000
ENDCHAR
STARTCHAR U+212C
ENCODING 8492
SWIDTH 500 0
DWIDTH 6 0
BBX 9 12 -1 -2
BITMAP 
0000
0000
0000
1E00
0900
1200
1A00
2400
2800
7000
0000
0000
ENDCHAR
STARTCHAR U+212E
ENCODING 8494
SWIDTH 500 0
DWIDTH 6 0
BBX 9 12 -1 -2
BITMAP 
0000
0000
0000
0000
0000
0E00
3600
3C00
3000
3800
0000
0000
ENDCHAR
STARTCHAR U+212F
ENCODING 8495
SWIDTH 500 0
DWIDTH 6 0
BBX 9 12 -1 -2
BITMAP 
0000
0000
0000
0000
0000
0700
0A00
1C00
2000
1000
0000
0000
ENDCHAR
STARTCHAR U+2130
ENCODING 8496
SWIDTH 500 0
DWIDTH 6 0
BBX 9 12 -1 -2
BITMAP 
0000
0000
0000
0E00
1100
1000
1800
2000
2600
1800
0000
0000
ENDCHAR
STARTCHAR U+2135
ENCODING 8501
SWIDTH 500 0
DWIDTH 6 0
BBX 9 12 -1 -2
BITMAP 
0000
0A00
0A00
1A00
0B00
0E00
1800
2C00
2400
6800
4800
0000
ENDCHAR
STARTCHAR U+2136
ENCODING 8502
SWIDTH 500 0
DWIDTH 6 0
BBX 9 12 -1 -2
BITMAP 
0000
0000
0000
0000
0000
1200
1200
1A00
2400
6400
0000
0000
ENDCHAR
STARTCHAR U+2137
ENCODING 8503
SWIDTH 500 0
DWIDTH 6 0
BBX 9 12 -1 -2
BITMAP 
0000
0000
0000
0000
0000
1E00
0400
0400
0400
7C00
0000
0000
ENDCHAR
STARTCHAR U+2138
ENCODING 8504
SWIDTH 500 0
DWIDTH 6 0
BBX 9 12 -1 -2
BITMAP 
0000
0000
0000
0000
0000
0800
0800
0400
1C00
2400
0000
0000
ENDCHAR
STARTCHAR U+2139
ENCODING 8505
SWIDTH 500 0
DWIDTH 6 0
BBX 9 12 -1 -2
BITMAP 
0000
0000
0000
0000
0000
1F00
0400
0400
0400
0800
0000
0000
ENDCHAR
STARTCHAR U+213A
ENCODING 8506
SWIDTH 500 0
DWIDTH 6 0
BBX 9 12 -1 -2
BITMAP 
0000
0000
0000
0000
0600
0000
1C00
0C00
0C00
3800
0000
0000
ENDCHAR
STARTCHAR U+2153
ENCODING 8531
SWIDTH 500 0
DWIDTH 6 0
BBX 9 12 -1 -2
BITMAP 
0400
0C80
0500
0900
0A00
0F00
0E00
1200
2200
2C00
4C00
0000
ENDCHAR
STARTCHAR U+2154
ENCODING 8532
SWIDTH 500 0
DWIDTH 6 0
BBX 9 12 -1 -2
BITMAP 
0C00
0C80
0500
0900
1200
1F00
0E00
1200
2200
2C00
4C00
0000
ENDCHAR
STARTCHAR U+2155
ENCODING 8533
SWIDTH 500 0
DWIDTH 6 0
BBX 9 12 -1 -2
BITMAP 
0000
0400
0C00
0A00
0A00
0C00
0800
1E00
1800
3800
4400
1800
ENDCHAR
STARTCHAR U+215B
ENCODING 8539
SWIDTH 500 0
DWIDTH 6 0
BBX 9 12 -1 -2
BITMAP 
0400
0C00
0400
0800
0A00
0700
0400
0A00
0C00
0800
0000
0000
ENDCHAR
STARTCHAR U+215C
ENCODING 8540
SWIDTH 500 0
DWIDTH 6 0
BBX 9 12 -1 -2
BITMAP 
0C00
0200
0400
0400
1A00
0700
0400
0A00
0C00
0800
0000
0000
ENDCHAR
STARTCHAR U+215D
ENCODING 8541
SWIDTH 500 0
DWIDTH 6 0
BBX 9 12 -1 -2
BITMAP 
0E00
0800
0C00
0400
1A00
0700
0400
0A00
0C00
0800
0000
0000
ENDCHAR
STARTCHAR U+215E
ENCODING 8542
SWIDTH 500 0
DWIDTH 6 0
BBX 9 12 -1 -2
BITMAP 
0E00
0200
0400
0800
0A00
0700
0400
0A00
0C00
0800
0000
0000
ENDCHAR
STARTCHAR U+2160
ENCODING 8544
SWIDTH 500 0
DWIDTH 6 0
BBX 9 12 -1 -2
BITMAP 
0200
0200
0200
0400
0400
0400
0800
0800
0800
0000
0000
0000
ENDCHAR
STARTCHAR U+2161
ENCODING 8545
SWIDTH 500 0
DWIDTH 6 0
BBX 9 12 -1 -2
BITMAP 
0500
0500
0500
0A00
0A00
0A00
1400
1400
1400
0000
0000
0000
ENDCHAR
STARTCHAR U+2162
ENCODING 8546
SWIDTH 500 0
DWIDTH 6 0
BBX 9 12 -1 -2
BITMAP 
0680
0680
0680
0D00
0D00
0D00
1A00
1A00
1A00
0000
0000
0000
ENDCHAR
STARTCHAR U+2163
ENCODING 8547
SWIDTH 500 0
DWIDTH 6 0
BBX 9 12 -1 -2
BITMAP 
0A80
0A80
0B00
1500
1600
1600
2400
2400
2400
0000
0000
0000
ENDCHAR
STARTCHAR U+2164
ENCODING 8548
SWIDTH 500 0
DWIDTH 6 0
BBX 9 12 -1 -2
BITMAP 
0500
0500
0500
0600
0600
0600
0800
0800
0800
0000
0000
0000
ENDCHAR
STARTCHAR U+2165
ENCODING 8549
SWIDTH 500 0
DWIDTH 6 0
BBX 9 12 -1 -2
BITMAP 
0A80
0A80
0A80
0D00
0D00
0D00
1200
1200
1200
0000
0000
0000
ENDCHAR
STARTCHAR U+2166
ENCODING 8550
SWIDTH 500 0
DWIDTH 6 0
BBX 9 12 -1 -2
BITMAP 
0B80
0B80
0B80
0F00
0F00
0F00
1600
1600
1600
0000
0000
0000
ENDCHAR
STARTCHAR U+2167
ENCODING 8551
SWIDTH 500 0
DWIDTH 6 0
BBX 9 12 -1 -2
BITMAP 
0B80
0B80
0F80
1B00
1B00
1B00
1600
1600
1600
0000
0000
0000
ENDCHAR
STARTCHAR U+2168
ENCODING 8552
SWIDTH 500 0
DWIDTH 6 0
BBX 9 12 -1 -2
BITMAP 
0A80
0A80
0B00
1600
1200
1600
2C00
2A00
2A00
0000
0000
0000
ENDCHAR
STARTCHAR U+2169
ENCODING 8553
SWIDTH 500 0
DWIDTH 6 0
BBX 9 12 -1 -2
BITMAP 
0500
0500
0700
0600
0400
0600
0C00
1400
1400
0000
0000
0000
ENDCHAR
STARTCHAR U+216A
ENCODING 8554
SWIDTH 500 0
DWIDTH 6 0
BBX 9 12 -1 -2
BITMAP 
0000
1B80
0F00
1A00
1A00
1A00
3400
3400
7C00
B800
FC00
0000
ENDCHAR
STARTCHAR U+216B
ENCODING 8555
SWIDTH 500 0
DWIDTH 6 0
BBX 9 12 -1 -2
BITMAP 
0000
1B80
0B00
1E00
1E00
1E00
3C00
3C00
7C00
B800
FC00
0000
ENDCHAR
STARTCHAR U+2170
ENCODING 8560
SWIDTH 500 0
DWIDTH 6 0
BBX 9 12 -1 -2
BITMAP 
0200
0000
0000
0400
0400
0400
0800
0800
0800
0000
0000
0000
ENDCHAR
STARTCHAR U+2171
ENCODING 8561
SWIDTH 500 0
DWIDTH 6 0
BBX 9 12 -1 -2
BITMAP 
0500
0000
0000
0A00
0A00
0A00
1400
1400
1400
0000
0000
0000
ENDCHAR
STARTCHAR U+2172
ENCODING 8562
SWIDTH 500 0
DWIDTH 6 0
BBX 9 12 -1 -2
BITMAP 
0680
0000
0000
0D00
0D00
0D00
1A00
1A00
1A00
0000
0000
0000
ENDCHAR
STARTCHAR U+2173
ENCODING 8563
SWIDTH 500 0
DWIDTH 6 0
BBX 9 12 -1 -2
BITMAP 
0400
0000
0000
0E00
0E00
0E00
1C00
1400
1400
0000
0000
0000
ENDCHAR
STARTCHAR U+2174
ENCODING 8564
SWIDTH 500 0
DWIDTH 6 0
BBX 9 12 -1 -2
BITMAP 
0000
0000
0000
0A00
0A00
0E00
0C00
0800
0800
0000
0000
0000
ENDCHAR
STARTCHAR U+2175
ENCODING 8565
SWIDTH 500 0
DWIDTH 6 0
BBX 9 12 -1 -2
BITMAP 
0100
0000
0000
1600
1600
1E00
1C00
1400
1400
0000
0000
0000
ENDCHAR
STARTCHAR U+2176
ENCODING 8566
SWIDTH 500 0
DWIDTH 6 0
BBX 9 12 -1 -2
BITMAP 
0180
0000
0000
0F00
0F00
0F00
1E00
1600
1600
0000
0000
0000
ENDCHAR
STARTCHAR U+2177
ENCODING 8567
SWIDTH 500 0
DWIDTH 6 0
BBX 9 12 -1 -2
BITMAP 
0380
0000
0000
1F00
1F00
1F00
3E00
1E00
1E00
0000
0000
0000
ENDCHAR
STARTCHAR U+2178
ENCODING 8568
SWIDTH 500 0
DWIDTH 6 0
BBX 9 12 -1 -2
BITMAP 
0800
0000
0000
1500
1600
1200
2400
2C00
2A00
0000
0000
0000
ENDCHAR
STARTCHAR U+2179
ENCODING 8569
SWIDTH 500 0
DWIDTH 6 0
BBX 9 12 -1 -2
BITMAP 
0000
0000
0000
0A00
0600
0400
0800
0C00
1400
0000
0000
0000
ENDCHAR
STARTCHAR U+217A
ENCODING 8570
SWIDTH 500 0
DWIDTH 6 0
BBX 9 12 -1 -2
BITMAP 
0000
0000
0100
0200
0000
1E00
3C00
1400
3C00
5800
7C00
0000
ENDCHAR
STARTCHAR U+217B
ENCODING 8571
SWIDTH 500 0
DWIDTH 6 0
BBX 9 12 -1 -2
BITMAP 
0000
0000
0180
0300
0000
3F00
3600
3600
3600
7C00
FC00
0000
ENDCHAR
STARTCHAR U+2190
ENCODING 8592
SWIDTH 500 0
DWIDTH 6 0
BBX 9 12 -1 -2
BITMAP 
0000
0000
0000
0000
0400
0800
3E00
1000
0800
0000
0000
0000
ENDCHAR
STARTCHAR U+2191
ENCODING 8593
SWIDTH 500 0
DWIDTH 6 0
BBX 9 12 -1 -2
BITMAP 
0000
0000
0000
0400
0E00
1500
0800
0800
0800
1000
0000
0000
ENDCHAR
STARTCHAR U+2192
ENCODING 8594
SWIDTH 500 0
DWIDTH 6 0
BBX 9 12 -1 -2
BITMAP 
0000
0000
0000
0000
0400
0200
3E00
0400
0800
0000
0000
0000
ENDCHAR
STARTCHAR U+2193
ENCODING 8595
SWIDTH 500 0
DWIDTH 6 0
BBX 9 12 -1 -2
BITMAP 
0000
0000
0000
0400
0400
0400
0800
2A00
1C00
1000
0000
0000
ENDCHAR
STARTCHAR U+2194
ENCODING 8596
SWIDTH 500 0
DWIDTH 6 0
BBX 9 12 -1 -2
BITMAP 
0000
0000
0000
0000
0000
0A00
3E00
1400
0000
0000
0000
0000
ENDCHAR
STARTCHAR U+2195
ENCODING 8597
SWIDTH 500 0
DWIDTH 6 0
BBX 9 12 -1 -2
BITMAP 
0000
0000
0000
0400
0E00
1500
0800
2A00
1C00
1000
0000
0000
ENDCHAR
STARTCHAR U+2196
ENCODING 8598
SWIDTH 500 0
DWIDTH 6 0
BBX 9 12 -1 -2
BITMAP 
0000
0E00
0C00
1800
1400
1400
0400
0400
0400
0400
0000
0000
ENDCHAR
STARTCHAR U+2197
ENCODING 8599
SWIDTH 500 0
DWIDTH 6 0
BBX 9 12 -1 -2
BITMAP 
0380
0080
0180
0300
0500
0800
0800
1000
2000
0000
0000
0000
ENDCHAR
STARTCHAR U+2198
ENCODING 8600
SWIDTH 500 0
DWIDTH 6 0
BBX 9 12 -1 -2
BITMAP 
0000
0800
0800
0800
0400
0500
0600
0600
0200
1C00
0000
0000
ENDCHAR
STARTCHAR U+2199
ENCODING 8601
SWIDTH 500 0
DWIDTH 6 0
BBX 9 12 -1 -2
BITMAP 
0080
0080
0100
0200
1400
1800
2800
3000
3800
0000
0000
0000
ENDCHAR
STARTCHAR U+21A4
ENCODING 8612
SWIDTH 500 0
DWIDTH 6 0
BBX 9 12 -1 -2
BITMAP 
0000
0000
0000
0000
0500
0900
3E00
1200
0A00
0000
0000
0000
ENDCHAR
STARTCHAR U+21A5
ENCODING 8613
SWIDTH 500 0
DWIDTH 6 0
BBX 9 12 -1 -2
BITMAP 
0000
0000
0000
0400
0E00
1500
0800
0800
0800
7C00
0000
0000
ENDCHAR
STARTCHAR U+21A6
ENCODING 8614
SWIDTH 500 0
DWIDTH 6 0
BBX 9 12 -1 -2
BITMAP 
0000
0000
0000
0000
1400
1200
3E00
2400
2800
0000
0000
0000
ENDCHAR
STARTCHAR U+21A7
ENCODING 8615
SWIDTH 500 0
DWIDTH 6 0
BBX 9 12 -1 -2
BITMAP 
0000
0000
0000
1F00
0400
0400
0800
2A00
1C00
1000
0000
0000
ENDCHAR
STARTCHAR U+21A8
ENCODING 8616
SWIDTH 500 0
DWIDTH 6 0
BBX 9 12 -1 -2
BITMAP 
0000
0000
0000
0400
0E00
1500
0800
2A00
1C00
7C00
0000
0000
ENDCHAR
STARTCHAR U+21C4
ENCODING 8644
SWIDTH 500 0
DWIDTH 6 0
BBX 9 12 -1 -2
BITMAP 
0000
0100
0080
3F00
0100
0200
2000
2000
7E00
4000
4000
0000
ENDCHAR
STARTCHAR U+21D0
ENCODING 8656
SWIDTH 500 0
DWIDTH 6 0
BBX 9 12 -1 -2
BITMAP 
0000
0000
0000
0000
0400
1F00
2000
1E00
0800
0000
0000
0000
ENDCHAR
STARTCHAR U+21D1
ENCODING 8657
SWIDTH 500 0
DWIDTH 6 0
BBX 9 12 -1 -2
BITMAP 
0000
0000
0000
0400
0A00
1B00
1400
1400
1400
2800
0000
0000
ENDCHAR
STARTCHAR U+21D2
ENCODING 8658
SWIDTH 500 0
DWIDTH 6 0
BBX 9 12 -1 -2
BITMAP 
0000
0000
0000
0000
0400
1E00
0200
3C00
0800
0000
0000
0000
ENDCHAR
STARTCHAR U+21D3
ENCODING 8659
SWIDTH 500 0
DWIDTH 6 0
BBX 9 12 -1 -2
BITMAP 
0000
0000
0000
0A00
0A00
0A00
1400
3600
1800
1000
0000
0000
ENDCHAR
STARTCHAR U+21D4
ENCODING 8660
SWIDTH 500 0
DWIDTH 6 0
BBX 9 12 -1 -2
BITMAP 
0000
0000
0000
0000
1200
3E00
4200
7E00
2400
0000
0000
0000
ENDCHAR
STARTCHAR U+21D5
ENCODING 8661
SWIDTH 500 0
DWIDTH 6 0
BBX 9 12 -1 -2
BITMAP 
0000
0000
0000
0400
0A00
1B00
1400
3600
1800
1000
0000
0000
ENDCHAR
STARTCHAR U+21E6
ENCODING 8678
SWIDTH 500 0
DWIDTH 6 0
BBX 9 12 -1 -2
BITMAP 
0000
0000
0400
1800
1F00
2100
2200
3E00
3000
2000
0000
0000
ENDCHAR
STARTCHAR U+21E7
ENCODING 8679
SWIDTH 500 0
DWIDTH 6 0
BBX 9 12 -1 -2
BITMAP 
0000
0600
0E00
1200
1E00
1400
1800
1800
1800
3000
3000
3000
ENDCHAR
STARTCHAR U+21E8
ENCODING 8680
SWIDTH 500 0
DWIDTH 6 0
BBX 9 12 -1 -2
BITMAP 
0000
0000
0100
0200
3F00
2100
4200
7E00
0400
0800
0000
0000
ENDCHAR
STARTCHAR U+21E9
ENCODING 8681
SWIDTH 500 0
DWIDTH 6 0
BBX 9 12 -1 -2
BITMAP 
0000
0600
0600
0C00
0C00
0C00
1800
1800
3800
4800
3000
3000
ENDCHAR
STARTCHAR U+2200
ENCODING 8704
SWIDTH 500 0
DWIDTH 6 0
BBX 9 12 -1 -2
BITMAP 
0000
0000
0000
1100
1100
1F00
2200
1400
1800
1000
0000
0000
ENDCHAR
STARTCHAR U+2201
ENCODING 8705
SWIDTH 500 0
DWIDTH 6 0
BBX 9 12 -1 -2
BITMAP 
0000
0000
0000
0400
0A00
0800
1000
1000
1400
1800
0000
0000
ENDCHAR
STARTCHAR U+2202
ENCODING 8706
SWIDTH 500 0
DWIDTH 6 0
BBX 9 12 -1 -2
BITMAP 
0000
0000
0000
0600
0900
0100
0E00
1200
1400
1800
0000
0000
ENDCHAR
STARTCHAR U+2203
ENCODING 8707
SWIDTH 500 0
DWIDTH 6 0
BBX 9 12 -1 -2
BITMAP 
0000
0000
0000
1F00
0100
0100
1E00
0200
0200
7C00
0000
0000
ENDCHAR
STARTCHAR U+2204
ENCODING 8708
SWIDTH 500 0
DWIDTH 6 0
BBX 9 12 -1 -2
BITMAP 
0000
0100
0100
1F00
0300
0500
1E00
0A00
1200
7C00
2000
2000
ENDCHAR
STARTCHAR U+2205
ENCODING 8709
SWIDTH 500 0
DWIDTH 6 0
BBX 9 12 -1 -2
BITMAP 
0000
0000
0100
0200
0E00
1200
2A00
3200
1C00
2000
2000
0000
ENDCHAR
STARTCHAR U+2206
ENCODING 8710
SWIDTH 500 0
DWIDTH 6 0
BBX 9 12 -1 -2
BITMAP 
0000
0000
0000
0400
0400
0C00
1400
2200
2200
7C00
0000
0000
ENDCHAR
STARTCHAR U+2207
ENCODING 8711
SWIDTH 500 0
DWIDTH 6 0
BBX 9 12 -1 -2
BITMAP 
0000
0000
0000
1F00
1100
1200
1200
1400
1800
1000
0000
0000
ENDCHAR
STARTCHAR U+2208
ENCODING 8712
SWIDTH 500 0
DWIDTH 6 0
BBX 9 12 -1 -2
BITMAP 
0000
0000
0000
0700
0800
1000
3C00
2000
1000
0C00
0000
0000
ENDCHAR
STARTCHAR U+2209
ENCODING 8713
SWIDTH 500 0
DWIDTH 6 0
BBX 9 12 -1 -2
BITMAP 
0000
0200
0200
0700
0C00
1400
3C00
2800
1800
1C00
1000
1000
ENDCHAR
STARTCHAR U+220A
ENCODING 8714
SWIDTH 500 0
DWIDTH 6 0
BBX 9 12 -1 -2
BITMAP 
0000
0000
0000
0000
0700
0800
1C00
1000
0E00
0000
0000
0000
ENDCHAR
STARTCHAR U+220B
ENCODING 8715
SWIDTH 500 0
DWIDTH 6 0
BBX 9 12 -1 -2
BITMAP 
0000
0000
0000
1C00
0200
0100
1E00
0200
0C00
7000
0000
0000
ENDCHAR
STARTCHAR U+220C
ENCODING 8716
SWIDTH 500 0
DWIDTH 6 0
BBX 9 12 -1 -2
BITMAP 
0000
0200
0200
1C00
0600
0500
1E00
0A00
0C00
7000
1000
1000
ENDCHAR
STARTCHAR U+220D
ENCODING 8717
SWIDTH 500 0
DWIDTH 6 0
BBX 9 12 -1 -2
BITMAP 
0000
0000
0000
0000
0E00
0100
0E00
0200
1C00
0000
0000
0000
ENDCHAR
STARTCHAR U+220E
ENCODING 8718
SWIDTH 500 0
DWIDTH 6 0
BBX 9 12 -1 -2
BITMAP 
0000
0000
0000
0000
1F00
1F00
3E00
3E00
3E00
0000
0000
0000
ENDCHAR
STARTCHAR U+220F
ENCODING 8719
SWIDTH 500 0
DWIDTH 6 0
BBX 9 12 -1 -2
BITMAP 
0000
0000
1F80
1200
1200
1200
2400
2400
2400
4800
EC00
0000
ENDCHAR
STARTCHAR U+2210
ENCODING 8720
SWIDTH 500 0
DWIDTH 6 0
BBX 9 12 -1 -2
BITMAP 
0000
0000
1D80
1200
1200
1200
2400
2400
2400
4800
FC00
0000
ENDCHAR
STARTCHAR U+2211
ENCODING 8721
SWIDTH 500 0
DWIDTH 6 0
BBX 9 12 -1 -2
BITMAP 
0000
0000
0F80
1000
0800
0400
0400
0800
1000
2000
7C00
0000
ENDCHAR
STARTCHAR U+2212
ENCODING 8722
SWIDTH 500 0
DWIDTH 6 0
BBX 9 12 -1 -2
BITMAP 
0000
0000
0000
0000
0000
0000
3E00
0000
0000
0000
0000
0000
ENDCHAR
STARTCHAR U+2213
ENCODING 8723
SWIDTH 500 0
DWIDTH 6 0
BBX 9 12 -1 -2
BITMAP 
0000
0000
0000
1F00
0000
0400
0800
3E00
0800
1000
0000
0000
ENDCHAR
STARTCHAR U+2214
ENCODING 8724
SWIDTH 500 0
DWIDTH 6 0
BBX 9 12 -1 -2
BITMAP 
0000
0000
0000
0400
0000
0400
0800
3E00
0800
1000
0000
0000
ENDCHAR
STARTCHAR U+2215
ENCODING 8725
SWIDTH 500 0
DWIDTH 6 0
BBX 9 12 -1 -2
BITMAP 
0000
0000
0000
0100
0200
0400
0800
1000
2000
4000
0000
0000
ENDCHAR
STARTCHAR U+2216
ENCODING 8726
SWIDTH 500 0
DWIDTH 6 0
BBX 9 12 -1 -2
BITMAP 
0000
0000
0000
1000
0800
0800
0800
0400
0400
0400
0000
0000
ENDCHAR
STARTCHAR U+2217
ENCODING 8727
SWIDTH 500 0
DWIDTH 6 0
BBX 9 12 -1 -2
BITMAP 
0000
0000
0000
0000
0400
1700
1C00
2A00
0800
0000
0000
0000
ENDCHAR
STARTCHAR U+2218
ENCODING 8728
SWIDTH 500 0
DWIDTH 6 0
BBX 9 12 -1 -2
BITMAP 
0000
0000
0000
0000
0000
0C00
1400
0800
0000
0000
0000
0000
ENDCHAR
STARTCHAR U+2219
ENCODING 8729
SWIDTH 500 0
DWIDTH 6 0
BBX 9 12 -1 -2
BITMAP 
0000
0000
0000
0000
0000
0600
0C00
0000
0000
0000
0000
0000
ENDCHAR
STARTCHAR U+221A
ENCODING 8730
SWIDTH 500 0
DWIDTH 6 0
BBX 9 12 -1 -2
BITMAP 
0000
0180
0100
0200
0200
0400
0400
6800
3000
5000
2000
2000
ENDCHAR
STARTCHAR U+221D
ENCODING 8733
SWIDTH 500 0
DWIDTH 6 0
BBX 9 12 -1 -2
BITMAP 
0000
0000
0000
0000
0000
0F00
1800
2800
1600
0000
0000
0000
ENDCHAR
STARTCHAR U+221E
ENCODING 8734
SWIDTH 500 0
DWIDTH 6 0
BBX 9 12 -1 -2
BITMAP 
0000
0000
0000
0000
0000
0E00
1A00
2A00
1400
0000
0000
0000
ENDCHAR
STARTCHAR U+221F
ENCODING 8735
SWIDTH 500 0
DWIDTH 6 0
BBX 9 12 -1 -2
BITMAP 
0000
0000
0000
0000
0000
1000
2000
2000
2000
7C00
0000
0000
ENDCHAR
STARTCHAR U+2220
ENCODING 8736
SWIDTH 500 0
DWIDTH 6 0
BBX 9 12 -1 -2
BITMAP 
0000
0000
0000
0000
0100
0600
0800
1000
3E00
0000
0000
0000
ENDCHAR
STARTCHAR U+2221
ENCODING 8737
SWIDTH 500 0
DWIDTH 6 0
BBX 9 12 -1 -2
BITMAP 
0000
0000
0000
0000
1100
0E00
0800
1400
3E00
0800
0800
0000
ENDCHAR
STARTCHAR U+2223
ENCODING 8739
SWIDTH 500 0
DWIDTH 6 0
BBX 9 12 -1 -2
BITMAP 
0000
0000
0200
0400
0400
0400
0800
0800
0800
1000
1000
0000
ENDCHAR
STARTCHAR U+2224
ENCODING 8740
SWIDTH 500 0
DWIDTH 6 0
BBX 9 12 -1 -2
BITMAP 
0000
0000
0200
0400
0500
0600
0800
1800
2800
1000
1000
0000
ENDCHAR
STARTCHAR U+2225
ENCODING 8741
SWIDTH 500 0
DWIDTH 6 0
BBX 9 12 -1 -2
BITMAP 
0000
0000
0500
0A00
0A00
0A00
1400
1400
1400
2800
2800
0000
ENDCHAR
STARTCHAR U+2226
ENCODING 8742
SWIDTH 500 0
DWIDTH 6 0
BBX 9 12 -1 -2
BITMAP 
0000
0000
0500
0A00
0B00
0A00
1C00
1400
3400
2800
2800
0000
ENDCHAR
STARTCHAR U+2227
ENCODING 8743
SWIDTH 500 0
DWIDTH 6 0
BBX 9 12 -1 -2
BITMAP 
0000
0000
0000
0000
0000
0400
0800
1400
2400
4400
0000
0000
ENDCHAR
STARTCHAR U+2228
ENCODING 8744
SWIDTH 500 0
DWIDTH 6 0
BBX 9 12 -1 -2
BITMAP 
0000
0000
0000
0000
0000
1100
1200
1400
1800
1000
0000
0000
ENDCHAR
STARTCHAR U+2229
ENCODING 8745
SWIDTH 500 0
DWIDTH 6 0
BBX 9 12 -1 -2
BITMAP 
0000
0000
0000
0000
0000
0C00
1200
2200
2200
4400
0000
0000
ENDCHAR
STARTCHAR U+222A
ENCODING 8746
SWIDTH 500 0
DWIDTH 6 0
BBX 9 12 -1 -2
BITMAP 
0000
0000
0000
0000
0000
1100
2200
2200
2400
1800
0000
0000
ENDCHAR
STARTCHAR U+222B
ENCODING 8747
SWIDTH 500 0
DWIDTH 6 0
BBX 9 12 -1 -2
BITMAP 
0000
0100
0280
0400
0400
0400
0800
0800
0800
5000
2000
0000
ENDCHAR
STARTCHAR U+222C
ENCODING 8748
SWIDTH 500 0
DWIDTH 6 0
BBX 9 12 -1 -2
BITMAP 
0780
0500
0E00
1400
1E00
1E00
1400
1400
1400
2800
2800
5000
ENDCHAR
STARTCHAR U+222E
ENCODING 8750
SWIDTH 500 0
DWIDTH 6 0
BBX 9 12 -1 -2
BITMAP 
0000
0100
0280
0400
0E00
1600
1A00
0C00
0800
5000
2000
0000
ENDCHAR
STARTCHAR U+2234
ENCODING 8756
SWIDTH 500 0
DWIDTH 6 0
BBX 9 12 -1 -2
BITMAP 
0000
0000
0600
0C00
0000
0000
0000
0000
2400
4800
0000
0000
ENDCHAR
STARTCHAR U+2235
ENCODING 8757
SWIDTH 500 0
DWIDTH 6 0
BBX 9 12 -1 -2
BITMAP 
0000
0000
1B00
3600
0000
0000
0000
0000
1000
2000
0000
0000
ENDCHAR
STARTCHAR U+2236
ENCODING 8758
SWIDTH 500 0
DWIDTH 6 0
BBX 9 12 -1 -2
BITMAP 
0000
0000
0000
0800
0800
0000
0000
1000
0000
0000
0000
0000
ENDCHAR
STARTCHAR U+2237
ENCODING 8759
SWIDTH 500 0
DWIDTH 6 0
BBX 9 12 -1 -2
BITMAP 
0000
0000
0900
1200
0000
0000
0000
0400
2C00
0000
0000
0000
ENDCHAR
STARTCHAR U+223C
ENCODING 8764
SWIDTH 500 0
DWIDTH 6 0
BBX 9 12 -1 -2
BITMAP 
0000
0000
0000
0000
0000
1800
2A00
0400
0000
0000
0000
0000
ENDCHAR
STARTCHAR U+223D
ENCODING 8765
SWIDTH 500 0
DWIDTH 6 0
BBX 9 12 -1 -2
BITMAP 
0000
0000
0000
1E00
1600
2600
2A00
3400
3C00
0000
0000
0000
ENDCHAR
STARTCHAR U+2243
ENCODING 8771
SWIDTH 500 0
DWIDTH 6 0
BBX 9 12 -1 -2
BITMAP 
0000
0000
0000
0000
0900
1600
2400
0000
3E00
0000
0000
0000
ENDCHAR
STARTCHAR U+2245
ENCODING 8773
SWIDTH 500 0
DWIDTH 6 0
BBX 9 12 -1 -2
BITMAP 
0000
0000
0000
0900
1500
1200
0000
3E00
0000
7C00
0000
0000
ENDCHAR
STARTCHAR U+2248
ENCODING 8776
SWIDTH 500 0
DWIDTH 6 0
BBX 9 12 -1 -2
BITMAP 
0000
0000
0000
0000
0900
1600
1400
1200
2C00
4800
0000
0000
ENDCHAR
STARTCHAR U+2249
ENCODING 8777
SWIDTH 500 0
DWIDTH 6 0
BBX 9 12 -1 -2
BITMAP 
0000
0000
0000
0400
0D00
1600
1C00
1A00
2C00
5800
1000
0000
ENDCHAR
STARTCHAR U+224C
ENCODING 8780
SWIDTH 500 0
DWIDTH 6 0
BBX 9 12 -1 -2
BITMAP 
0000
0300
0300
2500
2900
3200
2400
7C00
0000
F800
0000
0000
ENDCHAR
STARTCHAR U+2252
ENCODING 8786
SWIDTH 500 0
DWIDTH 6 0
BBX 9 12 -1 -2
BITMAP 
0000
0C00
0C00
0000
3F00
0000
0000
7E00
0000
1800
1800
0000
ENDCHAR
STARTCHAR U+2259
ENCODING 8793
SWIDTH 500 0
DWIDTH 6 0
BBX 9 12 -1 -2
BITMAP 
0000
0000
0000
0400
0A00
0000
3E00
0000
3E00
0000
0000
0000
ENDCHAR
STARTCHAR U+225F
ENCODING 8799
SWIDTH 500 0
DWIDTH 6 0
BBX 9 12 -1 -2
BITMAP 
0000
0200
0600
0200
0400
0000
0800
3E00
0000
7C00
0000
0000
ENDCHAR
STARTCHAR U+2260
ENCODING 8800
SWIDTH 500 0
DWIDTH 6 0
BBX 9 12 -1 -2
BITMAP 
0000
0000
0000
0200
0200
1F00
0800
3E00
1000
2000
0000
0000
ENDCHAR
STARTCHAR U+2261
ENCODING 8801
SWIDTH 500 0
DWIDTH 6 0
BBX 9 12 -1 -2
BITMAP 
0000
0000
0000
0000
1F00
0000
3E00
0000
3E00
0000
0000
0000
ENDCHAR
STARTCHAR U+2262
ENCODING 8802
SWIDTH 500 0
DWIDTH 6 0
BBX 9 12 -1 -2
BITMAP 
0000
0000
0000
0200
1F00
0400
3E00
0800
3E00
2000
0000
0000
ENDCHAR
STARTCHAR U+2263
ENCODING 8803
SWIDTH 500 0
DWIDTH 6 0
BBX 9 12 -1 -2
BITMAP 
0000
0000
0000
1F00
0000
1F00
0000
3E00
0000
7C00
0000
0000
ENDCHAR
STARTCHAR U+2264
ENCODING 8804
SWIDTH 500 0
DWIDTH 6 0
BBX 9 12 -1 -2
BITMAP 
0000
0000
0000
0300
0C00
1000
0800
0600
0000
7C00
0000
0000
ENDCHAR
STARTCHAR U+2265
ENCODING 8805
SWIDTH 500 0
DWIDTH 6 0
BBX 9 12 -1 -2
BITMAP 
0000
0000
0000
1800
0600
0300
0C00
3000
0000
7C00
0000
0000
ENDCHAR
STARTCHAR U+2266
ENCODING 8806
SWIDTH 500 0
DWIDTH 6 0
BBX 9 12 -1 -2
BITMAP 
0000
0000
0180
0600
1800
0400
0200
3E00
0000
7C00
0000
0000
ENDCHAR
STARTCHAR U+2267
ENCODING 8807
SWIDTH 500 0
DWIDTH 6 0
BBX 9 12 -1 -2
BITMAP 
0000
0000
0800
0400
0300
0C00
1000
3E00
0000
7C00
0000
0000
ENDCHAR
STARTCHAR U+2268
ENCODING 8808
SWIDTH 500 0
DWIDTH 6 0
BBX 9 12 -1 -2
BITMAP 
0000
0000
0180
0600
1800
0600
0600
3E00
0800
7C00
2000
0000
ENDCHAR
STARTCHAR U+2269
ENCODING 8809
SWIDTH 500 0
DWIDTH 6 0
BBX 9 12 -1 -2
BITMAP 
0000
0000
0800
0400
0300
0C00
1400
3E00
0800
7C00
2000
0000
ENDCHAR
STARTCHAR U+226A
ENCODING 8810
SWIDTH 500 0
DWIDTH 6 0
BBX 9 12 -1 -2
BITMAP 
0000
0000
0000
0000
0500
1A00
2800
1400
0A00
0000
0000
0000
ENDCHAR
STARTCHAR U+226B
ENCODING 8811
SWIDTH 500 0
DWIDTH 6 0
BBX 9 12 -1 -2
BITMAP 
0000
0000
0000
0000
1400
0E00
0A00
1400
2800
0000
0000
0000
ENDCHAR
STARTCHAR U+226E
ENCODING 8814
SWIDTH 500 0
DWIDTH 6 0
BBX 9 12 -1 -2
BITMAP 
0000
0700
0600
0800
3800
2800
3000
1000
1800
3000
0000
0000
ENDCHAR
STARTCHAR U+226F
ENCODING 8815
SWIDTH 500 0
DWIDTH 6 0
BBX 9 12 -1 -2
BITMAP 
0000
0A00
0600
0400
0600
0700
0C00
0C00
1800
3000
4000
0000
ENDCHAR
STARTCHAR U+2276
ENCODING 8822
SWIDTH 500 0
DWIDTH 6 0
BBX 9 12 -1 -2
BITMAP 
0000
0180
0600
1800
0C00
0300
3000
1800
0E00
3000
6000
0000
ENDCHAR
STARTCHAR U+2277
ENCODING 8823
SWIDTH 500 0
DWIDTH 6 0
BBX 9 12 -1 -2
BITMAP 
0000
0C00
0600
0300
0C00
1800
0600
1800
3000
3000
0C00
0000
ENDCHAR
STARTCHAR U+2282
ENCODING 8834
SWIDTH 500 0
DWIDTH 6 0
BBX 9 12 -1 -2
BITMAP 
0000
0000
0000
0000
0F00
1000
2000
2000
1E00
0000
0000
0000
ENDCHAR
STARTCHAR U+2283
ENCODING 8835
SWIDTH 500 0
DWIDTH 6 0
BBX 9 12 -1 -2
BITMAP 
0000
0000
0000
0000
1C00
0200
0200
0200
3C00
0000
0000
0000
ENDCHAR
STARTCHAR U+2284
ENCODING 8836
SWIDTH 500 0
DWIDTH 6 0
BBX 9 12 -1 -2
BITMAP 
0000
0000
0000
0200
0F00
1400
2800
2800
3E00
2000
0000
0000
ENDCHAR
STARTCHAR U+2285
ENCODING 8837
SWIDTH 500 0
DWIDTH 6 0
BBX 9 12 -1 -2
BITMAP 
0000
0000
0000
0200
1E00
0600
0A00
0A00
3C00
2000
0000
0000
ENDCHAR
STARTCHAR U+2286
ENCODING 8838
SWIDTH 500 0
DWIDTH 6 0
BBX 9 12 -1 -2
BITMAP 
0000
0000
0000
0F00
1000
1000
1000
0E00
0000
7C00
0000
0000
ENDCHAR
STARTCHAR U+2287
ENCODING 8839
SWIDTH 500 0
DWIDTH 6 0
BBX 9 12 -1 -2
BITMAP 
0000
0000
0000
1E00
0100
0100
0200
3C00
0000
7C00
0000
0000
ENDCHAR
STARTCHAR U+2288
ENCODING 8840
SWIDTH 500 0
DWIDTH 6 0
BBX 9 12 -1 -2
BITMAP 
0000
0000
0200
0F00
1400
1400
1800
0E00
0800
7C00
1000
0000
ENDCHAR
STARTCHAR U+2289
ENCODING 8841
SWIDTH 500 0
DWIDTH 6 0
BBX 9 12 -1 -2
BITMAP 
0000
0000
0200
1E00
0500
0500
0A00
3C00
0800
7C00
1000
0000
ENDCHAR
STARTCHAR U+228A
ENCODING 8842
SWIDTH 500 0
DWIDTH 6 0
BBX 9 12 -1 -2
BITMAP 
0000
0000
0000
0F00
1000
1000
1000
0E00
0400
7C00
2000
0000
ENDCHAR
STARTCHAR U+228B
ENCODING 8843
SWIDTH 500 0
DWIDTH 6 0
BBX 9 12 -1 -2
BITMAP 
0000
0000
0000
1E00
0100
0200
0200
3C00
0400
7C00
2000
0000
ENDCHAR
STARTCHAR U+228F
ENCODING 8847
SWIDTH 500 0
DWIDTH 6 0
BBX 9 12 -1 -2
BITMAP 
0000
0000
0000
0000
1F00
1000
2000
2000
3E00
0000
0000
0000
ENDCHAR
STARTCHAR U+2290
ENCODING 8848
SWIDTH 500 0
DWIDTH 6 0
BBX 9 12 -1 -2
BITMAP 
0000
0000
0000
0000
1F00
0100
0200
0200
3E00
0000
0000
0000
ENDCHAR
STARTCHAR U+2291
ENCODING 8849
SWIDTH 500 0
DWIDTH 6 0
BBX 9 12 -1 -2
BITMAP 
0000
0000
0000
1F00
1000
1000
2000
3E00
0000
7C00
0000
0000
ENDCHAR
STARTCHAR U+2292
ENCODING 8850
SWIDTH 500 0
DWIDTH 6 0
BBX 9 12 -1 -2
BITMAP 
0000
0000
0000
1F00
0100
0100
0200
3E00
0000
7C00
0000
0000
ENDCHAR
STARTCHAR U+2293
ENCODING 8851
SWIDTH 500 0
DWIDTH 6 0
BBX 9 12 -1 -2
BITMAP 
0000
0000
0000
0000
0000
1F00
2200
2200
2200
4400
0000
0000
ENDCHAR
STARTCHAR U+2294
ENCODING 8852
SWIDTH 500 0
DWIDTH 6 0
BBX 9 12 -1 -2
BITMAP 
0000
0000
0000
0000
0000
1100
2200
2200
2200
7C00
0000
0000
ENDCHAR
STARTCHAR U+2295
ENCODING 8853
SWIDTH 500 0
DWIDTH 6 0
BBX 9 12 -1 -2
BITMAP 
0000
0000
0000
0000
0E00
1500
3E00
2A00
1C00
0000
0000
0000
ENDCHAR
STARTCHAR U+2296
ENCODING 8854
SWIDTH 500 0
DWIDTH 6 0
BBX 9 12 -1 -2
BITMAP 
0000
0000
0000
0000
0E00
1100
3E00
2200
1C00
0000
0000
0000
ENDCHAR
STARTCHAR U+2297
ENCODING 8855
SWIDTH 500 0
DWIDTH 6 0
BBX 9 12 -1 -2
BITMAP 
0000
0000
0000
0000
0E00
1A00
2A00
3600
1C00
0000
0000
0000
ENDCHAR
STARTCHAR U+2298
ENCODING 8856
SWIDTH 500 0
DWIDTH 6 0
BBX 9 12 -1 -2
BITMAP 
0000
0000
0000
0000
0E00
1200
2A00
3200
1C00
0000
0000
0000
ENDCHAR
STARTCHAR U+2299
ENCODING 8857
SWIDTH 500 0
DWIDTH 6 0
BBX 9 12 -1 -2
BITMAP 
0000
0000
0000
0000
0E00
1200
2A00
2200
1C00
0000
0000
0000
ENDCHAR
STARTCHAR U+229E
ENCODING 8862
SWIDTH 500 0
DWIDTH 6 0
BBX 9 12 -1 -2
BITMAP 
0000
0000
0000
0000
1F00
1500
3E00
2A00
3E00
0000
0000
0000
ENDCHAR
STARTCHAR U+229F
ENCODING 8863
SWIDTH 500 0
DWIDTH 6 0
BBX 9 12 -1 -2
BITMAP 
0000
0000
0000
0000
1F00
1100
3E00
2200
3E00
0000
0000
0000
ENDCHAR
STARTCHAR U+22A0
ENCODING 8864
SWIDTH 500 0
DWIDTH 6 0
BBX 9 12 -1 -2
BITMAP 
0000
0000
0000
0000
1F00
1F00
2A00
3600
3E00
0000
0000
0000
ENDCHAR
STARTCHAR U+22A1
ENCODING 8865
SWIDTH 500 0
DWIDTH 6 0
BBX 9 12 -1 -2
BITMAP 
0000
0000
0000
0000
1F00
1100
2A00
2200
3E00
0000
0000
0000
ENDCHAR
STARTCHAR U+22A2
ENCODING 8866
SWIDTH 500 0
DWIDTH 6 0
BBX 9 12 -1 -2
BITMAP 
0000
0000
0000
1000
1000
1000
3E00
2000
2000
4000
0000
0000
ENDCHAR
STARTCHAR U+22A3
ENCODING 8867
SWIDTH 500 0
DWIDTH 6 0
BBX 9 12 -1 -2
BITMAP 
0000
0000
0000
0100
0100
0100
3E00
0200
0200
0400
0000
0000
ENDCHAR
STARTCHAR U+22A4
ENCODING 8868
SWIDTH 500 0
DWIDTH 6 0
BBX 9 12 -1 -2
BITMAP 
0000
0000
0000
1F00
0400
0400
0800
0800
0800
1000
0000
0000
ENDCHAR
STARTCHAR U+22A5
ENCODING 8869
SWIDTH 500 0
DWIDTH 6 0
BBX 9 12 -1 -2
BITMAP 
0000
0000
0000
0400
0400
0400
0800
0800
0800
7C00
0000
0000
ENDCHAR
STARTCHAR U+22A6
ENCODING 8870
SWIDTH 500 0
DWIDTH 6 0
BBX 9 12 -1 -2
BITMAP 
0000
0000
0000
0800
0800
0800
1C00
1000
1000
2000
0000
0000
ENDCHAR
STARTCHAR U+22A7
ENCODING 8871
SWIDTH 500 0
DWIDTH 6 0
BBX 9 12 -1 -2
BITMAP 
0000
0000
0000
0800
0800
0E00
1000
1C00
1000
2000
0000
0000
ENDCHAR
STARTCHAR U+22A8
ENCODING 8872
SWIDTH 500 0
DWIDTH 6 0
BBX 9 12 -1 -2
BITMAP 
0000
0000
0000
1000
1000
1F00
2000
3E00
2000
4000
0000
0000
ENDCHAR
STARTCHAR U+22A9
ENCODING 8873
SWIDTH 500 0
DWIDTH 6 0
BBX 9 12 -1 -2
BITMAP 
0000
0000
0000
1400
1400
1400
2E00
2800
2800
5000
0000
0000
ENDCHAR
STARTCHAR U+22AA
ENCODING 8874
SWIDTH 500 0
DWIDTH 6 0
BBX 9 12 -1 -2
BITMAP 
0000
0000
0000
2A00
2A00
2A00
5600
5400
5400
A800
0000
0000
ENDCHAR
STARTCHAR U+22AB
ENCODING 8875
SWIDTH 500 0
DWIDTH 6 0
BBX 9 12 -1 -2
BITMAP 
0000
0000
0000
2800
2800
2F00
5000
5E00
5000
A000
0000
0000
ENDCHAR
STARTCHAR U+22AC
ENCODING 8876
SWIDTH 500 0
DWIDTH 6 0
BBX 9 12 -1 -2
BITMAP 
0000
0000
0000
1000
1200
1200
3E00
2800
2800
4000
0000
0000
ENDCHAR
STARTCHAR U+22AD
ENCODING 8877
SWIDTH 500 0
DWIDTH 6 0
BBX 9 12 -1 -2
BITMAP 
0000
0000
0000
1000
1200
1F00
2800
3E00
3000
4000
0000
0000
ENDCHAR
STARTCHAR U+22BF
ENCODING 8895
SWIDTH 500 0
DWIDTH 6 0
BBX 9 12 -1 -2
BITMAP 
0000
0000
0080
0300
0300
0500
0A00
1200
2200
4400
7C00
0000
ENDCHAR
STARTCHAR U+22C0
ENCODING 8896
SWIDTH 500 0
DWIDTH 6 0
BBX 9 12 -1 -2
BITMAP 
0000
0000
0200
0400
0400
0C00
1400
1400
2400
4400
4400
0000
ENDCHAR
STARTCHAR U+22C1
ENCODING 8897
SWIDTH 500 0
DWIDTH 6 0
BBX 9 12 -1 -2
BITMAP 
0000
0000
0880
1100
1100
1200
1400
1400
1800
1000
1000
0000
ENDCHAR
STARTCHAR U+22C2
ENCODING 8898
SWIDTH 500 0
DWIDTH 6 0
BBX 9 12 -1 -2
BITMAP 
0000
0000
0600
0900
1100
1100
2200
2200
2200
4400
4400
0000
ENDCHAR
STARTCHAR U+22C3
ENCODING 8899
SWIDTH 500 0
DWIDTH 6 0
BBX 9 12 -1 -2
BITMAP 
0000
0000
0880
1100
1100
1100
2200
2200
2200
2400
1800
0000
ENDCHAR
STARTCHAR U+22C5
ENCODING 8901
SWIDTH 500 0
DWIDTH 6 0
BBX 9 12 -1 -2
BITMAP 
0000
0000
0000
0000
0000
0000
0800
0000
0000
0000
0000
0000
ENDCHAR
STARTCHAR U+22DA
ENCODING 8922
SWIDTH 500 0
DWIDTH 6 0
BBX 9 12 -1 -2
BITMAP 
0000
0180
0600
1800
0C00
0300
3E00
3000
1800
0C00
3000
6000
ENDCHAR
ENDFONT
